<svg xmlns="http://www.w3.org/2000/svg" xmlns:xlink="http://www.w3.org/1999/xlink" width="40" zoomAndPan="magnify" viewBox="0 0 30 30.000001" height="40" preserveAspectRatio="xMidYMid meet" version="1.0"><defs><clipPath id="7c6f9c2adb"><path d="M 1.933594 7 L 4 7 L 4 10 L 1.933594 10 Z M 1.933594 7 " clip-rule="nonzero"/></clipPath><clipPath id="dc501c4b25"><path d="M 1.933594 13 L 4 13 L 4 16 L 1.933594 16 Z M 1.933594 13 " clip-rule="nonzero"/></clipPath></defs><path fill="#a16931" d="M 19.9375 25.984375 L 11.675781 25.984375 C 11.15625 25.984375 10.714844 25.527344 10.714844 25.007812 L 10.714844 18.253906 C 8.949219 16.609375 7.945312 14.28125 7.945312 11.859375 C 7.945312 9.5 8.859375 7.296875 10.519531 5.621094 C 12.175781 3.960938 14.398438 3.050781 16.757812 3.050781 C 19.117188 3.050781 21.324219 3.960938 22.980469 5.621094 C 24.65625 7.296875 25.570312 9.5 25.570312 11.859375 C 25.570312 12.058594 25.554688 12.285156 25.539062 12.484375 C 25.523438 12.699219 25.507812 12.910156 25.460938 13.140625 C 25.628906 13.472656 26.695312 14.933594 27.667969 16.214844 C 27.667969 16.214844 27.683594 16.226562 27.683594 16.242188 C 27.730469 16.304688 28.066406 16.914062 27.804688 17.460938 C 27.625 17.824219 27.242188 18.039062 26.648438 18.113281 C 26.648438 18.113281 26.632812 18.113281 26.617188 18.113281 L 25.597656 18.113281 C 25.585938 18.113281 25.570312 18.128906 25.570312 18.144531 L 25.570312 20.640625 C 25.570312 21.78125 24.640625 22.726562 23.484375 22.726562 L 20.898438 22.726562 L 20.898438 25.007812 C 20.898438 25.542969 20.472656 25.984375 19.9375 25.984375 Z M 16.757812 3.65625 C 12.238281 3.65625 8.554688 7.339844 8.554688 11.859375 C 8.554688 14.144531 9.527344 16.351562 11.234375 17.902344 C 11.292969 17.949219 11.324219 18.039062 11.324219 18.113281 L 11.324219 24.992188 C 11.324219 25.191406 11.492188 25.359375 11.675781 25.359375 L 19.9375 25.359375 C 20.136719 25.359375 20.289062 25.207031 20.289062 24.992188 L 20.289062 22.40625 C 20.289062 22.238281 20.425781 22.101562 20.59375 22.101562 L 23.484375 22.101562 C 24.289062 22.101562 24.960938 21.433594 24.960938 20.625 L 24.960938 18.128906 C 24.960938 17.78125 25.25 17.492188 25.597656 17.492188 L 26.605469 17.492188 C 26.847656 17.460938 27.152344 17.382812 27.257812 17.1875 C 27.363281 16.972656 27.226562 16.652344 27.167969 16.5625 C 27.074219 16.441406 26.558594 15.742188 26.023438 15.042969 C 24.824219 13.367188 24.839844 13.261719 24.855469 13.109375 C 24.855469 13.109375 24.855469 13.09375 24.855469 13.09375 C 24.898438 12.878906 24.914062 12.667969 24.929688 12.4375 C 24.945312 12.242188 24.960938 12.042969 24.960938 11.859375 C 24.960938 7.339844 21.277344 3.65625 16.757812 3.65625 Z M 16.757812 3.65625 " fill-opacity="1" fill-rule="evenodd"/><path fill="#a16931" d="M 17.929688 18.617188 L 15.660156 18.617188 C 15.496094 18.617188 15.359375 18.480469 15.359375 18.3125 L 15.359375 17.355469 C 14.75 17.203125 14.199219 16.972656 13.699219 16.667969 L 13.015625 17.339844 C 12.890625 17.460938 12.710938 17.460938 12.589844 17.339844 L 10.976562 15.742188 C 10.914062 15.679688 10.882812 15.605469 10.882812 15.527344 C 10.882812 15.453125 10.914062 15.375 10.976562 15.316406 L 11.660156 14.628906 C 11.339844 14.097656 11.113281 13.535156 10.976562 12.972656 L 10.015625 12.972656 C 9.847656 12.972656 9.710938 12.835938 9.710938 12.667969 L 9.710938 10.382812 C 9.710938 10.21875 9.847656 10.082031 10.015625 10.082031 L 10.976562 10.082031 C 11.113281 9.5 11.355469 8.953125 11.660156 8.4375 L 10.976562 7.75 C 10.867188 7.644531 10.867188 7.449219 10.976562 7.324219 L 12.589844 5.710938 C 12.648438 5.652344 12.726562 5.621094 12.800781 5.621094 C 12.878906 5.621094 12.953125 5.652344 13.015625 5.710938 L 13.699219 6.398438 C 14.199219 6.078125 14.765625 5.847656 15.359375 5.699219 L 15.359375 4.738281 C 15.359375 4.570312 15.496094 4.433594 15.660156 4.433594 L 17.929688 4.433594 C 18.097656 4.433594 18.234375 4.570312 18.234375 4.738281 L 18.234375 5.699219 C 18.8125 5.847656 19.375 6.078125 19.890625 6.382812 L 20.5625 5.710938 C 20.621094 5.652344 20.699219 5.621094 20.773438 5.621094 C 20.867188 5.621094 20.941406 5.652344 20.988281 5.710938 L 22.601562 7.324219 C 22.722656 7.433594 22.722656 7.628906 22.601562 7.75 L 21.933594 8.4375 C 22.234375 8.9375 22.464844 9.5 22.601562 10.082031 L 23.558594 10.082031 C 23.726562 10.082031 23.863281 10.21875 23.863281 10.382812 L 23.863281 12.667969 C 23.863281 12.835938 23.726562 12.972656 23.558594 12.972656 L 22.617188 12.972656 C 22.480469 13.535156 22.25 14.097656 21.933594 14.628906 L 22.617188 15.300781 C 22.664062 15.359375 22.707031 15.4375 22.707031 15.527344 C 22.707031 15.605469 22.675781 15.679688 22.617188 15.742188 L 21.003906 17.339844 C 20.882812 17.445312 20.683594 17.445312 20.578125 17.339844 L 19.890625 16.667969 C 19.390625 16.972656 18.84375 17.203125 18.234375 17.355469 L 18.234375 18.3125 C 18.234375 18.480469 18.097656 18.617188 17.929688 18.617188 Z M 15.964844 18.007812 L 17.625 18.007812 L 17.625 17.109375 C 17.625 16.957031 17.730469 16.835938 17.867188 16.804688 C 18.582031 16.652344 19.222656 16.394531 19.769531 16.03125 C 19.890625 15.953125 20.042969 15.96875 20.152344 16.0625 L 20.789062 16.683594 L 21.976562 15.511719 L 21.339844 14.890625 C 21.230469 14.78125 21.214844 14.628906 21.292969 14.507812 C 21.6875 13.898438 21.945312 13.261719 22.070312 12.605469 C 22.097656 12.46875 22.222656 12.363281 22.371094 12.363281 L 23.269531 12.363281 L 23.269531 10.6875 L 22.371094 10.6875 C 22.222656 10.6875 22.097656 10.582031 22.070312 10.429688 C 21.945312 9.777344 21.671875 9.121094 21.292969 8.558594 C 21.214844 8.4375 21.230469 8.269531 21.339844 8.164062 L 21.976562 7.523438 L 20.789062 6.351562 L 20.152344 6.992188 C 20.058594 7.082031 19.890625 7.097656 19.769531 7.019531 C 19.207031 6.640625 18.554688 6.367188 17.867188 6.230469 C 17.730469 6.199219 17.625 6.078125 17.625 5.925781 L 17.625 5.042969 L 15.964844 5.042969 L 15.964844 5.941406 C 15.964844 6.078125 15.859375 6.214844 15.722656 6.246094 C 15.039062 6.382812 14.382812 6.65625 13.820312 7.035156 C 13.699219 7.113281 13.546875 7.097656 13.441406 6.992188 L 12.800781 6.351562 L 11.613281 7.539062 L 12.253906 8.179688 C 12.359375 8.285156 12.375 8.4375 12.285156 8.558594 C 11.902344 9.136719 11.644531 9.789062 11.507812 10.445312 C 11.492188 10.582031 11.355469 10.6875 11.21875 10.6875 L 10.320312 10.6875 L 10.320312 12.363281 L 11.21875 12.363281 C 11.371094 12.363281 11.492188 12.46875 11.523438 12.621094 C 11.644531 13.277344 11.902344 13.914062 12.300781 14.507812 C 12.375 14.628906 12.359375 14.796875 12.253906 14.890625 L 11.613281 15.527344 L 12.800781 16.699219 L 13.441406 16.074219 C 13.546875 15.96875 13.699219 15.953125 13.820312 16.046875 C 14.367188 16.410156 15.007812 16.667969 15.722656 16.820312 C 15.859375 16.851562 15.964844 16.972656 15.964844 17.109375 Z M 15.660156 5.941406 Z M 15.660156 5.941406 " fill-opacity="1" fill-rule="evenodd"/><path fill="#a16931" d="M 18.460938 13.503906 L 15.128906 13.503906 C 14.960938 13.503906 14.824219 13.367188 14.824219 13.199219 L 14.824219 9.867188 C 14.824219 9.699219 14.960938 9.5625 15.128906 9.5625 L 18.460938 9.5625 C 18.628906 9.5625 18.765625 9.699219 18.765625 9.867188 L 18.765625 13.199219 C 18.765625 13.367188 18.628906 13.503906 18.460938 13.503906 Z M 15.433594 12.894531 L 18.15625 12.894531 L 18.15625 10.171875 L 15.433594 10.171875 Z M 15.433594 12.894531 " fill-opacity="1" fill-rule="evenodd"/><path fill="#a16931" d="M 19.921875 14.964844 L 13.667969 14.964844 C 13.5 14.964844 13.363281 14.828125 13.363281 14.660156 L 13.363281 8.40625 C 13.363281 8.238281 13.5 8.101562 13.667969 8.101562 L 19.921875 8.101562 C 20.089844 8.101562 20.226562 8.238281 20.226562 8.40625 L 20.226562 14.660156 C 20.226562 14.828125 20.089844 14.964844 19.921875 14.964844 Z M 13.972656 14.355469 L 19.617188 14.355469 L 19.617188 8.710938 L 13.972656 8.710938 Z M 13.972656 14.355469 " fill-opacity="1" fill-rule="evenodd"/><path fill="#a16931" d="M 19.023438 8.710938 C 18.859375 8.710938 18.722656 8.574219 18.722656 8.40625 L 18.722656 7.628906 C 18.722656 7.460938 18.859375 7.324219 19.023438 7.324219 C 19.191406 7.324219 19.328125 7.460938 19.328125 7.628906 L 19.328125 8.40625 C 19.328125 8.574219 19.191406 8.710938 19.023438 8.710938 Z M 19.023438 8.710938 " fill-opacity="1" fill-rule="evenodd"/><path fill="#a16931" d="M 18.128906 8.710938 C 17.960938 8.710938 17.824219 8.574219 17.824219 8.40625 L 17.824219 7.628906 C 17.824219 7.460938 17.960938 7.324219 18.128906 7.324219 C 18.292969 7.324219 18.429688 7.460938 18.429688 7.628906 L 18.429688 8.40625 C 18.429688 8.574219 18.292969 8.710938 18.128906 8.710938 Z M 18.128906 8.710938 " fill-opacity="1" fill-rule="evenodd"/><path fill="#a16931" d="M 17.246094 8.710938 C 17.078125 8.710938 16.941406 8.574219 16.941406 8.40625 L 16.941406 7.628906 C 16.941406 7.460938 17.078125 7.324219 17.246094 7.324219 C 17.410156 7.324219 17.550781 7.460938 17.550781 7.628906 L 17.550781 8.40625 C 17.550781 8.574219 17.410156 8.710938 17.246094 8.710938 Z M 17.246094 8.710938 " fill-opacity="1" fill-rule="evenodd"/><path fill="#a16931" d="M 16.347656 8.710938 C 16.179688 8.710938 16.042969 8.574219 16.042969 8.40625 L 16.042969 7.628906 C 16.042969 7.460938 16.179688 7.324219 16.347656 7.324219 C 16.515625 7.324219 16.652344 7.460938 16.652344 7.628906 L 16.652344 8.40625 C 16.652344 8.574219 16.515625 8.710938 16.347656 8.710938 Z M 16.347656 8.710938 " fill-opacity="1" fill-rule="evenodd"/><path fill="#a16931" d="M 15.449219 8.710938 C 15.28125 8.710938 15.144531 8.574219 15.144531 8.40625 L 15.144531 7.628906 C 15.144531 7.460938 15.28125 7.324219 15.449219 7.324219 C 15.617188 7.324219 15.753906 7.460938 15.753906 7.628906 L 15.753906 8.40625 C 15.753906 8.574219 15.617188 8.710938 15.449219 8.710938 Z M 15.449219 8.710938 " fill-opacity="1" fill-rule="evenodd"/><path fill="#a16931" d="M 14.566406 8.710938 C 14.398438 8.710938 14.261719 8.574219 14.261719 8.40625 L 14.261719 7.628906 C 14.261719 7.460938 14.398438 7.324219 14.566406 7.324219 C 14.734375 7.324219 14.871094 7.460938 14.871094 7.628906 L 14.871094 8.40625 C 14.871094 8.574219 14.734375 8.710938 14.566406 8.710938 Z M 14.566406 8.710938 " fill-opacity="1" fill-rule="evenodd"/><path fill="#a16931" d="M 19.023438 15.726562 C 18.859375 15.726562 18.722656 15.589844 18.722656 15.421875 L 18.722656 14.660156 C 18.722656 14.492188 18.859375 14.355469 19.023438 14.355469 C 19.191406 14.355469 19.328125 14.492188 19.328125 14.660156 L 19.328125 15.421875 C 19.328125 15.589844 19.191406 15.726562 19.023438 15.726562 Z M 19.023438 15.726562 " fill-opacity="1" fill-rule="evenodd"/><path fill="#a16931" d="M 18.128906 15.726562 C 17.960938 15.726562 17.824219 15.589844 17.824219 15.421875 L 17.824219 14.660156 C 17.824219 14.492188 17.960938 14.355469 18.128906 14.355469 C 18.292969 14.355469 18.429688 14.492188 18.429688 14.660156 L 18.429688 15.421875 C 18.429688 15.589844 18.292969 15.726562 18.128906 15.726562 Z M 18.128906 15.726562 " fill-opacity="1" fill-rule="evenodd"/><path fill="#a16931" d="M 17.246094 15.726562 C 17.078125 15.726562 16.941406 15.589844 16.941406 15.421875 L 16.941406 14.660156 C 16.941406 14.492188 17.078125 14.355469 17.246094 14.355469 C 17.410156 14.355469 17.550781 14.492188 17.550781 14.660156 L 17.550781 15.421875 C 17.550781 15.589844 17.410156 15.726562 17.246094 15.726562 Z M 17.246094 15.726562 " fill-opacity="1" fill-rule="evenodd"/><path fill="#a16931" d="M 16.347656 15.726562 C 16.179688 15.726562 16.042969 15.589844 16.042969 15.421875 L 16.042969 14.660156 C 16.042969 14.492188 16.179688 14.355469 16.347656 14.355469 C 16.515625 14.355469 16.652344 14.492188 16.652344 14.660156 L 16.652344 15.421875 C 16.652344 15.589844 16.515625 15.726562 16.347656 15.726562 Z M 16.347656 15.726562 " fill-opacity="1" fill-rule="evenodd"/><path fill="#a16931" d="M 15.449219 15.726562 C 15.28125 15.726562 15.144531 15.589844 15.144531 15.421875 L 15.144531 14.660156 C 15.144531 14.492188 15.28125 14.355469 15.449219 14.355469 C 15.617188 14.355469 15.753906 14.492188 15.753906 14.660156 L 15.753906 15.421875 C 15.753906 15.589844 15.617188 15.726562 15.449219 15.726562 Z M 15.449219 15.726562 " fill-opacity="1" fill-rule="evenodd"/><path fill="#a16931" d="M 14.566406 15.726562 C 14.398438 15.726562 14.261719 15.589844 14.261719 15.421875 L 14.261719 14.660156 C 14.261719 14.492188 14.398438 14.355469 14.566406 14.355469 C 14.734375 14.355469 14.871094 14.492188 14.871094 14.660156 L 14.871094 15.421875 C 14.871094 15.589844 14.734375 15.726562 14.566406 15.726562 Z M 14.566406 15.726562 " fill-opacity="1" fill-rule="evenodd"/><path fill="#a16931" d="M 20.699219 14.066406 L 19.921875 14.066406 C 19.753906 14.066406 19.617188 13.929688 19.617188 13.761719 C 19.617188 13.59375 19.753906 13.457031 19.921875 13.457031 L 20.699219 13.457031 C 20.867188 13.457031 21.003906 13.59375 21.003906 13.761719 C 21.003906 13.929688 20.867188 14.066406 20.699219 14.066406 Z M 20.699219 14.066406 " fill-opacity="1" fill-rule="evenodd"/><path fill="#a16931" d="M 20.699219 13.167969 L 19.921875 13.167969 C 19.753906 13.167969 19.617188 13.03125 19.617188 12.863281 C 19.617188 12.699219 19.753906 12.5625 19.921875 12.5625 L 20.699219 12.5625 C 20.867188 12.5625 21.003906 12.699219 21.003906 12.863281 C 21.003906 13.03125 20.867188 13.167969 20.699219 13.167969 Z M 20.699219 13.167969 " fill-opacity="1" fill-rule="evenodd"/><path fill="#a16931" d="M 20.699219 12.285156 L 19.921875 12.285156 C 19.753906 12.285156 19.617188 12.148438 19.617188 11.980469 C 19.617188 11.816406 19.753906 11.679688 19.921875 11.679688 L 20.699219 11.679688 C 20.867188 11.679688 21.003906 11.816406 21.003906 11.980469 C 21.003906 12.148438 20.867188 12.285156 20.699219 12.285156 Z M 20.699219 12.285156 " fill-opacity="1" fill-rule="evenodd"/><path fill="#a16931" d="M 20.699219 11.390625 L 19.921875 11.390625 C 19.753906 11.390625 19.617188 11.25 19.617188 11.085938 C 19.617188 10.917969 19.753906 10.78125 19.921875 10.78125 L 20.699219 10.78125 C 20.867188 10.78125 21.003906 10.917969 21.003906 11.085938 C 21.003906 11.25 20.867188 11.390625 20.699219 11.390625 Z M 20.699219 11.390625 " fill-opacity="1" fill-rule="evenodd"/><path fill="#a16931" d="M 20.699219 10.492188 L 19.921875 10.492188 C 19.753906 10.492188 19.617188 10.355469 19.617188 10.1875 C 19.617188 10.019531 19.753906 9.882812 19.921875 9.882812 L 20.699219 9.882812 C 20.867188 9.882812 21.003906 10.019531 21.003906 10.1875 C 21.003906 10.355469 20.867188 10.492188 20.699219 10.492188 Z M 20.699219 10.492188 " fill-opacity="1" fill-rule="evenodd"/><path fill="#a16931" d="M 20.699219 9.609375 L 19.921875 9.609375 C 19.753906 9.609375 19.617188 9.472656 19.617188 9.304688 C 19.617188 9.136719 19.753906 9 19.921875 9 L 20.699219 9 C 20.867188 9 21.003906 9.136719 21.003906 9.304688 C 21.003906 9.472656 20.867188 9.609375 20.699219 9.609375 Z M 20.699219 9.609375 " fill-opacity="1" fill-rule="evenodd"/><path fill="#a16931" d="M 13.667969 14.066406 L 12.890625 14.066406 C 12.726562 14.066406 12.589844 13.929688 12.589844 13.761719 C 12.589844 13.59375 12.726562 13.457031 12.890625 13.457031 L 13.667969 13.457031 C 13.835938 13.457031 13.972656 13.59375 13.972656 13.761719 C 13.972656 13.929688 13.835938 14.066406 13.667969 14.066406 Z M 13.667969 14.066406 " fill-opacity="1" fill-rule="evenodd"/><path fill="#a16931" d="M 13.667969 13.167969 L 12.890625 13.167969 C 12.726562 13.167969 12.589844 13.03125 12.589844 12.863281 C 12.589844 12.699219 12.726562 12.5625 12.890625 12.5625 L 13.667969 12.5625 C 13.835938 12.5625 13.972656 12.699219 13.972656 12.863281 C 13.972656 13.03125 13.835938 13.167969 13.667969 13.167969 Z M 13.667969 13.167969 " fill-opacity="1" fill-rule="evenodd"/><path fill="#a16931" d="M 13.667969 12.285156 L 12.890625 12.285156 C 12.726562 12.285156 12.589844 12.148438 12.589844 11.980469 C 12.589844 11.816406 12.726562 11.679688 12.890625 11.679688 L 13.667969 11.679688 C 13.835938 11.679688 13.972656 11.816406 13.972656 11.980469 C 13.972656 12.148438 13.835938 12.285156 13.667969 12.285156 Z M 13.667969 12.285156 " fill-opacity="1" fill-rule="evenodd"/><path fill="#a16931" d="M 13.667969 11.390625 L 12.890625 11.390625 C 12.726562 11.390625 12.589844 11.25 12.589844 11.085938 C 12.589844 10.917969 12.726562 10.78125 12.890625 10.78125 L 13.667969 10.78125 C 13.835938 10.78125 13.972656 10.917969 13.972656 11.085938 C 13.972656 11.25 13.835938 11.390625 13.667969 11.390625 Z M 13.667969 11.390625 " fill-opacity="1" fill-rule="evenodd"/><path fill="#a16931" d="M 13.667969 10.492188 L 12.890625 10.492188 C 12.726562 10.492188 12.589844 10.355469 12.589844 10.1875 C 12.589844 10.019531 12.726562 9.882812 12.890625 9.882812 L 13.667969 9.882812 C 13.835938 9.882812 13.972656 10.019531 13.972656 10.1875 C 13.972656 10.355469 13.835938 10.492188 13.667969 10.492188 Z M 13.667969 10.492188 " fill-opacity="1" fill-rule="evenodd"/><path fill="#a16931" d="M 13.667969 9.609375 L 12.890625 9.609375 C 12.726562 9.609375 12.589844 9.472656 12.589844 9.304688 C 12.589844 9.136719 12.726562 9 12.890625 9 L 13.667969 9 C 13.835938 9 13.972656 9.136719 13.972656 9.304688 C 13.972656 9.472656 13.835938 9.609375 13.667969 9.609375 Z M 13.667969 9.609375 " fill-opacity="1" fill-rule="evenodd"/><path fill="#a16931" d="M 10.015625 11.832031 L 5.632812 11.832031 C 5.464844 11.832031 5.328125 11.691406 5.328125 11.527344 C 5.328125 11.359375 5.464844 11.222656 5.632812 11.222656 L 10.015625 11.222656 C 10.183594 11.222656 10.320312 11.359375 10.320312 11.527344 C 10.320312 11.691406 10.183594 11.832031 10.015625 11.832031 Z M 10.015625 11.832031 " fill-opacity="1" fill-rule="evenodd"/><path fill="#a16931" d="M 4.933594 12.53125 C 4.386719 12.53125 3.929688 12.074219 3.929688 11.527344 C 3.929688 10.976562 4.386719 10.519531 4.933594 10.519531 C 5.480469 10.519531 5.9375 10.976562 5.9375 11.527344 C 5.9375 12.089844 5.496094 12.53125 4.933594 12.53125 Z M 4.933594 11.128906 C 4.71875 11.128906 4.539062 11.3125 4.539062 11.527344 C 4.539062 11.738281 4.71875 11.921875 4.933594 11.921875 C 5.160156 11.921875 5.328125 11.753906 5.328125 11.527344 C 5.328125 11.3125 5.144531 11.128906 4.933594 11.128906 Z M 4.933594 11.128906 " fill-opacity="1" fill-rule="evenodd"/><path fill="#a16931" d="M 8.433594 10.382812 L 6.578125 10.382812 C 6.46875 10.382812 6.363281 10.324219 6.316406 10.230469 L 5.34375 8.527344 L 3.640625 8.527344 C 3.472656 8.527344 3.335938 8.390625 3.335938 8.222656 C 3.335938 8.054688 3.472656 7.917969 3.640625 7.917969 L 5.511719 7.917969 C 5.617188 7.917969 5.726562 7.980469 5.785156 8.070312 L 6.757812 9.777344 L 8.433594 9.777344 C 8.601562 9.777344 8.738281 9.914062 8.738281 10.082031 C 8.738281 10.246094 8.601562 10.382812 8.433594 10.382812 Z M 8.433594 10.382812 " fill-opacity="1" fill-rule="evenodd"/><path fill="#a16931" d="M 12.039062 8.605469 L 8.082031 8.605469 C 7.976562 8.605469 7.871094 8.542969 7.824219 8.453125 L 6.820312 6.746094 L 5.132812 6.746094 C 4.964844 6.746094 4.828125 6.609375 4.828125 6.441406 C 4.828125 6.277344 4.964844 6.140625 5.132812 6.140625 L 7.003906 6.140625 C 7.109375 6.140625 7.214844 6.199219 7.261719 6.289062 L 8.265625 7.996094 L 12.039062 7.996094 C 12.207031 7.996094 12.34375 8.132812 12.34375 8.300781 C 12.34375 8.46875 12.207031 8.605469 12.039062 8.605469 Z M 12.039062 8.605469 " fill-opacity="1" fill-rule="evenodd"/><path fill="#a16931" d="M 4.445312 7.449219 C 3.898438 7.449219 3.441406 6.992188 3.441406 6.441406 C 3.441406 5.894531 3.898438 5.4375 4.445312 5.4375 C 4.996094 5.4375 5.4375 5.894531 5.4375 6.441406 C 5.4375 6.992188 4.996094 7.449219 4.445312 7.449219 Z M 4.445312 6.046875 C 4.234375 6.046875 4.050781 6.230469 4.050781 6.441406 C 4.050781 6.65625 4.234375 6.839844 4.445312 6.839844 C 4.660156 6.839844 4.828125 6.65625 4.828125 6.441406 C 4.828125 6.230469 4.660156 6.046875 4.445312 6.046875 Z M 4.445312 6.046875 " fill-opacity="1" fill-rule="evenodd"/><g clip-path="url(#7c6f9c2adb)"><path fill="#a16931" d="M 2.941406 9.226562 C 2.390625 9.226562 1.933594 8.769531 1.933594 8.222656 C 1.933594 7.675781 2.40625 7.21875 2.941406 7.21875 C 3.488281 7.21875 3.945312 7.675781 3.945312 8.222656 C 3.945312 8.769531 3.503906 9.226562 2.941406 9.226562 Z M 2.941406 7.828125 C 2.726562 7.828125 2.542969 8.011719 2.542969 8.222656 C 2.542969 8.4375 2.726562 8.621094 2.941406 8.621094 C 3.167969 8.621094 3.335938 8.4375 3.335938 8.222656 C 3.335938 8.011719 3.152344 7.828125 2.941406 7.828125 Z M 2.941406 7.828125 " fill-opacity="1" fill-rule="evenodd"/></g><path fill="#a16931" d="M 5.511719 15.132812 L 3.640625 15.132812 C 3.472656 15.132812 3.335938 14.996094 3.335938 14.828125 C 3.335938 14.660156 3.472656 14.523438 3.640625 14.523438 L 5.34375 14.523438 L 6.316406 12.820312 C 6.378906 12.710938 6.46875 12.667969 6.578125 12.667969 L 8.328125 12.667969 C 8.496094 12.667969 8.632812 12.804688 8.632812 12.972656 C 8.632812 13.140625 8.496094 13.277344 8.328125 13.277344 L 6.757812 13.277344 L 5.769531 14.980469 C 5.726562 15.070312 5.617188 15.132812 5.511719 15.132812 Z M 5.511719 15.132812 " fill-opacity="1" fill-rule="evenodd"/><path fill="#a16931" d="M 7.003906 16.929688 L 5.132812 16.929688 C 4.964844 16.929688 4.828125 16.792969 4.828125 16.625 C 4.828125 16.457031 4.964844 16.320312 5.132812 16.320312 L 6.820312 16.320312 L 7.824219 14.613281 C 7.871094 14.523438 7.976562 14.460938 8.082031 14.460938 L 12.039062 14.460938 C 12.207031 14.460938 12.34375 14.601562 12.34375 14.765625 C 12.34375 14.933594 12.207031 15.070312 12.039062 15.070312 L 8.265625 15.070312 L 7.261719 16.777344 C 7.214844 16.867188 7.109375 16.929688 7.003906 16.929688 Z M 7.003906 16.929688 " fill-opacity="1" fill-rule="evenodd"/><path fill="#a16931" d="M 4.445312 17.628906 C 3.898438 17.628906 3.441406 17.171875 3.441406 16.625 C 3.441406 16.0625 3.882812 15.621094 4.445312 15.621094 C 5.007812 15.621094 5.4375 16.0625 5.4375 16.625 C 5.4375 17.171875 4.996094 17.628906 4.445312 17.628906 Z M 4.445312 16.226562 C 4.21875 16.226562 4.050781 16.394531 4.050781 16.625 C 4.050781 16.835938 4.234375 17.019531 4.445312 17.019531 C 4.660156 17.019531 4.828125 16.835938 4.828125 16.625 C 4.828125 16.394531 4.660156 16.226562 4.445312 16.226562 Z M 4.445312 16.226562 " fill-opacity="1" fill-rule="evenodd"/><g clip-path="url(#dc501c4b25)"><path fill="#a16931" d="M 2.941406 15.832031 C 2.390625 15.832031 1.933594 15.375 1.933594 14.828125 C 1.933594 14.28125 2.40625 13.824219 2.941406 13.824219 C 3.488281 13.824219 3.945312 14.28125 3.945312 14.828125 C 3.945312 15.375 3.503906 15.832031 2.941406 15.832031 Z M 2.941406 14.433594 C 2.726562 14.433594 2.542969 14.613281 2.542969 14.828125 C 2.542969 15.042969 2.726562 15.222656 2.941406 15.222656 C 3.167969 15.222656 3.335938 15.042969 3.335938 14.828125 C 3.335938 14.613281 3.152344 14.433594 2.941406 14.433594 Z M 2.941406 14.433594 " fill-opacity="1" fill-rule="evenodd"/></g></svg>