<svg xmlns="http://www.w3.org/2000/svg" xmlns:xlink="http://www.w3.org/1999/xlink" width="1890" zoomAndPan="magnify" viewBox="0 0 1417.5 1417.500002" height="1890" preserveAspectRatio="xMidYMid meet" version="1.0"><defs><clipPath id="a0aacf6d14"><path d="M 0.882812 1.832031 L 1280 1.832031 L 1280 1113.078125 L 0.882812 1113.078125 Z M 0.882812 1.832031 " clip-rule="nonzero"/></clipPath><clipPath id="2a6c514165"><rect x="0" width="1283" y="0" height="1115"/></clipPath></defs><g transform="matrix(1, 0, 0, 1, 68, 151)"><g clip-path="url(#2a6c514165)"><g clip-path="url(#a0aacf6d14)"><path fill="#a16931" d="M 1268.347656 413.898438 C 1261.34375 411.199219 1253.414062 413.09375 1248.386719 418.648438 L 836.75 873.492188 L 803.023438 747.628906 L 894.953125 747.628906 C 926.320312 747.628906 951.84375 722.140625 951.84375 690.8125 C 951.84375 658.335938 926.851562 632.898438 894.953125 632.898438 L 772.277344 632.898438 L 721.859375 444.753906 C 749.542969 418.566406 766.863281 381.542969 766.863281 340.527344 C 766.863281 286.851562 737.222656 239.992188 693.460938 215.359375 L 693.460938 120.757812 C 693.460938 110.742188 685.34375 102.625 675.328125 102.625 L 571.167969 102.625 C 561.152344 102.625 553.035156 110.742188 553.035156 120.757812 L 553.035156 215.335938 C 509.273438 239.964844 479.628906 286.835938 479.628906 340.527344 C 479.628906 386.917969 501.765625 428.21875 536.011719 454.484375 L 431.421875 632.898438 L 351.46875 632.898438 C 320.140625 632.898438 294.652344 658.386719 294.652344 689.710938 C 294.652344 722.1875 319.609375 747.628906 351.46875 747.628906 L 364.164062 747.628906 L 323.871094 816.359375 L 322.433594 815.53125 C 313.769531 810.53125 302.6875 813.496094 297.675781 822.160156 L 231.539062 936.523438 C 231.511719 936.566406 231.492188 936.617188 231.46875 936.664062 C 231.144531 937.234375 230.859375 937.8125 230.605469 938.402344 C 230.53125 938.574219 230.46875 938.75 230.398438 938.925781 C 230.203125 939.421875 230.023438 939.917969 229.875 940.425781 C 229.820312 940.605469 229.769531 940.789062 229.71875 940.972656 C 229.574219 941.519531 229.457031 942.066406 229.367188 942.621094 C 229.34375 942.757812 229.3125 942.894531 229.292969 943.035156 C 229.191406 943.738281 229.128906 944.445312 229.109375 945.152344 C 229.109375 945.160156 229.109375 945.171875 229.109375 945.179688 L 226.546875 1056.074219 C 113.949219 952.28125 45.648438 807.761719 37.816406 654.199219 C 29.386719 488.953125 91.691406 327.046875 208.746094 209.988281 C 319.457031 99.242188 466.664062 38.25 623.246094 38.25 C 779.832031 38.25 927.035156 99.242188 1037.761719 210 C 1091.039062 263.207031 1132.957031 325.058594 1162.355469 393.828125 C 1166.292969 403.035156 1176.949219 407.308594 1186.152344 403.371094 C 1195.359375 399.433594 1199.632812 388.78125 1195.699219 379.574219 C 1164.472656 306.527344 1119.953125 240.839844 1063.390625 184.351562 C 945.832031 66.75 789.519531 1.988281 623.246094 1.988281 C 456.976562 1.988281 300.664062 66.75 183.101562 184.347656 C 119.5 247.953125 71.429688 322.445312 40.226562 405.757812 C 10.214844 485.886719 -2.78125 570.097656 1.601562 656.046875 C 5.992188 742.121094 27.539062 824.714844 65.652344 901.539062 C 105.269531 981.40625 160.808594 1050.773438 230.71875 1107.714844 C 230.941406 1107.894531 231.191406 1108.019531 231.421875 1108.191406 C 232.414062 1109.117188 233.492188 1109.964844 234.695312 1110.664062 C 237.507812 1112.296875 240.648438 1113.109375 243.785156 1113.109375 C 247.03125 1113.109375 250.277344 1112.238281 253.160156 1110.496094 L 380.882812 1033.347656 C 381.113281 1033.207031 381.324219 1033.039062 381.546875 1032.886719 C 381.902344 1032.648438 382.261719 1032.417969 382.601562 1032.15625 C 382.875 1031.941406 383.128906 1031.707031 383.394531 1031.476562 C 383.714844 1031.195312 384.042969 1030.925781 384.34375 1030.621094 C 384.617188 1030.347656 384.863281 1030.046875 385.117188 1029.757812 C 385.375 1029.460938 385.640625 1029.179688 385.882812 1028.867188 C 386.195312 1028.460938 386.46875 1028.019531 386.746094 1027.585938 C 386.890625 1027.367188 387.050781 1027.167969 387.183594 1026.941406 C 387.195312 1026.921875 387.203125 1026.902344 387.210938 1026.886719 C 387.214844 1026.882812 387.21875 1026.878906 387.21875 1026.875 L 453.355469 911.996094 C 458.351562 903.328125 455.375 892.25 446.707031 887.246094 L 445.484375 886.542969 L 526.886719 747.628906 L 657.613281 747.628906 L 724.5625 997.460938 L 647.71875 1082.371094 C 642.90625 1087.6875 641.679688 1095.335938 644.589844 1101.890625 C 647.496094 1108.445312 653.992188 1112.667969 661.160156 1112.667969 L 1261.828125 1112.667969 C 1271.839844 1112.667969 1279.960938 1104.550781 1279.960938 1094.539062 L 1279.960938 430.816406 C 1279.960938 423.316406 1275.34375 416.59375 1268.347656 413.898438 Z M 894.953125 669.160156 C 906.710938 669.160156 915.578125 678.46875 915.578125 690.8125 C 915.578125 702.148438 906.324219 711.367188 894.953125 711.367188 L 793.304688 711.367188 L 781.996094 669.160156 Z M 589.300781 138.886719 L 657.195312 138.886719 L 657.195312 201.046875 C 646.292969 198.390625 634.917969 196.949219 623.210938 196.949219 C 611.527344 196.949219 600.179688 198.386719 589.300781 201.03125 Z M 515.894531 340.527344 C 515.894531 281.351562 564.035156 233.210938 623.210938 233.210938 C 682.425781 233.210938 730.601562 281.351562 730.601562 340.527344 C 730.601562 399.703125 682.425781 447.847656 623.210938 447.847656 C 564.035156 447.847656 515.894531 399.703125 515.894531 340.527344 Z M 351.46875 711.367188 C 339.753906 711.367188 330.917969 702.058594 330.917969 689.710938 C 330.917969 678.378906 340.136719 669.160156 351.46875 669.160156 L 410.164062 669.160156 L 385.417969 711.367188 Z M 262.671875 1062.386719 L 264.652344 976.691406 L 335.945312 1018.128906 Z M 364.878906 993.003906 L 271.988281 939.015625 L 320 855.992188 L 321.121094 856.640625 C 321.160156 856.664062 321.191406 856.691406 321.230469 856.710938 C 321.269531 856.734375 321.308594 856.746094 321.34375 856.769531 L 412.894531 909.601562 Z M 414.074219 868.414062 L 355.277344 834.484375 L 457.351562 660.363281 C 457.519531 660.085938 457.6875 659.816406 457.839844 659.53125 L 567.316406 472.78125 C 584.507812 480.070312 603.394531 484.105469 623.210938 484.105469 C 628.847656 484.105469 634.398438 483.746094 639.867188 483.109375 L 500.785156 720.445312 C 500.691406 720.613281 500.585938 720.769531 500.496094 720.941406 Z M 616.589844 594.554688 L 626.867188 632.898438 L 594.121094 632.898438 Z M 548.140625 711.367188 L 572.871094 669.160156 L 636.582031 669.160156 L 647.894531 711.367188 Z M 689.394531 726.144531 C 689.230469 725.257812 688.992188 724.398438 688.703125 723.558594 L 668.167969 646.929688 C 668.054688 646.445312 667.933594 645.964844 667.78125 645.496094 L 642.351562 550.597656 L 690.613281 468.242188 L 740.792969 655.503906 C 740.882812 655.84375 740.960938 656.1875 741.066406 656.523438 L 761.546875 732.9375 C 761.703125 733.757812 761.921875 734.554688 762.1875 735.332031 L 807.789062 905.496094 L 753.527344 965.457031 Z M 1243.695312 1076.40625 L 702.023438 1076.40625 L 841.058594 922.777344 C 841.285156 922.535156 841.507812 922.296875 841.722656 922.042969 L 1243.695312 477.871094 Z M 623.210938 407.105469 C 659.921875 407.105469 689.789062 377.238281 689.789062 340.527344 C 689.789062 303.816406 659.921875 273.953125 623.210938 273.953125 C 586.5 273.953125 556.632812 303.816406 556.632812 340.527344 C 556.632812 377.238281 586.5 407.105469 623.210938 407.105469 Z M 623.210938 310.210938 C 639.925781 310.210938 653.527344 323.8125 653.527344 340.527344 C 653.527344 357.242188 639.925781 370.84375 623.210938 370.84375 C 606.496094 370.84375 592.894531 357.242188 592.894531 340.527344 C 592.894531 323.8125 606.496094 310.210938 623.210938 310.210938 Z M 875.882812 999.269531 C 878.792969 1005.824219 885.289062 1010.046875 892.457031 1010.046875 L 1159.207031 1010.046875 C 1169.222656 1010.046875 1177.339844 1001.929688 1177.339844 991.917969 L 1177.339844 697.199219 C 1177.339844 689.703125 1172.726562 682.976562 1165.726562 680.28125 C 1158.726562 677.582031 1150.796875 679.476562 1145.765625 685.03125 L 879.015625 979.75 C 874.203125 985.066406 872.976562 992.714844 875.882812 999.269531 Z M 1141.074219 744.25 L 1141.074219 973.785156 L 933.320312 973.785156 Z M 1141.074219 744.25 " fill-opacity="1" fill-rule="nonzero"/></g></g></g></svg>