<svg xmlns="http://www.w3.org/2000/svg" xmlns:xlink="http://www.w3.org/1999/xlink" width="40" zoomAndPan="magnify" viewBox="0 0 30 30.000001" height="40" preserveAspectRatio="xMidYMid meet" version="1.0"><defs><clipPath id="f3c7cdf5c8"><path d="M 9 16 L 21 16 L 21 25.851562 L 9 25.851562 Z M 9 16 " clip-rule="nonzero"/></clipPath><clipPath id="fbc02565ff"><path d="M 10 2.625 L 20 2.625 L 20 12 L 10 12 Z M 10 2.625 " clip-rule="nonzero"/></clipPath><clipPath id="db28fb432a"><path d="M 20 5 L 28.289062 5 L 28.289062 14 L 20 14 Z M 20 5 " clip-rule="nonzero"/></clipPath><clipPath id="699beb4f7d"><path d="M 1.433594 5 L 10 5 L 10 14 L 1.433594 14 Z M 1.433594 5 " clip-rule="nonzero"/></clipPath></defs><g clip-path="url(#f3c7cdf5c8)"><path fill="#a16931" d="M 20.113281 16.792969 L 17.628906 16.792969 C 17.480469 16.792969 17.40625 16.867188 17.40625 17.015625 L 17.40625 20.597656 C 17.410156 20.941406 17.34375 21.269531 17.214844 21.585938 C 17.082031 21.902344 16.898438 22.179688 16.65625 22.421875 C 16.414062 22.664062 16.136719 22.847656 15.820312 22.980469 C 15.503906 23.109375 15.175781 23.175781 14.835938 23.175781 C 14.492188 23.175781 14.164062 23.109375 13.847656 22.980469 C 13.535156 22.847656 13.253906 22.664062 13.011719 22.421875 C 12.773438 22.179688 12.585938 21.902344 12.457031 21.585938 C 12.324219 21.269531 12.261719 20.941406 12.261719 20.597656 L 12.261719 17.015625 C 12.261719 16.867188 12.1875 16.792969 12.039062 16.792969 L 9.554688 16.792969 C 9.410156 16.792969 9.335938 16.867188 9.335938 17.015625 L 9.335938 20.597656 C 9.335938 20.960938 9.371094 21.316406 9.441406 21.671875 C 9.511719 22.027344 9.613281 22.371094 9.753906 22.703125 C 9.890625 23.039062 10.058594 23.355469 10.261719 23.65625 C 10.460938 23.957031 10.691406 24.234375 10.945312 24.488281 C 11.199219 24.746094 11.476562 24.972656 11.777344 25.171875 C 12.078125 25.375 12.394531 25.542969 12.730469 25.683594 C 13.0625 25.820312 13.40625 25.925781 13.761719 25.996094 C 14.117188 26.066406 14.472656 26.101562 14.835938 26.101562 C 15.195312 26.101562 15.554688 26.066406 15.90625 25.996094 C 16.261719 25.925781 16.605469 25.820312 16.941406 25.683594 C 17.273438 25.542969 17.589844 25.375 17.890625 25.171875 C 18.191406 24.972656 18.46875 24.746094 18.722656 24.488281 C 18.980469 24.234375 19.207031 23.957031 19.40625 23.65625 C 19.609375 23.355469 19.777344 23.039062 19.917969 22.703125 C 20.054688 22.371094 20.160156 22.027344 20.230469 21.671875 C 20.300781 21.316406 20.335938 20.960938 20.335938 20.597656 L 20.335938 17.015625 C 20.335938 16.867188 20.261719 16.792969 20.113281 16.792969 Z M 17.851562 17.234375 L 19.890625 17.234375 L 19.890625 18.515625 L 17.851562 18.515625 Z M 9.777344 17.234375 L 11.820312 17.234375 L 11.820312 18.515625 L 9.777344 18.515625 Z M 14.835938 25.65625 C 14.503906 25.65625 14.175781 25.625 13.847656 25.558594 C 13.523438 25.492188 13.207031 25.398438 12.898438 25.269531 C 12.59375 25.144531 12.300781 24.988281 12.027344 24.800781 C 11.75 24.617188 11.496094 24.410156 11.261719 24.171875 C 11.023438 23.9375 10.816406 23.683594 10.632812 23.40625 C 10.445312 23.132812 10.289062 22.839844 10.164062 22.535156 C 10.035156 22.226562 9.941406 21.910156 9.875 21.585938 C 9.808594 21.257812 9.777344 20.929688 9.777344 20.597656 L 9.777344 18.957031 L 11.820312 18.957031 L 11.820312 20.597656 C 11.820312 21 11.894531 21.382812 12.046875 21.753906 C 12.199219 22.125 12.417969 22.449219 12.703125 22.734375 C 12.984375 23.015625 13.308594 23.234375 13.679688 23.386719 C 14.050781 23.539062 14.433594 23.617188 14.835938 23.617188 C 15.234375 23.617188 15.621094 23.539062 15.988281 23.386719 C 16.359375 23.234375 16.683594 23.015625 16.96875 22.734375 C 17.25 22.449219 17.46875 22.125 17.621094 21.753906 C 17.773438 21.382812 17.851562 21 17.851562 20.597656 L 17.851562 18.957031 L 19.890625 18.957031 L 19.890625 20.597656 C 19.890625 20.929688 19.859375 21.257812 19.792969 21.585938 C 19.730469 21.910156 19.632812 22.226562 19.503906 22.535156 C 19.378906 22.839844 19.222656 23.132812 19.039062 23.40625 C 18.855469 23.683594 18.644531 23.9375 18.410156 24.171875 C 18.175781 24.410156 17.917969 24.617188 17.644531 24.800781 C 17.367188 24.988281 17.074219 25.144531 16.769531 25.269531 C 16.460938 25.398438 16.144531 25.492188 15.820312 25.558594 C 15.496094 25.625 15.167969 25.65625 14.835938 25.65625 Z M 14.835938 25.65625 " fill-opacity="1" fill-rule="nonzero"/></g><g clip-path="url(#fbc02565ff)"><path fill="#a16931" d="M 14.988281 11.828125 C 15.070312 11.828125 15.15625 11.828125 15.242188 11.820312 C 15.878906 11.785156 16.488281 11.625 17.058594 11.339844 C 17.628906 11.050781 18.121094 10.664062 18.535156 10.171875 C 18.773438 9.886719 18.972656 9.578125 19.132812 9.246094 C 19.292969 8.914062 19.414062 8.566406 19.492188 8.207031 C 19.570312 7.84375 19.605469 7.480469 19.59375 7.109375 C 19.585938 6.742188 19.53125 6.378906 19.433594 6.023438 C 19.335938 5.664062 19.199219 5.324219 19.019531 5.003906 C 18.84375 4.679688 18.628906 4.382812 18.375 4.109375 C 18.125 3.839844 17.847656 3.601562 17.539062 3.398438 C 17.230469 3.191406 16.902344 3.027344 16.554688 2.902344 C 16.207031 2.777344 15.851562 2.695312 15.484375 2.65625 C 15.117188 2.617188 14.75 2.621094 14.382812 2.671875 C 14.015625 2.71875 13.660156 2.8125 13.316406 2.945312 C 12.972656 3.082031 12.648438 3.253906 12.347656 3.46875 C 12.046875 3.679688 11.773438 3.925781 11.53125 4.203125 C 11.285156 4.480469 11.082031 4.785156 10.910156 5.113281 C 10.738281 5.441406 10.613281 5.785156 10.523438 6.144531 C 10.4375 6.503906 10.394531 6.867188 10.394531 7.234375 C 10.394531 7.539062 10.421875 7.835938 10.480469 8.132812 C 10.539062 8.429688 10.625 8.714844 10.742188 8.996094 C 10.855469 9.273438 10.996094 9.539062 11.164062 9.789062 C 11.332031 10.039062 11.523438 10.273438 11.738281 10.484375 C 11.949219 10.699219 12.183594 10.890625 12.433594 11.058594 C 12.683594 11.222656 12.949219 11.367188 13.226562 11.480469 C 13.507812 11.597656 13.792969 11.683594 14.089844 11.742188 C 14.386719 11.800781 14.683594 11.828125 14.988281 11.828125 Z M 14.5625 11.363281 C 14.554688 11.363281 14.546875 11.363281 14.542969 11.363281 C 14.40625 11.347656 14.273438 11.324219 14.140625 11.296875 C 14.128906 11.296875 14.117188 11.292969 14.105469 11.289062 C 13.976562 11.261719 13.851562 11.226562 13.726562 11.1875 C 13.710938 11.183594 13.695312 11.179688 13.683594 11.175781 C 13.558594 11.132812 13.4375 11.085938 13.320312 11.035156 C 13.304688 11.027344 13.289062 11.019531 13.273438 11.015625 C 13.15625 10.960938 13.042969 10.902344 12.933594 10.839844 C 12.917969 10.828125 12.902344 10.820312 12.886719 10.8125 C 12.777344 10.746094 12.667969 10.679688 12.566406 10.601562 C 12.550781 10.59375 12.535156 10.582031 12.519531 10.570312 C 12.414062 10.492188 12.316406 10.414062 12.21875 10.328125 C 12.207031 10.316406 12.191406 10.300781 12.175781 10.289062 C 12.082031 10.199219 11.992188 10.109375 11.902344 10.015625 C 11.898438 10.007812 11.890625 10 11.882812 9.992188 C 12.183594 9.414062 12.613281 8.953125 13.167969 8.613281 C 13.722656 8.273438 14.328125 8.105469 14.980469 8.101562 C 14.984375 8.101562 14.988281 8.105469 14.988281 8.105469 L 14.996094 8.101562 C 15.648438 8.101562 16.257812 8.269531 16.816406 8.613281 C 17.375 8.953125 17.800781 9.414062 18.101562 9.996094 C 18.09375 10 18.089844 10.007812 18.085938 10.011719 C 17.996094 10.109375 17.902344 10.203125 17.808594 10.289062 C 17.792969 10.300781 17.78125 10.316406 17.765625 10.328125 C 17.667969 10.414062 17.570312 10.492188 17.464844 10.570312 C 17.449219 10.582031 17.433594 10.59375 17.417969 10.605469 C 17.316406 10.679688 17.207031 10.746094 17.097656 10.8125 C 17.082031 10.820312 17.066406 10.832031 17.050781 10.839844 C 16.9375 10.902344 16.824219 10.960938 16.707031 11.015625 C 16.691406 11.019531 16.675781 11.027344 16.660156 11.035156 C 16.542969 11.085938 16.421875 11.132812 16.300781 11.175781 C 16.285156 11.179688 16.269531 11.183594 16.253906 11.1875 C 16.128906 11.226562 16.003906 11.261719 15.875 11.289062 C 15.863281 11.292969 15.851562 11.296875 15.839844 11.296875 C 15.703125 11.324219 15.570312 11.347656 15.433594 11.363281 C 15.425781 11.363281 15.421875 11.363281 15.414062 11.363281 C 15.273438 11.378906 15.128906 11.386719 14.988281 11.386719 C 14.84375 11.386719 14.703125 11.378906 14.5625 11.363281 Z M 13.632812 6.304688 C 13.632812 6.125 13.667969 5.949219 13.734375 5.785156 C 13.804688 5.617188 13.902344 5.472656 14.027344 5.34375 C 14.15625 5.21875 14.300781 5.121094 14.46875 5.050781 C 14.632812 4.980469 14.808594 4.945312 14.988281 4.945312 C 15.167969 4.945312 15.339844 4.980469 15.507812 5.046875 C 15.671875 5.117188 15.820312 5.214844 15.945312 5.339844 C 16.074219 5.46875 16.171875 5.613281 16.242188 5.78125 C 16.3125 5.945312 16.347656 6.121094 16.347656 6.300781 C 16.347656 6.480469 16.3125 6.652344 16.246094 6.820312 C 16.175781 6.984375 16.078125 7.132812 15.953125 7.257812 C 15.828125 7.386719 15.679688 7.484375 15.515625 7.554688 C 15.347656 7.625 15.175781 7.660156 14.996094 7.660156 C 14.992188 7.660156 14.988281 7.660156 14.988281 7.660156 L 14.980469 7.660156 C 14.800781 7.660156 14.628906 7.625 14.464844 7.554688 C 14.300781 7.484375 14.152344 7.386719 14.027344 7.261719 C 13.902344 7.132812 13.804688 6.988281 13.734375 6.820312 C 13.667969 6.65625 13.632812 6.484375 13.632812 6.304688 Z M 14.988281 3.074219 C 15.761719 3.070312 16.484375 3.273438 17.144531 3.675781 C 17.808594 4.078125 18.320312 4.621094 18.679688 5.3125 C 19.039062 6 19.191406 6.730469 19.140625 7.503906 C 19.089844 8.28125 18.84375 8.984375 18.398438 9.621094 C 17.851562 8.675781 17.054688 8.066406 16 7.792969 C 16.214844 7.648438 16.386719 7.464844 16.523438 7.242188 C 16.660156 7.023438 16.742188 6.785156 16.773438 6.527344 C 16.808594 6.273438 16.785156 6.019531 16.710938 5.773438 C 16.632812 5.527344 16.511719 5.304688 16.339844 5.113281 C 16.167969 4.917969 15.964844 4.769531 15.730469 4.664062 C 15.492188 4.554688 15.246094 4.503906 14.988281 4.503906 C 14.730469 4.503906 14.484375 4.558594 14.246094 4.664062 C 14.011719 4.769531 13.808594 4.921875 13.636719 5.113281 C 13.46875 5.308594 13.34375 5.53125 13.269531 5.777344 C 13.191406 6.023438 13.171875 6.277344 13.203125 6.53125 C 13.238281 6.789062 13.320312 7.027344 13.457031 7.246094 C 13.59375 7.46875 13.769531 7.648438 13.980469 7.792969 C 12.929688 8.070312 12.132812 8.679688 11.585938 9.621094 C 11.140625 8.984375 10.894531 8.28125 10.84375 7.507812 C 10.792969 6.734375 10.945312 6.003906 11.304688 5.316406 C 11.660156 4.628906 12.171875 4.085938 12.832031 3.679688 C 13.492188 3.277344 14.210938 3.074219 14.988281 3.074219 Z M 14.988281 3.074219 " fill-opacity="1" fill-rule="nonzero"/></g><g clip-path="url(#db28fb432a)"><path fill="#a16931" d="M 24.5625 5.441406 C 24.25 5.441406 23.945312 5.476562 23.640625 5.550781 C 23.335938 5.625 23.046875 5.730469 22.769531 5.875 C 22.492188 6.015625 22.234375 6.1875 22 6.390625 C 21.761719 6.59375 21.554688 6.824219 21.371094 7.078125 C 21.191406 7.332031 21.042969 7.601562 20.925781 7.890625 C 20.808594 8.179688 20.726562 8.476562 20.679688 8.785156 C 20.632812 9.09375 20.625 9.402344 20.652344 9.714844 C 20.679688 10.023438 20.746094 10.328125 20.84375 10.625 C 20.945312 10.917969 21.078125 11.199219 21.246094 11.460938 C 21.414062 11.722656 21.609375 11.964844 21.832031 12.179688 C 22.054688 12.398438 22.304688 12.585938 22.570312 12.742188 C 22.839844 12.902344 23.125 13.023438 23.421875 13.117188 C 23.722656 13.207031 24.027344 13.261719 24.335938 13.277344 C 24.648438 13.296875 24.957031 13.277344 25.261719 13.21875 C 25.570312 13.164062 25.867188 13.074219 26.152344 12.945312 C 26.4375 12.820312 26.703125 12.660156 26.949219 12.472656 C 26.953125 12.464844 26.960938 12.460938 26.964844 12.457031 C 27.074219 12.375 27.175781 12.285156 27.277344 12.191406 C 27.382812 12.089844 27.484375 11.984375 27.578125 11.871094 C 28.0625 11.285156 28.351562 10.617188 28.445312 9.863281 C 28.542969 9.109375 28.429688 8.390625 28.105469 7.703125 C 27.785156 7.015625 27.304688 6.464844 26.664062 6.058594 C 26.023438 5.648438 25.320312 5.445312 24.5625 5.441406 Z M 24.5625 5.882812 C 25.207031 5.886719 25.804688 6.054688 26.355469 6.386719 C 26.90625 6.71875 27.332031 7.171875 27.632812 7.738281 C 27.933594 8.308594 28.066406 8.914062 28.03125 9.554688 C 27.996094 10.199219 27.796875 10.785156 27.4375 11.320312 C 26.984375 10.566406 26.335938 10.066406 25.488281 9.824219 C 25.664062 9.695312 25.808594 9.53125 25.914062 9.339844 C 26.023438 9.152344 26.085938 8.945312 26.109375 8.726562 C 26.128906 8.511719 26.105469 8.296875 26.035156 8.089844 C 25.96875 7.878906 25.859375 7.695312 25.710938 7.53125 C 25.566406 7.371094 25.390625 7.246094 25.191406 7.15625 C 24.992188 7.066406 24.78125 7.023438 24.5625 7.023438 C 24.34375 7.023438 24.132812 7.066406 23.933594 7.15625 C 23.730469 7.242188 23.558594 7.367188 23.410156 7.53125 C 23.261719 7.691406 23.152344 7.878906 23.085938 8.085938 C 23.015625 8.292969 22.992188 8.507812 23.011719 8.726562 C 23.03125 8.941406 23.097656 9.148438 23.203125 9.339844 C 23.3125 9.53125 23.453125 9.691406 23.628906 9.824219 C 22.78125 10.0625 22.132812 10.5625 21.679688 11.320312 C 21.316406 10.785156 21.117188 10.195312 21.082031 9.554688 C 21.050781 8.910156 21.183594 8.304688 21.484375 7.734375 C 21.785156 7.164062 22.214844 6.714844 22.765625 6.382812 C 23.320312 6.050781 23.917969 5.882812 24.5625 5.882812 Z M 27.050781 11.785156 C 27.011719 11.828125 26.96875 11.871094 26.925781 11.910156 C 26.875 11.953125 26.824219 11.996094 26.773438 12.039062 C 26.726562 12.078125 26.683594 12.113281 26.636719 12.148438 C 26.582031 12.1875 26.527344 12.226562 26.46875 12.261719 C 26.421875 12.292969 26.378906 12.324219 26.328125 12.355469 C 26.269531 12.390625 26.207031 12.421875 26.148438 12.453125 C 26.097656 12.476562 26.050781 12.503906 26.003906 12.527344 C 25.9375 12.554688 25.871094 12.578125 25.804688 12.605469 C 25.757812 12.625 25.707031 12.644531 25.660156 12.660156 C 25.589844 12.683594 25.515625 12.703125 25.445312 12.722656 C 25.398438 12.734375 25.351562 12.75 25.304688 12.761719 C 25.222656 12.777344 25.140625 12.789062 25.058594 12.800781 C 25.019531 12.808594 24.976562 12.816406 24.9375 12.820312 C 24.8125 12.835938 24.6875 12.839844 24.5625 12.839844 C 24.4375 12.839844 24.3125 12.835938 24.1875 12.820312 C 24.144531 12.816406 24.101562 12.808594 24.058594 12.800781 C 23.980469 12.789062 23.898438 12.777344 23.820312 12.761719 C 23.769531 12.75 23.71875 12.734375 23.667969 12.71875 C 23.597656 12.703125 23.53125 12.683594 23.460938 12.660156 C 23.410156 12.644531 23.355469 12.621094 23.304688 12.601562 C 23.242188 12.578125 23.179688 12.554688 23.117188 12.527344 C 23.066406 12.503906 23.011719 12.472656 22.960938 12.445312 C 22.902344 12.417969 22.847656 12.390625 22.789062 12.355469 C 22.738281 12.324219 22.6875 12.292969 22.636719 12.257812 C 22.585938 12.222656 22.53125 12.1875 22.480469 12.152344 C 22.433594 12.113281 22.382812 12.074219 22.335938 12.035156 C 22.289062 11.996094 22.238281 11.957031 22.191406 11.914062 C 22.148438 11.871094 22.105469 11.828125 22.0625 11.785156 C 22.03125 11.753906 22.003906 11.722656 21.972656 11.691406 C 22.226562 11.210938 22.582031 10.832031 23.046875 10.554688 C 23.511719 10.273438 24.011719 10.132812 24.554688 10.136719 L 24.566406 10.136719 C 25.105469 10.136719 25.609375 10.277344 26.070312 10.554688 C 26.53125 10.835938 26.890625 11.214844 27.140625 11.691406 C 27.113281 11.722656 27.082031 11.753906 27.050781 11.785156 Z M 23.449219 8.582031 C 23.445312 8.433594 23.476562 8.292969 23.53125 8.15625 C 23.589844 8.019531 23.667969 7.898438 23.773438 7.792969 C 23.875 7.691406 23.996094 7.609375 24.132812 7.550781 C 24.269531 7.496094 24.410156 7.46875 24.558594 7.46875 C 24.707031 7.46875 24.847656 7.496094 24.984375 7.550781 C 25.121094 7.605469 25.242188 7.6875 25.34375 7.792969 C 25.449219 7.894531 25.53125 8.015625 25.585938 8.152344 C 25.644531 8.289062 25.671875 8.429688 25.671875 8.578125 C 25.671875 8.722656 25.644531 8.867188 25.589844 9.003906 C 25.535156 9.140625 25.453125 9.257812 25.347656 9.363281 C 25.246094 9.46875 25.125 9.550781 24.988281 9.605469 C 24.855469 9.664062 24.710938 9.691406 24.566406 9.691406 L 24.558594 9.691406 C 24.410156 9.691406 24.269531 9.664062 24.132812 9.605469 C 23.996094 9.550781 23.875 9.46875 23.773438 9.367188 C 23.667969 9.261719 23.589844 9.140625 23.53125 9.003906 C 23.476562 8.871094 23.449219 8.726562 23.449219 8.582031 Z M 23.449219 8.582031 " fill-opacity="1" fill-rule="nonzero"/></g><g clip-path="url(#699beb4f7d)"><path fill="#a16931" d="M 9.335938 9.367188 C 9.335938 9.0625 9.300781 8.761719 9.230469 8.464844 C 9.160156 8.167969 9.054688 7.886719 8.917969 7.613281 C 8.78125 7.339844 8.613281 7.089844 8.417969 6.855469 C 8.222656 6.621094 8 6.414062 7.753906 6.234375 C 7.511719 6.050781 7.25 5.898438 6.96875 5.78125 C 6.6875 5.660156 6.398438 5.574219 6.097656 5.523438 C 5.796875 5.46875 5.496094 5.453125 5.191406 5.472656 C 4.886719 5.488281 4.585938 5.542969 4.296875 5.632812 C 4.003906 5.71875 3.726562 5.839844 3.460938 5.992188 C 3.199219 6.144531 2.957031 6.328125 2.734375 6.539062 C 2.515625 6.746094 2.320312 6.980469 2.152344 7.234375 C 1.988281 7.492188 1.851562 7.761719 1.75 8.046875 C 1.644531 8.335938 1.578125 8.628906 1.542969 8.933594 C 1.507812 9.234375 1.507812 9.539062 1.546875 9.839844 C 1.582031 10.144531 1.652344 10.4375 1.757812 10.722656 C 1.863281 11.011719 2 11.28125 2.167969 11.535156 C 2.335938 11.789062 2.53125 12.019531 2.753906 12.226562 C 2.976562 12.4375 3.222656 12.617188 3.484375 12.769531 C 3.75 12.917969 4.027344 13.039062 4.320312 13.125 C 4.613281 13.210938 4.914062 13.261719 5.214844 13.277344 C 5.519531 13.292969 5.824219 13.277344 6.125 13.222656 C 6.421875 13.167969 6.714844 13.078125 6.992188 12.957031 C 7.273438 12.835938 7.535156 12.683594 7.777344 12.5 C 8.019531 12.316406 8.238281 12.105469 8.433594 11.871094 L 8.4375 11.871094 C 9.035156 11.144531 9.335938 10.308594 9.335938 9.367188 Z M 5.410156 5.882812 C 6.054688 5.882812 6.652344 6.050781 7.207031 6.382812 C 7.757812 6.714844 8.1875 7.164062 8.488281 7.734375 C 8.789062 8.304688 8.925781 8.910156 8.890625 9.554688 C 8.855469 10.199219 8.65625 10.785156 8.292969 11.320312 C 7.84375 10.5625 7.191406 10.0625 6.34375 9.824219 C 6.519531 9.691406 6.660156 9.53125 6.769531 9.339844 C 6.875 9.148438 6.941406 8.941406 6.960938 8.726562 C 6.980469 8.507812 6.957031 8.292969 6.886719 8.085938 C 6.820312 7.878906 6.710938 7.691406 6.5625 7.53125 C 6.414062 7.367188 6.242188 7.242188 6.042969 7.15625 C 5.839844 7.066406 5.632812 7.023438 5.410156 7.023438 C 5.191406 7.023438 4.984375 7.066406 4.78125 7.15625 C 4.582031 7.246094 4.410156 7.371094 4.261719 7.535156 C 4.113281 7.695312 4.007812 7.882812 3.9375 8.089844 C 3.867188 8.296875 3.84375 8.511719 3.867188 8.726562 C 3.886719 8.945312 3.953125 9.152344 4.058594 9.339844 C 4.167969 9.53125 4.308594 9.695312 4.484375 9.824219 C 3.640625 10.066406 2.988281 10.566406 2.535156 11.320312 C 2.175781 10.785156 1.976562 10.199219 1.941406 9.554688 C 1.90625 8.914062 2.039062 8.308594 2.339844 7.738281 C 2.644531 7.171875 3.070312 6.71875 3.621094 6.386719 C 4.171875 6.054688 4.765625 5.886719 5.410156 5.882812 Z M 7.910156 11.785156 C 7.867188 11.828125 7.828125 11.871094 7.785156 11.910156 C 7.734375 11.957031 7.683594 11.996094 7.632812 12.039062 C 7.585938 12.078125 7.542969 12.113281 7.496094 12.148438 C 7.441406 12.1875 7.386719 12.226562 7.328125 12.261719 C 7.28125 12.292969 7.234375 12.324219 7.183594 12.355469 C 7.125 12.390625 7.066406 12.417969 7.003906 12.449219 C 6.957031 12.476562 6.90625 12.503906 6.855469 12.527344 C 6.792969 12.554688 6.726562 12.578125 6.664062 12.605469 C 6.613281 12.625 6.5625 12.644531 6.511719 12.660156 C 6.441406 12.683594 6.371094 12.703125 6.300781 12.722656 C 6.25 12.734375 6.203125 12.75 6.15625 12.761719 C 6.074219 12.777344 5.992188 12.789062 5.910156 12.800781 C 5.871094 12.808594 5.828125 12.816406 5.785156 12.820312 C 5.660156 12.835938 5.535156 12.839844 5.410156 12.839844 C 5.285156 12.839844 5.160156 12.835938 5.035156 12.820312 C 4.996094 12.816406 4.957031 12.808594 4.914062 12.800781 C 4.832031 12.789062 4.75 12.777344 4.671875 12.761719 C 4.621094 12.75 4.574219 12.734375 4.527344 12.722656 C 4.457031 12.703125 4.382812 12.683594 4.316406 12.660156 C 4.265625 12.644531 4.214844 12.625 4.167969 12.605469 C 4.101562 12.578125 4.035156 12.554688 3.972656 12.527344 C 3.921875 12.503906 3.875 12.476562 3.824219 12.449219 C 3.765625 12.421875 3.703125 12.390625 3.644531 12.355469 C 3.597656 12.324219 3.550781 12.292969 3.503906 12.261719 C 3.445312 12.226562 3.390625 12.1875 3.335938 12.148438 C 3.289062 12.113281 3.246094 12.078125 3.199219 12.039062 C 3.148438 11.996094 3.097656 11.953125 3.046875 11.910156 C 3.003906 11.871094 2.964844 11.828125 2.921875 11.789062 C 2.894531 11.753906 2.863281 11.722656 2.832031 11.691406 C 3.085938 11.210938 3.441406 10.835938 3.902344 10.554688 C 4.367188 10.277344 4.867188 10.136719 5.40625 10.136719 L 5.417969 10.136719 C 5.960938 10.132812 6.460938 10.273438 6.925781 10.554688 C 7.390625 10.832031 7.746094 11.210938 8 11.691406 C 7.96875 11.722656 7.941406 11.753906 7.910156 11.785156 Z M 4.300781 8.582031 C 4.300781 8.433594 4.328125 8.292969 4.386719 8.15625 C 4.441406 8.019531 4.523438 7.898438 4.625 7.792969 C 4.730469 7.691406 4.851562 7.609375 4.988281 7.550781 C 5.121094 7.496094 5.265625 7.46875 5.414062 7.46875 C 5.558594 7.46875 5.703125 7.496094 5.835938 7.550781 C 5.972656 7.609375 6.09375 7.6875 6.199219 7.792969 C 6.304688 7.894531 6.382812 8.015625 6.441406 8.152344 C 6.496094 8.289062 6.527344 8.429688 6.527344 8.578125 C 6.527344 8.726562 6.5 8.867188 6.441406 9.003906 C 6.386719 9.140625 6.304688 9.261719 6.203125 9.363281 C 6.097656 9.46875 5.976562 9.550781 5.84375 9.605469 C 5.707031 9.664062 5.5625 9.691406 5.417969 9.691406 L 5.410156 9.691406 C 5.261719 9.691406 5.121094 9.664062 4.984375 9.605469 C 4.847656 9.550781 4.730469 9.46875 4.625 9.363281 C 4.523438 9.261719 4.441406 9.140625 4.386719 9.003906 C 4.328125 8.867188 4.300781 8.726562 4.300781 8.582031 Z M 4.300781 8.582031 " fill-opacity="1" fill-rule="nonzero"/></g><path fill="#a16931" d="M 14.9375 17.886719 C 15.046875 17.914062 15.132812 17.875 15.183594 17.773438 L 16.332031 15.597656 C 16.371094 15.523438 16.367188 15.449219 16.324219 15.378906 C 16.28125 15.308594 16.21875 15.273438 16.136719 15.273438 L 15.210938 15.273438 L 15.214844 13.726562 C 15.214844 13.613281 15.15625 13.539062 15.042969 13.511719 C 14.929688 13.484375 14.847656 13.523438 14.796875 13.628906 L 13.660156 15.875 C 13.621094 15.949219 13.625 16.023438 13.667969 16.09375 C 13.710938 16.164062 13.773438 16.199219 13.855469 16.199219 L 14.769531 16.199219 L 14.769531 17.671875 C 14.769531 17.785156 14.824219 17.859375 14.9375 17.886719 Z M 14.214844 15.753906 L 14.769531 14.660156 L 14.769531 15.492188 C 14.769531 15.640625 14.84375 15.714844 14.988281 15.714844 L 15.769531 15.714844 L 15.210938 16.777344 L 15.210938 15.976562 C 15.210938 15.828125 15.136719 15.753906 14.988281 15.753906 Z M 14.214844 15.753906 " fill-opacity="1" fill-rule="nonzero"/><path fill="#a16931" d="M 21.234375 14.484375 L 20.398438 14.09375 L 21.050781 12.695312 C 21.101562 12.589844 21.082031 12.5 20.988281 12.429688 C 20.898438 12.355469 20.804688 12.355469 20.714844 12.425781 L 18.734375 13.984375 C 18.667969 14.035156 18.640625 14.101562 18.652344 14.183594 C 18.660156 14.265625 18.703125 14.324219 18.777344 14.359375 L 19.605469 14.746094 L 18.980469 16.082031 C 18.933594 16.183594 18.953125 16.273438 19.042969 16.347656 C 19.132812 16.417969 19.222656 16.417969 19.316406 16.351562 L 21.273438 14.859375 C 21.339844 14.8125 21.371094 14.746094 21.359375 14.660156 C 21.351562 14.578125 21.308594 14.519531 21.234375 14.484375 Z M 19.761719 15.457031 L 20.097656 14.730469 C 20.160156 14.597656 20.125 14.5 19.992188 14.4375 L 19.289062 14.109375 L 20.257812 13.351562 L 19.902344 14.105469 C 19.839844 14.242188 19.875 14.339844 20.007812 14.402344 L 20.714844 14.730469 Z M 19.761719 15.457031 " fill-opacity="1" fill-rule="nonzero"/><path fill="#a16931" d="M 10.792969 16.394531 C 10.871094 16.394531 10.933594 16.359375 10.976562 16.292969 C 11.019531 16.222656 11.027344 16.152344 10.992188 16.082031 L 10.367188 14.746094 L 11.195312 14.359375 C 11.269531 14.324219 11.3125 14.265625 11.320312 14.183594 C 11.332031 14.101562 11.304688 14.035156 11.238281 13.984375 L 9.257812 12.425781 C 9.167969 12.355469 9.074219 12.355469 8.984375 12.429688 C 8.894531 12.5 8.871094 12.589844 8.921875 12.695312 L 9.578125 14.09375 L 8.738281 14.484375 C 8.664062 14.519531 8.621094 14.578125 8.613281 14.660156 C 8.601562 14.746094 8.632812 14.8125 8.699219 14.859375 L 10.65625 16.351562 C 10.695312 16.378906 10.742188 16.394531 10.792969 16.394531 Z M 9.257812 14.730469 L 9.964844 14.402344 C 10.097656 14.339844 10.132812 14.242188 10.070312 14.105469 L 9.71875 13.351562 L 10.683594 14.109375 L 9.980469 14.4375 C 9.847656 14.5 9.8125 14.597656 9.875 14.730469 L 10.210938 15.457031 Z M 9.257812 14.730469 " fill-opacity="1" fill-rule="nonzero"/></svg>