<svg xmlns="http://www.w3.org/2000/svg" xmlns:xlink="http://www.w3.org/1999/xlink" width="52" zoomAndPan="magnify" viewBox="0 0 39 38.999999" height="52" preserveAspectRatio="xMidYMid meet" version="1.0"><defs><clipPath id="bcc830d0f8"><path d="M 2.261719 2.261719 L 36.761719 2.261719 L 36.761719 36.761719 L 2.261719 36.761719 Z M 2.261719 2.261719 " clip-rule="nonzero"/></clipPath></defs><g clip-path="url(#bcc830d0f8)"><path fill="#ffffff" d="M 5.28125 23.015625 C 5.984375 23.015625 6.5625 22.492188 6.652344 21.820312 L 8.8125 21.425781 C 9.046875 21.855469 9.503906 22.148438 10.027344 22.148438 C 10.792969 22.148438 11.410156 21.527344 11.410156 20.765625 C 11.410156 20.535156 11.355469 20.316406 11.253906 20.125 L 14.117188 17.394531 C 14.3125 17.503906 14.535156 17.5625 14.773438 17.5625 C 14.929688 17.5625 15.082031 17.535156 15.226562 17.484375 L 18.398438 21.660156 C 18.230469 21.886719 18.132812 22.167969 18.132812 22.472656 C 18.132812 23.238281 18.753906 23.855469 19.515625 23.855469 C 20.28125 23.855469 20.898438 23.238281 20.898438 22.472656 C 20.898438 22.316406 20.875 22.167969 20.824219 22.027344 L 23.464844 20.050781 C 23.691406 20.210938 23.964844 20.304688 24.261719 20.304688 C 25.023438 20.304688 25.644531 19.683594 25.644531 18.917969 C 25.644531 18.15625 25.023438 17.535156 24.261719 17.535156 C 23.496094 17.535156 22.875 18.15625 22.875 18.917969 C 22.875 19.074219 22.902344 19.222656 22.949219 19.363281 L 22.71875 19.535156 L 22.246094 16.027344 C 25.328125 15.304688 27.628906 12.53125 27.628906 9.234375 C 27.628906 5.386719 24.5 2.257812 20.65625 2.257812 C 16.808594 2.257812 13.679688 5.386719 13.679688 9.234375 C 13.679688 12.53125 15.984375 15.304688 19.0625 16.027344 L 18.480469 20.351562 L 15.910156 16.964844 C 16.0625 16.742188 16.15625 16.46875 16.15625 16.179688 C 16.15625 15.414062 15.535156 14.792969 14.769531 14.792969 C 14.007812 14.792969 13.386719 15.414062 13.386719 16.179688 C 13.386719 16.390625 13.4375 16.59375 13.523438 16.773438 L 10.636719 19.527344 C 10.453125 19.433594 10.246094 19.382812 10.027344 19.382812 C 9.328125 19.382812 8.746094 19.90625 8.65625 20.582031 L 6.5 20.976562 C 6.265625 20.542969 5.804688 20.25 5.28125 20.25 C 4.519531 20.25 3.898438 20.871094 3.898438 21.632812 C 3.898438 22.394531 4.519531 23.015625 5.28125 23.015625 Z M 19.515625 23 C 19.226562 23 18.988281 22.761719 18.988281 22.472656 C 18.988281 22.183594 19.226562 21.949219 19.515625 21.949219 C 19.804688 21.949219 20.042969 22.183594 20.042969 22.472656 C 20.042969 22.761719 19.804688 23 19.515625 23 Z M 24.257812 18.394531 C 24.550781 18.394531 24.785156 18.628906 24.785156 18.917969 C 24.785156 19.210938 24.550781 19.445312 24.257812 19.445312 C 23.96875 19.445312 23.734375 19.210938 23.734375 18.917969 C 23.734375 18.628906 23.96875 18.394531 24.257812 18.394531 Z M 20.308594 21.339844 C 20.085938 21.183594 19.8125 21.089844 19.515625 21.089844 C 19.421875 21.089844 19.332031 21.097656 19.246094 21.117188 L 19.476562 19.402344 L 21.835938 19.402344 L 21.933594 20.125 Z M 19.667969 17.976562 L 21.644531 17.976562 L 21.71875 18.546875 L 19.589844 18.546875 Z M 14.539062 9.234375 C 14.539062 5.863281 17.28125 3.117188 20.65625 3.117188 C 24.027344 3.117188 26.773438 5.863281 26.773438 9.234375 C 26.773438 12.605469 24.027344 15.351562 20.65625 15.351562 C 17.28125 15.351562 14.539062 12.605469 14.539062 9.234375 Z M 20.65625 16.210938 C 20.90625 16.210938 21.15625 16.195312 21.398438 16.167969 L 21.527344 17.117188 L 19.785156 17.117188 L 19.910156 16.167969 C 20.15625 16.195312 20.402344 16.210938 20.65625 16.210938 Z M 14.769531 15.652344 C 15.0625 15.652344 15.296875 15.886719 15.296875 16.179688 C 15.296875 16.46875 15.0625 16.703125 14.769531 16.703125 C 14.480469 16.703125 14.246094 16.46875 14.246094 16.179688 C 14.246094 15.886719 14.480469 15.652344 14.769531 15.652344 Z M 10.027344 20.238281 C 10.316406 20.238281 10.550781 20.476562 10.550781 20.765625 C 10.550781 21.054688 10.316406 21.292969 10.027344 21.292969 C 9.738281 21.292969 9.5 21.054688 9.5 20.765625 C 9.5 20.476562 9.738281 20.238281 10.027344 20.238281 Z M 5.28125 21.105469 C 5.574219 21.105469 5.808594 21.34375 5.808594 21.632812 C 5.808594 21.921875 5.574219 22.160156 5.28125 22.160156 C 4.992188 22.160156 4.757812 21.921875 4.757812 21.632812 C 4.757812 21.34375 4.992188 21.105469 5.28125 21.105469 Z M 36.386719 23.441406 L 35.597656 23.289062 C 35.484375 22.894531 35.324219 22.511719 35.125 22.148438 L 35.578125 21.484375 C 35.691406 21.3125 35.671875 21.085938 35.527344 20.941406 L 34.101562 19.515625 C 33.957031 19.371094 33.726562 19.347656 33.558594 19.464844 L 32.894531 19.914062 C 32.53125 19.714844 32.148438 19.558594 31.75 19.441406 L 31.597656 18.652344 C 31.5625 18.449219 31.382812 18.304688 31.179688 18.304688 L 29.164062 18.304688 C 28.957031 18.304688 28.78125 18.449219 28.742188 18.652344 L 28.589844 19.441406 C 28.195312 19.558594 27.8125 19.714844 27.449219 19.914062 L 26.785156 19.464844 C 26.613281 19.347656 26.386719 19.371094 26.242188 19.515625 L 24.816406 20.941406 C 24.671875 21.085938 24.648438 21.3125 24.765625 21.484375 L 25.214844 22.148438 C 25.015625 22.511719 24.859375 22.894531 24.742188 23.289062 L 23.953125 23.441406 C 23.75 23.480469 23.605469 23.65625 23.605469 23.863281 L 23.605469 24.433594 L 22.898438 24.433594 C 22.660156 24.433594 22.46875 24.625 22.46875 24.863281 L 22.46875 35.878906 L 21.308594 35.878906 L 21.308594 28.710938 C 21.308594 28.476562 21.117188 28.285156 20.882812 28.285156 L 18.152344 28.285156 C 17.914062 28.285156 17.722656 28.476562 17.722656 28.710938 L 17.722656 35.878906 L 16.566406 35.878906 L 16.566406 21.507812 C 16.566406 21.269531 16.375 21.078125 16.136719 21.078125 L 13.40625 21.078125 C 13.171875 21.078125 12.980469 21.269531 12.980469 21.507812 L 12.980469 35.878906 L 11.820312 35.878906 L 11.820312 25.234375 C 11.820312 25 11.628906 24.808594 11.390625 24.808594 L 8.664062 24.808594 C 8.425781 24.808594 8.234375 25 8.234375 25.234375 L 8.234375 35.878906 L 7.074219 35.878906 L 7.074219 28.710938 C 7.074219 28.476562 6.882812 28.285156 6.648438 28.285156 L 3.917969 28.285156 C 3.679688 28.285156 3.488281 28.476562 3.488281 28.710938 L 3.488281 35.878906 L 2.6875 35.878906 C 2.453125 35.878906 2.261719 36.070312 2.261719 36.308594 C 2.261719 36.542969 2.453125 36.738281 2.6875 36.738281 L 26.851562 36.738281 C 27.089844 36.738281 27.28125 36.542969 27.28125 36.308594 C 27.28125 36.070312 27.089844 35.878906 26.851562 35.878906 L 26.054688 35.878906 L 26.054688 30.039062 L 26.238281 30.226562 C 26.386719 30.371094 26.613281 30.394531 26.785156 30.277344 L 27.449219 29.824219 C 27.8125 30.023438 28.191406 30.183594 28.589844 30.300781 L 28.742188 31.089844 C 28.78125 31.289062 28.957031 31.4375 29.164062 31.4375 L 31.175781 31.4375 C 31.382812 31.4375 31.558594 31.289062 31.597656 31.089844 L 31.75 30.300781 C 32.144531 30.183594 32.527344 30.023438 32.890625 29.824219 L 33.554688 30.277344 C 33.726562 30.394531 33.953125 30.371094 34.101562 30.226562 L 35.523438 28.800781 C 35.671875 28.65625 35.691406 28.425781 35.574219 28.257812 L 35.125 27.59375 C 35.324219 27.230469 35.484375 26.847656 35.597656 26.449219 L 36.386719 26.300781 C 36.589844 26.261719 36.734375 26.082031 36.734375 25.878906 L 36.734375 23.863281 C 36.738281 23.65625 36.589844 23.480469 36.386719 23.441406 Z M 18.578125 29.140625 L 20.449219 29.140625 L 20.449219 35.878906 L 18.578125 35.878906 Z M 13.835938 21.9375 L 15.707031 21.9375 L 15.707031 35.878906 L 13.835938 35.878906 Z M 9.089844 25.664062 L 10.960938 25.664062 L 10.960938 35.878906 L 9.089844 35.878906 Z M 4.347656 29.140625 L 6.21875 29.140625 L 6.21875 35.878906 L 4.347656 35.878906 Z M 25.195312 35.878906 L 23.324219 35.878906 L 23.324219 25.292969 L 23.605469 25.292969 L 23.605469 25.878906 C 23.605469 26.082031 23.75 26.261719 23.953125 26.300781 L 24.742188 26.449219 C 24.855469 26.847656 25.015625 27.230469 25.214844 27.59375 L 24.761719 28.257812 C 24.648438 28.425781 24.667969 28.65625 24.816406 28.800781 L 25.195312 29.179688 Z M 35.878906 25.523438 L 35.171875 25.65625 C 35.007812 25.6875 34.875 25.816406 34.835938 25.980469 C 34.71875 26.476562 34.523438 26.949219 34.253906 27.382812 C 34.164062 27.527344 34.167969 27.710938 34.261719 27.851562 L 34.667969 28.445312 L 33.746094 29.367188 L 33.148438 28.964844 C 33.011719 28.867188 32.828125 28.863281 32.683594 28.953125 C 32.25 29.222656 31.777344 29.417969 31.28125 29.535156 C 31.113281 29.574219 30.988281 29.707031 30.957031 29.871094 L 30.820312 30.578125 L 29.519531 30.578125 L 29.382812 29.871094 C 29.351562 29.707031 29.226562 29.574219 29.058594 29.535156 C 28.5625 29.417969 28.089844 29.222656 27.65625 28.953125 C 27.511719 28.863281 27.328125 28.867188 27.191406 28.964844 L 26.59375 29.367188 L 25.671875 28.445312 L 26.078125 27.851562 C 26.171875 27.710938 26.175781 27.527344 26.085938 27.382812 C 25.820312 26.949219 25.621094 26.476562 25.503906 25.980469 C 25.464844 25.816406 25.332031 25.6875 25.167969 25.65625 L 24.460938 25.523438 L 24.460938 24.21875 L 25.167969 24.085938 C 25.332031 24.054688 25.464844 23.925781 25.503906 23.761719 C 25.621094 23.265625 25.816406 22.792969 26.085938 22.359375 C 26.175781 22.214844 26.171875 22.03125 26.078125 21.890625 L 25.671875 21.296875 L 26.59375 20.375 L 27.191406 20.78125 C 27.328125 20.875 27.511719 20.878906 27.65625 20.789062 C 28.089844 20.519531 28.5625 20.324219 29.058594 20.207031 C 29.226562 20.167969 29.351562 20.035156 29.382812 19.871094 L 29.519531 19.164062 L 30.820312 19.164062 L 30.957031 19.871094 C 30.988281 20.035156 31.113281 20.167969 31.28125 20.207031 C 31.777344 20.324219 32.25 20.519531 32.683594 20.789062 C 32.828125 20.878906 33.011719 20.875 33.148438 20.78125 L 33.746094 20.375 L 34.667969 21.296875 L 34.261719 21.890625 C 34.167969 22.03125 34.164062 22.214844 34.253906 22.359375 C 34.519531 22.792969 34.714844 23.265625 34.835938 23.761719 C 34.875 23.925781 35.003906 24.054688 35.171875 24.085938 L 35.878906 24.21875 Z M 30.171875 21.171875 C 28.128906 21.171875 26.472656 22.832031 26.472656 24.871094 C 26.472656 26.910156 28.128906 28.570312 30.171875 28.570312 C 32.210938 28.570312 33.871094 26.910156 33.871094 24.871094 C 33.871094 22.832031 32.210938 21.171875 30.171875 21.171875 Z M 30.171875 27.710938 C 28.605469 27.710938 27.328125 26.4375 27.328125 24.871094 C 27.328125 23.304688 28.605469 22.027344 30.171875 22.027344 C 31.738281 22.027344 33.011719 23.304688 33.011719 24.871094 C 33.011719 26.4375 31.738281 27.710938 30.171875 27.710938 Z M 26.046875 9.234375 C 26.046875 6.261719 23.628906 3.84375 20.65625 3.84375 C 17.679688 3.84375 15.261719 6.261719 15.261719 9.234375 C 15.261719 12.207031 17.679688 14.625 20.65625 14.625 C 23.628906 14.625 26.046875 12.207031 26.046875 9.234375 Z M 16.855469 11.703125 L 18.34375 10.21875 L 19.492188 11.367188 C 19.574219 11.445312 19.683594 11.492188 19.796875 11.492188 C 19.910156 11.492188 20.019531 11.445312 20.101562 11.367188 L 23.011719 8.453125 L 23.011719 9.113281 C 23.011719 9.351562 23.203125 9.542969 23.441406 9.542969 C 23.675781 9.542969 23.871094 9.351562 23.871094 9.113281 L 23.871094 7.417969 C 23.871094 7.183594 23.675781 6.988281 23.441406 6.988281 L 21.746094 6.988281 C 21.507812 6.988281 21.316406 7.183594 21.316406 7.417969 C 21.316406 7.65625 21.507812 7.847656 21.746094 7.847656 L 22.40625 7.847656 L 19.796875 10.457031 L 18.648438 9.308594 C 18.480469 9.140625 18.207031 9.140625 18.039062 9.308594 L 16.441406 10.90625 C 16.234375 10.386719 16.121094 9.824219 16.121094 9.234375 C 16.121094 6.734375 18.152344 4.703125 20.652344 4.703125 C 23.152344 4.703125 25.1875 6.734375 25.1875 9.234375 C 25.1875 11.734375 23.152344 13.769531 20.652344 13.769531 C 19.066406 13.769531 17.667969 12.945312 16.855469 11.703125 Z M 16.855469 11.703125 " fill-opacity="1" fill-rule="nonzero"/></g></svg>
