<svg xmlns="http://www.w3.org/2000/svg" xmlns:xlink="http://www.w3.org/1999/xlink" width="52" zoomAndPan="magnify" viewBox="0 0 39 38.999999" height="52" preserveAspectRatio="xMidYMid meet" version="1.0"><defs><clipPath id="0c66e1d4d3"><path d="M 27 13 L 35.398438 13 L 35.398438 17 L 27 17 Z M 27 13 " clip-rule="nonzero"/></clipPath><clipPath id="c26b52421f"><path d="M 27 22 L 35.398438 22 L 35.398438 26 L 27 26 Z M 27 22 " clip-rule="nonzero"/></clipPath><clipPath id="6719d658a7"><path d="M 3.898438 13 L 12 13 L 12 17 L 3.898438 17 Z M 3.898438 13 " clip-rule="nonzero"/></clipPath><clipPath id="4a55034bf4"><path d="M 3.898438 22 L 12 22 L 12 26 L 3.898438 26 Z M 3.898438 22 " clip-rule="nonzero"/></clipPath><clipPath id="cd7c9f2af8"><path d="M 22 27 L 26 27 L 26 35.398438 L 22 35.398438 Z M 22 27 " clip-rule="nonzero"/></clipPath><clipPath id="d062181c78"><path d="M 13 27 L 17 27 L 17 35.398438 L 13 35.398438 Z M 13 27 " clip-rule="nonzero"/></clipPath><clipPath id="73ede966d4"><path d="M 22 3.898438 L 26 3.898438 L 26 12 L 22 12 Z M 22 3.898438 " clip-rule="nonzero"/></clipPath><clipPath id="edb37ebf00"><path d="M 13 3.898438 L 17 3.898438 L 17 12 L 13 12 Z M 13 3.898438 " clip-rule="nonzero"/></clipPath></defs><path fill="#ffffff" d="M 27.230469 28.1875 L 11.75 28.1875 C 11.226562 28.1875 10.800781 27.761719 10.800781 27.238281 L 10.800781 11.757812 C 10.800781 11.234375 11.226562 10.808594 11.75 10.808594 L 27.230469 10.808594 C 27.753906 10.808594 28.179688 11.234375 28.179688 11.757812 L 28.179688 27.238281 C 28.179688 27.761719 27.753906 28.1875 27.230469 28.1875 Z M 11.75 11.539062 C 11.628906 11.539062 11.53125 11.636719 11.53125 11.757812 L 11.53125 27.238281 C 11.53125 27.359375 11.628906 27.457031 11.75 27.457031 L 27.230469 27.457031 C 27.351562 27.457031 27.449219 27.359375 27.449219 27.238281 L 27.449219 11.757812 C 27.449219 11.636719 27.351562 11.539062 27.230469 11.539062 Z M 11.75 11.539062 " fill-opacity="1" fill-rule="nonzero"/><path fill="#ffffff" d="M 26.324219 26.699219 L 12.65625 26.699219 C 12.453125 26.699219 12.289062 26.535156 12.289062 26.332031 L 12.289062 12.664062 C 12.289062 12.460938 12.453125 12.296875 12.65625 12.296875 L 26.324219 12.296875 C 26.527344 12.296875 26.691406 12.460938 26.691406 12.664062 L 26.691406 26.332031 C 26.691406 26.535156 26.527344 26.699219 26.324219 26.699219 Z M 13.019531 25.96875 L 25.960938 25.96875 L 25.960938 13.027344 L 13.019531 13.027344 Z M 13.019531 25.96875 " fill-opacity="1" fill-rule="nonzero"/><path fill="#ffffff" d="M 32.21875 19.863281 L 27.890625 19.863281 C 27.6875 19.863281 27.523438 19.699219 27.523438 19.496094 C 27.523438 19.296875 27.6875 19.132812 27.890625 19.132812 L 32.21875 19.132812 C 32.421875 19.132812 32.585938 19.296875 32.585938 19.496094 C 32.585938 19.699219 32.421875 19.863281 32.21875 19.863281 Z M 32.21875 19.863281 " fill-opacity="1" fill-rule="nonzero"/><path fill="#ffffff" d="M 11.167969 19.863281 L 6.835938 19.863281 C 6.632812 19.863281 6.46875 19.699219 6.46875 19.496094 C 6.46875 19.296875 6.632812 19.132812 6.835938 19.132812 L 11.167969 19.132812 C 11.367188 19.132812 11.53125 19.296875 11.53125 19.496094 C 11.53125 19.699219 11.367188 19.863281 11.167969 19.863281 Z M 11.167969 19.863281 " fill-opacity="1" fill-rule="nonzero"/><path fill="#ffffff" d="M 5.8125 20.8125 C 5.085938 20.8125 4.496094 20.222656 4.496094 19.496094 C 4.496094 18.773438 5.085938 18.183594 5.8125 18.183594 C 6.535156 18.183594 7.125 18.773438 7.125 19.496094 C 7.125 20.222656 6.535156 20.8125 5.8125 20.8125 Z M 5.8125 18.914062 C 5.488281 18.914062 5.226562 19.175781 5.226562 19.496094 C 5.226562 19.820312 5.488281 20.082031 5.8125 20.082031 C 6.132812 20.082031 6.394531 19.820312 6.394531 19.496094 C 6.394531 19.175781 6.132812 18.914062 5.8125 18.914062 Z M 5.8125 18.914062 " fill-opacity="1" fill-rule="nonzero"/><path fill="#ffffff" d="M 33.167969 20.84375 C 32.445312 20.84375 31.855469 20.253906 31.855469 19.527344 C 31.855469 18.804688 32.445312 18.214844 33.167969 18.214844 C 33.894531 18.214844 34.484375 18.804688 34.484375 19.527344 C 34.484375 20.253906 33.894531 20.84375 33.167969 20.84375 Z M 33.167969 18.945312 C 32.847656 18.945312 32.585938 19.207031 32.585938 19.527344 C 32.585938 19.851562 32.847656 20.109375 33.167969 20.109375 C 33.492188 20.109375 33.753906 19.851562 33.753906 19.527344 C 33.753906 19.207031 33.492188 18.945312 33.167969 18.945312 Z M 33.167969 18.945312 " fill-opacity="1" fill-rule="nonzero"/><path fill="#ffffff" d="M 19.503906 32.59375 C 19.304688 32.59375 19.140625 32.429688 19.140625 32.226562 L 19.140625 27.898438 C 19.140625 27.695312 19.304688 27.53125 19.503906 27.53125 C 19.707031 27.53125 19.871094 27.695312 19.871094 27.898438 L 19.871094 32.226562 C 19.871094 32.429688 19.707031 32.59375 19.503906 32.59375 Z M 19.503906 32.59375 " fill-opacity="1" fill-rule="nonzero"/><path fill="#ffffff" d="M 19.503906 11.539062 C 19.304688 11.539062 19.140625 11.375 19.140625 11.175781 L 19.140625 6.84375 C 19.140625 6.640625 19.304688 6.476562 19.503906 6.476562 C 19.707031 6.476562 19.871094 6.640625 19.871094 6.84375 L 19.871094 11.175781 C 19.871094 11.375 19.707031 11.539062 19.503906 11.539062 Z M 19.503906 11.539062 " fill-opacity="1" fill-rule="nonzero"/><path fill="#ffffff" d="M 19.503906 7.132812 C 18.78125 7.132812 18.191406 6.542969 18.191406 5.820312 C 18.191406 5.09375 18.78125 4.503906 19.503906 4.503906 C 20.230469 4.503906 20.820312 5.09375 20.820312 5.820312 C 20.820312 6.542969 20.230469 7.132812 19.503906 7.132812 Z M 19.503906 5.234375 C 19.183594 5.234375 18.921875 5.496094 18.921875 5.820312 C 18.921875 6.140625 19.183594 6.402344 19.503906 6.402344 C 19.828125 6.402344 20.089844 6.140625 20.089844 5.820312 C 20.089844 5.496094 19.828125 5.234375 19.503906 5.234375 Z M 19.503906 5.234375 " fill-opacity="1" fill-rule="nonzero"/><path fill="#ffffff" d="M 19.476562 34.492188 C 18.75 34.492188 18.160156 33.902344 18.160156 33.175781 C 18.160156 32.453125 18.75 31.863281 19.476562 31.863281 C 20.199219 31.863281 20.789062 32.453125 20.789062 33.175781 C 20.789062 33.902344 20.199219 34.492188 19.476562 34.492188 Z M 19.476562 32.59375 C 19.152344 32.59375 18.890625 32.855469 18.890625 33.175781 C 18.890625 33.5 19.152344 33.757812 19.476562 33.757812 C 19.796875 33.757812 20.058594 33.5 20.058594 33.175781 C 20.058594 32.855469 19.796875 32.59375 19.476562 32.59375 Z M 19.476562 32.59375 " fill-opacity="1" fill-rule="nonzero"/><g clip-path="url(#0c66e1d4d3)"><path fill="#ffffff" d="M 31.667969 16.6875 L 27.890625 16.6875 C 27.6875 16.6875 27.523438 16.527344 27.523438 16.324219 C 27.523438 16.121094 27.6875 15.957031 27.890625 15.957031 L 31.4375 15.957031 L 32.378906 13.949219 C 32.4375 13.820312 32.566406 13.738281 32.710938 13.738281 L 34.730469 13.738281 C 34.929688 13.738281 35.09375 13.902344 35.09375 14.101562 C 35.09375 14.304688 34.929688 14.46875 34.730469 14.46875 L 32.941406 14.46875 L 32 16.480469 C 31.941406 16.605469 31.8125 16.6875 31.667969 16.6875 Z M 31.667969 16.6875 " fill-opacity="1" fill-rule="nonzero"/></g><g clip-path="url(#c26b52421f)"><path fill="#ffffff" d="M 34.730469 25.257812 L 32.710938 25.257812 C 32.566406 25.257812 32.4375 25.175781 32.378906 25.046875 L 31.4375 23.035156 L 27.890625 23.035156 C 27.6875 23.035156 27.523438 22.875 27.523438 22.671875 C 27.523438 22.46875 27.6875 22.304688 27.890625 22.304688 L 31.667969 22.304688 C 31.8125 22.304688 31.941406 22.386719 32 22.515625 L 32.941406 24.527344 L 34.730469 24.527344 C 34.929688 24.527344 35.09375 24.691406 35.09375 24.890625 C 35.09375 25.09375 34.929688 25.257812 34.730469 25.257812 Z M 34.730469 25.257812 " fill-opacity="1" fill-rule="nonzero"/></g><g clip-path="url(#6719d658a7)"><path fill="#ffffff" d="M 11.105469 16.6875 L 7.324219 16.6875 C 7.183594 16.6875 7.054688 16.605469 6.996094 16.480469 L 6.054688 14.46875 L 4.265625 14.46875 C 4.0625 14.46875 3.898438 14.304688 3.898438 14.101562 C 3.898438 13.902344 4.0625 13.738281 4.265625 13.738281 L 6.285156 13.738281 C 6.425781 13.738281 6.554688 13.820312 6.617188 13.949219 L 7.558594 15.957031 L 11.105469 15.957031 C 11.308594 15.957031 11.46875 16.121094 11.46875 16.324219 C 11.46875 16.527344 11.308594 16.6875 11.105469 16.6875 Z M 11.105469 16.6875 " fill-opacity="1" fill-rule="nonzero"/></g><g clip-path="url(#4a55034bf4)"><path fill="#ffffff" d="M 6.285156 25.257812 L 4.265625 25.257812 C 4.0625 25.257812 3.898438 25.09375 3.898438 24.890625 C 3.898438 24.691406 4.0625 24.527344 4.265625 24.527344 L 6.054688 24.527344 L 6.996094 22.515625 C 7.054688 22.386719 7.183594 22.304688 7.324219 22.304688 L 11.105469 22.304688 C 11.308594 22.304688 11.46875 22.46875 11.46875 22.671875 C 11.46875 22.875 11.308594 23.035156 11.105469 23.035156 L 7.558594 23.035156 L 6.617188 25.046875 C 6.554688 25.175781 6.425781 25.257812 6.285156 25.257812 Z M 6.285156 25.257812 " fill-opacity="1" fill-rule="nonzero"/></g><g clip-path="url(#cd7c9f2af8)"><path fill="#ffffff" d="M 24.882812 35.09375 C 24.683594 35.09375 24.519531 34.929688 24.519531 34.730469 L 24.519531 32.941406 L 22.507812 32 C 22.378906 31.941406 22.296875 31.8125 22.296875 31.667969 L 22.296875 27.890625 C 22.296875 27.6875 22.460938 27.523438 22.664062 27.523438 C 22.867188 27.523438 23.03125 27.6875 23.03125 27.890625 L 23.03125 31.4375 L 25.039062 32.378906 C 25.167969 32.4375 25.25 32.566406 25.25 32.710938 L 25.25 34.730469 C 25.25 34.929688 25.085938 35.09375 24.882812 35.09375 Z M 24.882812 35.09375 " fill-opacity="1" fill-rule="nonzero"/></g><g clip-path="url(#d062181c78)"><path fill="#ffffff" d="M 14.09375 35.09375 C 13.894531 35.09375 13.730469 34.929688 13.730469 34.730469 L 13.730469 32.710938 C 13.730469 32.566406 13.8125 32.4375 13.941406 32.378906 L 15.949219 31.4375 L 15.949219 27.890625 C 15.949219 27.6875 16.113281 27.523438 16.316406 27.523438 C 16.519531 27.523438 16.683594 27.6875 16.683594 27.890625 L 16.683594 31.667969 C 16.683594 31.8125 16.601562 31.941406 16.472656 32 L 14.460938 32.941406 L 14.460938 34.730469 C 14.460938 34.929688 14.296875 35.09375 14.09375 35.09375 Z M 14.09375 35.09375 " fill-opacity="1" fill-rule="nonzero"/></g><g clip-path="url(#73ede966d4)"><path fill="#ffffff" d="M 22.664062 11.46875 C 22.460938 11.46875 22.296875 11.308594 22.296875 11.105469 L 22.296875 7.324219 C 22.296875 7.183594 22.378906 7.054688 22.507812 6.996094 L 24.519531 6.054688 L 24.519531 4.265625 C 24.519531 4.0625 24.683594 3.898438 24.882812 3.898438 C 25.085938 3.898438 25.25 4.0625 25.25 4.265625 L 25.25 6.285156 C 25.25 6.425781 25.167969 6.554688 25.039062 6.617188 L 23.03125 7.558594 L 23.03125 11.105469 C 23.03125 11.308594 22.867188 11.46875 22.664062 11.46875 Z M 22.664062 11.46875 " fill-opacity="1" fill-rule="nonzero"/></g><g clip-path="url(#edb37ebf00)"><path fill="#ffffff" d="M 16.316406 11.46875 C 16.113281 11.46875 15.949219 11.308594 15.949219 11.105469 L 15.949219 7.558594 L 13.941406 6.617188 C 13.8125 6.554688 13.730469 6.425781 13.730469 6.285156 L 13.730469 4.265625 C 13.730469 4.0625 13.894531 3.898438 14.09375 3.898438 C 14.296875 3.898438 14.460938 4.0625 14.460938 4.265625 L 14.460938 6.054688 L 16.472656 6.996094 C 16.601562 7.054688 16.683594 7.183594 16.683594 7.324219 L 16.683594 11.105469 C 16.683594 11.308594 16.519531 11.46875 16.316406 11.46875 Z M 16.316406 11.46875 " fill-opacity="1" fill-rule="nonzero"/></g><path fill="#ffffff" d="M 20.285156 16.402344 C 20.082031 16.402344 19.917969 16.238281 19.917969 16.035156 L 19.921875 15.003906 L 19.257812 15.003906 L 19.253906 16.035156 C 19.253906 16.234375 19.089844 16.398438 18.890625 16.398438 C 18.890625 16.398438 18.890625 16.398438 18.886719 16.398438 C 18.6875 16.398438 18.523438 16.234375 18.523438 16.03125 L 18.527344 14.632812 C 18.53125 14.433594 18.695312 14.269531 18.894531 14.269531 L 20.292969 14.273438 C 20.386719 14.277344 20.480469 14.3125 20.550781 14.382812 C 20.617188 14.453125 20.65625 14.546875 20.65625 14.640625 L 20.652344 16.039062 C 20.648438 16.238281 20.488281 16.402344 20.285156 16.402344 Z M 20.285156 16.402344 " fill-opacity="1" fill-rule="nonzero"/><path fill="#ffffff" d="M 16.59375 17.820312 C 16.5 17.820312 16.40625 17.785156 16.335938 17.710938 L 15.375 16.742188 C 15.304688 16.675781 15.265625 16.582031 15.269531 16.484375 C 15.269531 16.386719 15.308594 16.296875 15.375 16.226562 L 16.367188 15.242188 C 16.507812 15.101562 16.742188 15.101562 16.882812 15.246094 L 17.863281 16.230469 C 18.003906 16.375 18.003906 16.605469 17.859375 16.75 C 17.71875 16.890625 17.484375 16.890625 17.34375 16.746094 L 16.621094 16.019531 L 16.148438 16.488281 L 16.851562 17.195312 C 16.996094 17.339844 16.996094 17.570312 16.851562 17.714844 C 16.78125 17.785156 16.6875 17.820312 16.59375 17.820312 Z M 16.59375 17.820312 " fill-opacity="1" fill-rule="nonzero"/><path fill="#ffffff" d="M 16.03125 20.472656 L 14.632812 20.464844 C 14.539062 20.464844 14.445312 20.425781 14.375 20.359375 C 14.308594 20.289062 14.269531 20.195312 14.269531 20.097656 L 14.273438 18.703125 C 14.277344 18.605469 14.3125 18.515625 14.382812 18.445312 C 14.453125 18.378906 14.542969 18.339844 14.640625 18.339844 L 16.039062 18.34375 C 16.238281 18.34375 16.402344 18.507812 16.402344 18.710938 C 16.402344 18.914062 16.234375 19.074219 16.035156 19.074219 L 15.003906 19.070312 L 15.003906 19.738281 L 16.03125 19.738281 C 16.234375 19.742188 16.398438 19.90625 16.398438 20.105469 C 16.394531 20.308594 16.234375 20.472656 16.03125 20.472656 Z M 16.03125 20.472656 " fill-opacity="1" fill-rule="nonzero"/><path fill="#ffffff" d="M 16.484375 23.726562 C 16.390625 23.726562 16.296875 23.691406 16.226562 23.621094 L 15.246094 22.628906 C 15.175781 22.5625 15.136719 22.46875 15.136719 22.371094 C 15.136719 22.273438 15.175781 22.179688 15.246094 22.113281 L 16.230469 21.132812 C 16.375 20.992188 16.605469 20.992188 16.75 21.136719 C 16.890625 21.277344 16.890625 21.507812 16.746094 21.652344 L 16.019531 22.375 L 16.488281 22.84375 L 17.210938 22.125 C 17.355469 21.984375 17.585938 21.984375 17.730469 22.128906 C 17.871094 22.269531 17.871094 22.503906 17.726562 22.644531 L 16.742188 23.621094 C 16.671875 23.691406 16.578125 23.726562 16.484375 23.726562 Z M 16.484375 23.726562 " fill-opacity="1" fill-rule="nonzero"/><path fill="#ffffff" d="M 20.101562 24.726562 C 20.101562 24.726562 20.101562 24.726562 20.097656 24.726562 L 18.703125 24.71875 C 18.5 24.71875 18.339844 24.554688 18.339844 24.351562 L 18.34375 22.957031 C 18.34375 22.757812 18.507812 22.59375 18.710938 22.59375 C 18.914062 22.59375 19.078125 22.757812 19.074219 22.960938 L 19.070312 23.992188 L 19.738281 23.992188 L 19.738281 22.960938 C 19.742188 22.761719 19.90625 22.597656 20.105469 22.597656 C 20.308594 22.597656 20.472656 22.761719 20.472656 22.964844 L 20.464844 24.359375 C 20.464844 24.457031 20.425781 24.550781 20.359375 24.617188 C 20.289062 24.6875 20.195312 24.726562 20.101562 24.726562 Z M 20.101562 24.726562 " fill-opacity="1" fill-rule="nonzero"/><path fill="#ffffff" d="M 22.371094 23.859375 C 22.273438 23.859375 22.179688 23.820312 22.113281 23.75 L 21.132812 22.761719 C 20.988281 22.621094 20.992188 22.390625 21.132812 22.246094 C 21.277344 22.105469 21.507812 22.105469 21.652344 22.25 L 22.375 22.976562 L 22.84375 22.507812 L 22.125 21.78125 C 21.984375 21.640625 21.984375 21.410156 22.128906 21.265625 C 22.269531 21.125 22.503906 21.125 22.644531 21.269531 L 23.621094 22.25 C 23.761719 22.394531 23.761719 22.625 23.617188 22.769531 L 22.628906 23.75 C 22.558594 23.820312 22.46875 23.859375 22.371094 23.859375 Z M 22.371094 23.859375 " fill-opacity="1" fill-rule="nonzero"/><path fill="#ffffff" d="M 24.355469 20.65625 C 24.355469 20.65625 24.355469 20.65625 24.351562 20.65625 L 22.957031 20.652344 C 22.753906 20.648438 22.59375 20.484375 22.59375 20.285156 C 22.59375 20.082031 22.757812 19.917969 22.957031 19.917969 C 22.957031 19.917969 22.960938 19.917969 22.960938 19.917969 L 23.992188 19.921875 L 23.992188 19.257812 L 22.960938 19.253906 C 22.761719 19.253906 22.597656 19.089844 22.597656 18.886719 C 22.597656 18.6875 22.761719 18.523438 22.964844 18.523438 L 24.359375 18.527344 C 24.457031 18.53125 24.550781 18.570312 24.617188 18.636719 C 24.6875 18.707031 24.726562 18.800781 24.726562 18.894531 L 24.71875 20.292969 C 24.71875 20.492188 24.554688 20.65625 24.355469 20.65625 Z M 24.355469 20.65625 " fill-opacity="1" fill-rule="nonzero"/><path fill="#ffffff" d="M 22.53125 17.945312 C 22.4375 17.945312 22.34375 17.90625 22.273438 17.835938 C 22.128906 17.691406 22.128906 17.460938 22.273438 17.320312 L 22.976562 16.621094 L 22.507812 16.152344 L 21.78125 16.871094 C 21.640625 17.011719 21.40625 17.011719 21.265625 16.867188 C 21.125 16.722656 21.125 16.492188 21.265625 16.351562 L 22.25 15.375 C 22.394531 15.230469 22.625 15.234375 22.769531 15.375 L 23.75 16.367188 C 23.820312 16.433594 23.859375 16.527344 23.859375 16.625 C 23.859375 16.722656 23.820312 16.816406 23.75 16.882812 L 22.789062 17.835938 C 22.71875 17.910156 22.625 17.945312 22.53125 17.945312 Z M 22.53125 17.945312 " fill-opacity="1" fill-rule="nonzero"/><path fill="#ffffff" d="M 17.59375 16.859375 C 17.445312 16.859375 17.304688 16.765625 17.25 16.613281 C 17.183594 16.425781 17.28125 16.214844 17.472656 16.148438 L 18.765625 15.6875 C 18.957031 15.621094 19.167969 15.71875 19.234375 15.910156 C 19.300781 16.097656 19.203125 16.308594 19.011719 16.375 L 17.71875 16.835938 C 17.675781 16.851562 17.636719 16.859375 17.59375 16.859375 Z M 17.59375 16.859375 " fill-opacity="1" fill-rule="nonzero"/><path fill="#ffffff" d="M 16.488281 21.757812 C 16.339844 21.757812 16.199219 21.664062 16.144531 21.515625 L 15.6875 20.226562 C 15.621094 20.039062 15.71875 19.828125 15.910156 19.761719 C 16.097656 19.691406 16.308594 19.792969 16.375 19.984375 L 16.832031 21.269531 C 16.902344 21.460938 16.800781 21.667969 16.613281 21.738281 C 16.570312 21.75 16.53125 21.757812 16.488281 21.757812 Z M 16.488281 21.757812 " fill-opacity="1" fill-rule="nonzero"/><path fill="#ffffff" d="M 20.105469 23.328125 C 19.957031 23.328125 19.816406 23.234375 19.761719 23.085938 C 19.695312 22.894531 19.792969 22.6875 19.984375 22.621094 L 21.269531 22.160156 C 21.460938 22.09375 21.667969 22.191406 21.734375 22.382812 C 21.804688 22.574219 21.703125 22.78125 21.515625 22.851562 L 20.226562 23.308594 C 20.1875 23.324219 20.144531 23.328125 20.105469 23.328125 Z M 20.105469 23.328125 " fill-opacity="1" fill-rule="nonzero"/><path fill="#ffffff" d="M 22.964844 19.253906 C 22.808594 19.253906 22.667969 19.15625 22.617188 19.003906 L 22.183594 17.691406 C 22.121094 17.5 22.226562 17.292969 22.417969 17.230469 C 22.609375 17.167969 22.816406 17.273438 22.878906 17.464844 L 23.3125 18.777344 C 23.375 18.96875 23.269531 19.171875 23.078125 19.238281 C 23.039062 19.25 23 19.253906 22.964844 19.253906 Z M 22.964844 19.253906 " fill-opacity="1" fill-rule="nonzero"/><path fill="#ffffff" d="M 21.523438 16.976562 C 21.46875 16.976562 21.410156 16.960938 21.355469 16.933594 L 20.132812 16.367188 C 19.949219 16.285156 19.867188 16.066406 19.953125 15.882812 C 20.039062 15.699219 20.253906 15.621094 20.4375 15.703125 L 21.679688 16.277344 C 21.71875 16.296875 21.753906 16.320312 21.78125 16.351562 C 21.925781 16.492188 21.925781 16.726562 21.785156 16.867188 C 21.710938 16.941406 21.617188 16.976562 21.523438 16.976562 Z M 21.523438 16.976562 " fill-opacity="1" fill-rule="nonzero"/><path fill="#ffffff" d="M 22.386719 21.890625 C 22.332031 21.890625 22.273438 21.878906 22.222656 21.851562 C 22.042969 21.761719 21.96875 21.546875 22.054688 21.367188 L 22.625 20.132812 C 22.710938 19.949219 22.929688 19.867188 23.113281 19.953125 C 23.296875 20.039062 23.375 20.253906 23.289062 20.4375 L 22.71875 21.679688 C 22.714844 21.679688 22.714844 21.683594 22.710938 21.6875 C 22.648438 21.816406 22.519531 21.890625 22.386719 21.890625 Z M 22.386719 21.890625 " fill-opacity="1" fill-rule="nonzero"/><path fill="#ffffff" d="M 18.710938 23.324219 C 18.660156 23.324219 18.605469 23.3125 18.554688 23.289062 L 17.316406 22.71875 C 17.277344 22.699219 17.242188 22.675781 17.210938 22.644531 C 17.070312 22.5 17.070312 22.269531 17.210938 22.128906 C 17.328125 22.011719 17.5 21.988281 17.636719 22.058594 L 18.863281 22.628906 C 19.046875 22.710938 19.125 22.929688 19.042969 23.113281 C 18.980469 23.246094 18.847656 23.324219 18.710938 23.324219 Z M 18.710938 23.324219 " fill-opacity="1" fill-rule="nonzero"/><path fill="#ffffff" d="M 16.035156 19.074219 C 15.984375 19.074219 15.933594 19.066406 15.882812 19.042969 C 15.699219 18.957031 15.621094 18.738281 15.703125 18.554688 L 16.277344 17.316406 C 16.363281 17.132812 16.578125 17.054688 16.761719 17.140625 C 16.945312 17.222656 17.027344 17.441406 16.941406 17.625 L 16.367188 18.863281 C 16.304688 18.996094 16.175781 19.074219 16.035156 19.074219 Z M 16.035156 19.074219 " fill-opacity="1" fill-rule="nonzero"/><path fill="#ffffff" d="M 19.496094 21.742188 C 19.496094 21.742188 19.492188 21.742188 19.488281 21.742188 C 19 21.738281 18.53125 21.582031 18.140625 21.285156 C 17.574219 20.855469 17.25 20.199219 17.253906 19.488281 C 17.257812 18.269531 18.214844 17.292969 19.425781 17.253906 C 19.457031 17.253906 19.484375 17.253906 19.507812 17.253906 C 20.742188 17.257812 21.746094 18.269531 21.742188 19.503906 L 21.375 19.503906 L 21.742188 19.503906 C 21.738281 20.105469 21.503906 20.667969 21.078125 21.089844 C 20.65625 21.511719 20.09375 21.742188 19.496094 21.742188 Z M 19.492188 17.984375 C 19.488281 17.984375 19.484375 17.984375 19.480469 17.984375 C 19.472656 17.984375 19.464844 17.984375 19.457031 17.984375 C 18.636719 18.007812 17.988281 18.667969 17.984375 19.488281 C 17.980469 19.972656 18.199219 20.414062 18.582031 20.703125 C 18.847656 20.902344 19.160156 21.007812 19.492188 21.011719 C 19.496094 21.011719 19.496094 21.011719 19.496094 21.011719 C 19.898438 21.011719 20.277344 20.855469 20.5625 20.570312 C 20.851562 20.285156 21.007812 19.90625 21.011719 19.503906 C 21.011719 19.097656 20.855469 18.71875 20.570312 18.433594 C 20.285156 18.144531 19.90625 17.984375 19.503906 17.984375 C 19.5 17.984375 19.496094 17.984375 19.492188 17.984375 Z M 19.492188 17.984375 " fill-opacity="1" fill-rule="nonzero"/></svg>
