<svg xmlns="http://www.w3.org/2000/svg" xmlns:xlink="http://www.w3.org/1999/xlink" width="40" zoomAndPan="magnify" viewBox="0 0 30 30.000001" height="40" preserveAspectRatio="xMidYMid meet" version="1.0"><defs><clipPath id="bd56ff2e37"><path d="M 0.484375 0 L 29.515625 0 L 29.515625 29.03125 L 0.484375 29.03125 Z M 0.484375 0 " clip-rule="nonzero"/></clipPath><clipPath id="3089370647"><path d="M 3.386719 4 L 26.613281 4 L 26.613281 21 L 3.386719 21 Z M 3.386719 4 " clip-rule="nonzero"/></clipPath></defs><g clip-path="url(#bd56ff2e37)"><path fill="#ffffff" d="M 0.484375 0 L 29.515625 0 L 29.515625 29.03125 L 0.484375 29.03125 Z M 0.484375 0 " fill-opacity="1" fill-rule="nonzero"/><path fill="#01222c" d="M 0.484375 0 L 29.515625 0 L 29.515625 29.03125 L 0.484375 29.03125 Z M 0.484375 0 " fill-opacity="1" fill-rule="nonzero"/></g><g clip-path="url(#3089370647)"><path fill="#ffffff" d="M 16.621094 4.386719 C 18.199219 4.386719 19.628906 5.027344 20.664062 6.0625 C 21.699219 7.097656 22.339844 8.527344 22.339844 10.105469 C 22.339844 10.335938 22.3125 10.582031 22.285156 10.828125 C 22.269531 10.960938 22.242188 11.113281 22.214844 11.25 C 23.398438 11.304688 24.476562 11.820312 25.265625 12.597656 C 26.09375 13.441406 26.613281 14.597656 26.613281 15.878906 C 26.613281 17.15625 26.09375 18.316406 25.265625 19.160156 C 24.421875 19.988281 23.265625 20.507812 21.984375 20.507812 L 21.78125 20.507812 C 21.65625 20.507812 21.546875 20.410156 21.546875 20.289062 L 21.546875 17.660156 L 8.453125 17.660156 L 8.453125 20.289062 C 8.453125 20.410156 8.34375 20.507812 8.21875 20.507812 L 8.015625 20.507812 C 6.734375 20.507812 5.578125 19.988281 4.734375 19.160156 C 3.90625 18.316406 3.386719 17.15625 3.386719 15.878906 C 3.386719 14.855469 3.714844 13.902344 4.285156 13.128906 C 4.832031 12.390625 5.59375 11.820312 6.476562 11.507812 L 6.476562 11.464844 C 6.476562 11.398438 6.476562 11.316406 6.476562 11.25 C 6.476562 10.132812 6.925781 9.125 7.660156 8.390625 C 8.398438 7.65625 9.40625 7.207031 10.519531 7.207031 C 10.738281 7.207031 10.957031 7.21875 11.160156 7.261719 C 11.3125 7.273438 11.460938 7.3125 11.597656 7.355469 C 12.085938 6.484375 12.78125 5.75 13.625 5.230469 C 14.496094 4.6875 15.515625 4.386719 16.621094 4.386719 Z M 20.335938 6.375 C 19.382812 5.421875 18.0625 4.835938 16.621094 4.835938 C 15.597656 4.835938 14.660156 5.121094 13.855469 5.613281 C 13.039062 6.117188 12.359375 6.851562 11.921875 7.710938 C 11.867188 7.816406 11.761719 7.871094 11.636719 7.832031 C 11.460938 7.777344 11.285156 7.734375 11.09375 7.695312 C 10.914062 7.667969 10.726562 7.65625 10.519531 7.65625 C 9.527344 7.65625 8.628906 8.0625 7.976562 8.714844 C 7.335938 9.355469 6.925781 10.269531 6.925781 11.25 C 6.925781 11.332031 6.925781 11.398438 6.925781 11.453125 C 6.941406 11.507812 6.941406 11.574219 6.953125 11.644531 C 6.953125 11.753906 6.898438 11.847656 6.789062 11.875 C 5.917969 12.148438 5.171875 12.691406 4.652344 13.398438 C 4.136719 14.09375 3.835938 14.953125 3.835938 15.878906 C 3.835938 17.035156 4.300781 18.082031 5.0625 18.832031 C 5.808594 19.582031 6.84375 20.058594 7.988281 20.058594 L 7.988281 17.429688 C 7.988281 17.308594 8.097656 17.199219 8.21875 17.199219 L 21.78125 17.199219 C 21.902344 17.199219 22.011719 17.308594 22.011719 17.429688 L 22.011719 20.058594 C 23.15625 20.058594 24.191406 19.582031 24.9375 18.832031 C 25.699219 18.082031 26.164062 17.035156 26.164062 15.878906 C 26.164062 14.71875 25.699219 13.6875 24.9375 12.921875 C 24.191406 12.160156 23.140625 11.699219 21.984375 11.699219 L 21.941406 11.699219 C 21.914062 11.699219 21.902344 11.699219 21.875 11.699219 C 21.753906 11.65625 21.683594 11.535156 21.710938 11.410156 C 21.765625 11.207031 21.808594 10.988281 21.835938 10.773438 C 21.863281 10.554688 21.875 10.335938 21.875 10.105469 C 21.875 8.648438 21.289062 7.328125 20.335938 6.375 Z M 20.335938 6.375 " fill-opacity="1" fill-rule="nonzero"/></g><path fill="#ffffff" d="M 24.164062 18.328125 C 24.066406 18.410156 23.917969 18.394531 23.835938 18.316406 C 23.753906 18.21875 23.765625 18.070312 23.847656 17.988281 C 24.148438 17.730469 24.394531 17.402344 24.558594 17.035156 C 24.71875 16.679688 24.800781 16.285156 24.800781 15.878906 C 24.800781 15.101562 24.488281 14.394531 23.972656 13.890625 C 23.46875 13.371094 22.761719 13.058594 21.984375 13.058594 C 21.863281 13.058594 21.753906 12.964844 21.753906 12.828125 C 21.753906 12.707031 21.863281 12.609375 21.984375 12.609375 C 22.882812 12.609375 23.699219 12.976562 24.296875 13.5625 C 24.882812 14.164062 25.25 14.980469 25.25 15.878906 C 25.25 16.355469 25.15625 16.804688 24.964844 17.226562 C 24.773438 17.648438 24.503906 18.027344 24.164062 18.328125 Z M 20.488281 8.117188 C 20.554688 8.226562 20.5 8.363281 20.390625 8.417969 C 20.28125 8.472656 20.144531 8.429688 20.089844 8.320312 C 19.765625 7.683594 19.261719 7.136719 18.648438 6.769531 C 18.050781 6.402344 17.355469 6.199219 16.621094 6.199219 C 16.484375 6.199219 16.386719 6.101562 16.386719 5.964844 C 16.386719 5.84375 16.484375 5.75 16.621094 5.75 C 17.449219 5.75 18.226562 5.980469 18.878906 6.386719 C 19.5625 6.796875 20.117188 7.394531 20.488281 8.117188 Z M 20.488281 8.117188 " fill-opacity="1" fill-rule="nonzero"/><path fill="#ffffff" d="M 22.011719 17.429688 L 22.011719 22.738281 C 22.011719 22.863281 21.902344 22.96875 21.78125 22.96875 L 8.21875 22.96875 C 8.097656 22.96875 7.988281 22.863281 7.988281 22.738281 L 7.988281 17.429688 C 7.988281 17.308594 8.097656 17.199219 8.21875 17.199219 L 21.78125 17.199219 C 21.902344 17.199219 22.011719 17.308594 22.011719 17.429688 Z M 21.546875 22.507812 L 21.546875 17.660156 L 8.453125 17.660156 L 8.453125 22.507812 Z M 21.546875 22.507812 " fill-opacity="1" fill-rule="nonzero"/><path fill="#ffffff" d="M 22.011719 22.738281 L 22.011719 24.425781 C 22.011719 24.550781 21.902344 24.644531 21.78125 24.644531 L 8.21875 24.644531 C 8.097656 24.644531 7.988281 24.550781 7.988281 24.425781 L 7.988281 22.738281 C 7.988281 22.617188 8.097656 22.507812 8.21875 22.507812 L 21.78125 22.507812 C 21.902344 22.507812 22.011719 22.617188 22.011719 22.738281 Z M 21.546875 24.195312 L 21.546875 22.96875 L 8.453125 22.96875 L 8.453125 24.195312 Z M 21.546875 24.195312 " fill-opacity="1" fill-rule="nonzero"/><path fill="#ffffff" d="M 12.835938 20.929688 C 13.066406 20.929688 13.269531 20.832031 13.433594 20.683594 C 13.585938 20.519531 13.679688 20.316406 13.679688 20.085938 C 13.679688 19.851562 13.585938 19.636719 13.433594 19.484375 C 13.421875 19.484375 13.421875 19.484375 13.421875 19.472656 C 13.269531 19.335938 13.066406 19.242188 12.835938 19.242188 C 12.605469 19.242188 12.386719 19.335938 12.234375 19.484375 C 12.085938 19.636719 11.992188 19.851562 11.992188 20.085938 C 11.992188 20.316406 12.085938 20.519531 12.234375 20.683594 C 12.386719 20.832031 12.605469 20.929688 12.835938 20.929688 Z M 13.746094 20.996094 C 13.515625 21.226562 13.1875 21.378906 12.835938 21.378906 C 12.480469 21.378906 12.15625 21.226562 11.921875 20.996094 C 11.679688 20.765625 11.542969 20.4375 11.542969 20.085938 C 11.542969 19.730469 11.679688 19.402344 11.921875 19.171875 C 12.15625 18.925781 12.480469 18.789062 12.835938 18.789062 C 13.1875 18.789062 13.503906 18.925781 13.734375 19.160156 C 13.734375 19.160156 13.746094 19.160156 13.746094 19.171875 C 13.980469 19.402344 14.128906 19.730469 14.128906 20.085938 C 14.128906 20.4375 13.980469 20.765625 13.746094 20.996094 Z M 13.746094 20.996094 " fill-opacity="1" fill-rule="nonzero"/><path fill="#ffffff" d="M 17.164062 20.929688 C 17.394531 20.929688 17.613281 20.832031 17.765625 20.683594 C 17.914062 20.519531 18.007812 20.316406 18.007812 20.085938 C 18.007812 19.851562 17.914062 19.636719 17.765625 19.484375 C 17.765625 19.484375 17.75 19.484375 17.75 19.472656 C 17.601562 19.335938 17.394531 19.242188 17.164062 19.242188 C 16.933594 19.242188 16.730469 19.335938 16.566406 19.484375 C 16.414062 19.636719 16.320312 19.851562 16.320312 20.085938 C 16.320312 20.316406 16.414062 20.519531 16.566406 20.683594 C 16.730469 20.832031 16.933594 20.929688 17.164062 20.929688 Z M 18.078125 20.996094 C 17.84375 21.226562 17.519531 21.378906 17.164062 21.378906 C 16.8125 21.378906 16.484375 21.226562 16.253906 20.996094 C 16.019531 20.765625 15.871094 20.4375 15.871094 20.085938 C 15.871094 19.730469 16.019531 19.402344 16.253906 19.171875 C 16.484375 18.925781 16.8125 18.789062 17.164062 18.789062 C 17.519531 18.789062 17.832031 18.925781 18.0625 19.160156 C 18.078125 19.160156 18.078125 19.160156 18.078125 19.171875 C 18.320312 19.402344 18.457031 19.730469 18.457031 20.085938 C 18.457031 20.4375 18.320312 20.765625 18.078125 20.996094 Z M 18.078125 20.996094 " fill-opacity="1" fill-rule="nonzero"/><path fill="#ffffff" d="M 12.210938 17.429688 C 12.210938 17.550781 12.113281 17.660156 11.976562 17.660156 C 11.855469 17.660156 11.761719 17.550781 11.761719 17.429688 L 11.761719 13.25 L 10.601562 13.25 C 10.480469 13.25 10.371094 13.140625 10.371094 13.019531 C 10.371094 12.894531 10.480469 12.789062 10.601562 12.789062 L 11.976562 12.789062 C 12.113281 12.789062 12.210938 12.894531 12.210938 13.019531 Z M 12.210938 17.429688 " fill-opacity="1" fill-rule="nonzero"/><path fill="#ffffff" d="M 9.71875 13.671875 C 9.910156 13.671875 10.070312 13.605469 10.179688 13.480469 C 10.304688 13.359375 10.371094 13.195312 10.371094 13.019531 C 10.371094 12.839844 10.304688 12.679688 10.179688 12.554688 C 10.070312 12.433594 9.910156 12.363281 9.71875 12.363281 C 9.539062 12.363281 9.378906 12.433594 9.253906 12.554688 L 9.242188 12.570312 C 9.132812 12.679688 9.0625 12.839844 9.0625 13.019531 C 9.0625 13.195312 9.132812 13.359375 9.253906 13.480469 C 9.378906 13.605469 9.539062 13.671875 9.71875 13.671875 Z M 10.507812 13.808594 C 10.304688 14.011719 10.03125 14.136719 9.71875 14.136719 C 9.417969 14.136719 9.132812 14.011719 8.929688 13.808594 C 8.738281 13.605469 8.613281 13.332031 8.613281 13.019531 C 8.613281 12.71875 8.722656 12.445312 8.929688 12.242188 C 8.929688 12.242188 8.929688 12.242188 8.929688 12.230469 C 9.132812 12.039062 9.417969 11.902344 9.71875 11.902344 C 10.03125 11.902344 10.304688 12.039062 10.507812 12.230469 C 10.710938 12.433594 10.835938 12.71875 10.835938 13.019531 C 10.835938 13.332031 10.710938 13.605469 10.507812 13.808594 Z M 10.507812 13.808594 " fill-opacity="1" fill-rule="nonzero"/><path fill="#ffffff" d="M 16.785156 17.429688 C 16.785156 17.550781 16.675781 17.660156 16.550781 17.660156 C 16.429688 17.660156 16.320312 17.550781 16.320312 17.429688 L 16.320312 10.226562 C 16.320312 10.105469 16.429688 10.011719 16.550781 10.011719 L 17.925781 10.011719 C 18.050781 10.011719 18.160156 10.105469 18.160156 10.226562 C 18.160156 10.363281 18.050781 10.460938 17.925781 10.460938 L 16.785156 10.460938 Z M 16.785156 17.429688 " fill-opacity="1" fill-rule="nonzero"/><path fill="#ffffff" d="M 18.8125 11.34375 C 18.511719 11.34375 18.226562 11.222656 18.035156 11.015625 C 18.023438 11.015625 18.023438 11.015625 18.023438 11.003906 C 17.816406 10.8125 17.710938 10.539062 17.710938 10.226562 C 17.710938 9.929688 17.832031 9.65625 18.035156 9.453125 C 18.035156 9.4375 18.035156 9.4375 18.050781 9.4375 C 18.238281 9.246094 18.511719 9.125 18.8125 9.125 C 19.125 9.125 19.398438 9.246094 19.601562 9.453125 C 19.601562 9.453125 19.613281 9.453125 19.613281 9.464844 C 19.804688 9.65625 19.929688 9.929688 19.929688 10.226562 C 19.929688 10.539062 19.804688 10.8125 19.601562 11.015625 C 19.398438 11.222656 19.125 11.34375 18.8125 11.34375 Z M 18.347656 10.703125 C 18.472656 10.8125 18.636719 10.894531 18.8125 10.894531 C 19.003906 10.894531 19.164062 10.8125 19.273438 10.703125 C 19.398438 10.582031 19.480469 10.417969 19.480469 10.226562 C 19.480469 10.050781 19.398438 9.902344 19.289062 9.777344 C 19.289062 9.777344 19.289062 9.777344 19.273438 9.765625 C 19.164062 9.65625 19.003906 9.574219 18.8125 9.574219 C 18.636719 9.574219 18.472656 9.640625 18.363281 9.765625 C 18.363281 9.765625 18.347656 9.765625 18.347656 9.765625 C 18.226562 9.886719 18.160156 10.050781 18.160156 10.226562 C 18.160156 10.40625 18.226562 10.566406 18.335938 10.691406 Z M 18.347656 10.703125 " fill-opacity="1" fill-rule="nonzero"/><path fill="#ffffff" d="M 14.441406 17.429688 C 14.441406 17.550781 14.347656 17.660156 14.210938 17.660156 C 14.085938 17.660156 13.992188 17.550781 13.992188 17.429688 L 13.992188 12.039062 C 13.992188 11.914062 14.085938 11.808594 14.210938 11.808594 C 14.347656 11.808594 14.441406 11.914062 14.441406 12.039062 Z M 14.441406 17.429688 " fill-opacity="1" fill-rule="nonzero"/><path fill="#ffffff" d="M 14.210938 12.269531 C 13.910156 12.269531 13.636719 12.148438 13.433594 11.941406 C 13.421875 11.941406 13.421875 11.929688 13.421875 11.929688 C 13.230469 11.726562 13.109375 11.453125 13.109375 11.152344 C 13.109375 10.855469 13.230469 10.566406 13.433594 10.363281 C 13.636719 10.171875 13.910156 10.035156 14.210938 10.035156 C 14.523438 10.035156 14.796875 10.171875 15 10.363281 C 15.203125 10.566406 15.328125 10.855469 15.328125 11.152344 C 15.328125 11.464844 15.203125 11.738281 15 11.941406 C 15 11.941406 15 11.941406 14.988281 11.957031 C 14.796875 12.148438 14.523438 12.269531 14.210938 12.269531 Z M 13.746094 11.617188 C 13.871094 11.738281 14.035156 11.808594 14.210938 11.808594 C 14.386719 11.808594 14.550781 11.738281 14.671875 11.628906 L 14.6875 11.617188 C 14.796875 11.507812 14.878906 11.332031 14.878906 11.152344 C 14.878906 10.976562 14.796875 10.8125 14.6875 10.691406 C 14.5625 10.566406 14.402344 10.5 14.210938 10.5 C 14.035156 10.5 13.871094 10.566406 13.746094 10.691406 C 13.636719 10.8125 13.558594 10.976562 13.558594 11.152344 C 13.558594 11.332031 13.625 11.492188 13.746094 11.617188 Z M 13.746094 11.617188 " fill-opacity="1" fill-rule="nonzero"/></svg>