<svg xmlns="http://www.w3.org/2000/svg" xmlns:xlink="http://www.w3.org/1999/xlink" width="52" zoomAndPan="magnify" viewBox="0 0 39 38.999999" height="52" preserveAspectRatio="xMidYMid meet" version="1.0"><defs><clipPath id="6417e246bb"><path d="M 1.949219 1.949219 L 37.199219 1.949219 L 37.199219 37.199219 L 1.949219 37.199219 Z M 1.949219 1.949219 " clip-rule="nonzero"/></clipPath></defs><g clip-path="url(#6417e246bb)"><path fill="#ffffff" d="M 26.871094 24.226562 C 24.753906 25.902344 22.1875 26.789062 19.523438 26.789062 C 19.058594 26.789062 18.59375 26.765625 18.128906 26.710938 C 14.976562 26.34375 12.15625 24.773438 10.1875 22.285156 C 8.21875 19.796875 7.335938 16.695312 7.703125 13.542969 C 8.070312 10.390625 9.640625 7.570312 12.128906 5.601562 C 13.398438 4.597656 14.863281 3.863281 16.421875 3.445312 L 15.664062 2.960938 C 15.40625 2.796875 15.332031 2.457031 15.496094 2.203125 C 15.65625 1.949219 15.996094 1.875 16.25 2.035156 L 18.144531 3.246094 C 18.402344 3.40625 18.476562 3.746094 18.3125 4 L 17.105469 5.894531 C 17 6.058594 16.824219 6.148438 16.640625 6.148438 C 16.542969 6.148438 16.441406 6.121094 16.347656 6.0625 C 16.09375 5.902344 16.019531 5.5625 16.179688 5.308594 L 16.691406 4.507812 C 15.285156 4.886719 13.960938 5.550781 12.808594 6.460938 C 10.550781 8.25 9.125 10.808594 8.792969 13.667969 C 8.460938 16.53125 9.261719 19.347656 11.046875 21.605469 C 12.835938 23.863281 15.394531 25.289062 18.253906 25.621094 C 21.117188 25.953125 23.933594 25.152344 26.191406 23.367188 C 30.851562 19.675781 31.640625 12.882812 27.953125 8.222656 C 27.015625 7.039062 25.867188 6.082031 24.539062 5.382812 C 24.269531 5.238281 24.167969 4.910156 24.308594 4.640625 C 24.453125 4.375 24.785156 4.269531 25.050781 4.410156 C 26.515625 5.183594 27.777344 6.238281 28.8125 7.542969 C 32.875 12.675781 32.003906 20.160156 26.871094 24.226562 Z M 26.40625 11.328125 L 26.40625 18.199219 L 27.128906 18.199219 C 27.433594 18.199219 27.679688 18.445312 27.679688 18.75 L 27.679688 20.394531 C 27.679688 20.699219 27.433594 20.945312 27.128906 20.945312 L 11.867188 20.945312 C 11.566406 20.945312 11.320312 20.699219 11.320312 20.394531 L 11.320312 18.75 C 11.320312 18.445312 11.566406 18.199219 11.867188 18.199219 L 12.59375 18.199219 L 12.59375 15.421875 L 11.867188 15.421875 C 11.660156 15.421875 11.46875 15.304688 11.375 15.113281 C 11.285156 14.925781 11.304688 14.703125 11.433594 14.539062 L 13.71875 11.589844 C 13.824219 11.457031 13.984375 11.378906 14.152344 11.378906 C 14.324219 11.378906 14.480469 11.457031 14.585938 11.589844 L 16.875 14.539062 C 17 14.703125 17.023438 14.925781 16.933594 15.113281 C 16.839844 15.300781 16.648438 15.421875 16.441406 15.421875 L 15.714844 15.421875 L 15.714844 18.199219 L 17.9375 18.199219 L 17.9375 13.335938 L 17.214844 13.335938 C 17.003906 13.335938 16.8125 13.21875 16.722656 13.03125 C 16.628906 12.84375 16.652344 12.617188 16.78125 12.453125 L 19.066406 9.503906 C 19.167969 9.371094 19.328125 9.292969 19.496094 9.292969 C 19.667969 9.292969 19.828125 9.371094 19.929688 9.503906 L 22.214844 12.453125 C 22.34375 12.617188 22.367188 12.84375 22.273438 13.03125 C 22.183594 13.21875 21.992188 13.335938 21.78125 13.335938 L 21.058594 13.335938 L 21.058594 18.199219 L 23.28125 18.199219 L 23.28125 11.328125 L 22.558594 11.328125 C 22.347656 11.328125 22.15625 11.207031 22.066406 11.019531 C 21.972656 10.832031 21.996094 10.609375 22.125 10.445312 L 24.410156 7.496094 C 24.511719 7.363281 24.671875 7.285156 24.84375 7.285156 C 25.011719 7.285156 25.171875 7.363281 25.277344 7.496094 L 27.5625 10.445312 C 27.6875 10.609375 27.710938 10.832031 27.621094 11.019531 C 27.527344 11.207031 27.335938 11.328125 27.128906 11.328125 Z M 19.03125 12.789062 L 19.03125 18.199219 L 19.964844 18.199219 L 19.964844 12.789062 C 19.964844 12.484375 20.210938 12.242188 20.511719 12.242188 L 20.664062 12.242188 L 19.5 10.734375 L 18.332031 12.242188 L 18.484375 12.242188 C 18.789062 12.242188 19.03125 12.484375 19.03125 12.789062 Z M 13.6875 14.875 L 13.6875 18.199219 L 14.621094 18.199219 L 14.621094 14.875 C 14.621094 14.570312 14.863281 14.328125 15.167969 14.328125 L 15.320312 14.328125 L 14.152344 12.820312 L 12.984375 14.328125 L 13.140625 14.328125 C 13.441406 14.328125 13.6875 14.570312 13.6875 14.875 Z M 26.582031 19.296875 L 12.417969 19.296875 L 12.417969 19.847656 L 26.582031 19.847656 Z M 25.3125 18.199219 L 25.3125 10.78125 C 25.3125 10.476562 25.554688 10.230469 25.859375 10.230469 L 26.011719 10.230469 L 24.84375 8.726562 L 23.675781 10.230469 L 23.832031 10.230469 C 24.132812 10.230469 24.378906 10.476562 24.378906 10.78125 L 24.378906 18.199219 Z M 15.078125 35.921875 C 15.097656 36.226562 14.871094 36.488281 14.570312 36.511719 L 7.363281 37.046875 C 7.351562 37.046875 7.335938 37.046875 7.324219 37.046875 C 7.191406 37.046875 7.066406 37 6.964844 36.914062 C 6.855469 36.820312 6.785156 36.6875 6.777344 36.539062 L 6.539062 33.347656 C 6.515625 33.046875 6.742188 32.785156 7.046875 32.761719 L 7.289062 32.742188 C 7.265625 32.441406 7.136719 32.203125 6.894531 32.015625 L 4.265625 29.96875 C 3.632812 29.476562 3.253906 28.8125 3.140625 27.992188 L 1.96875 19.734375 C 1.890625 19.175781 2.039062 18.617188 2.386719 18.164062 C 2.738281 17.699219 3.25 17.40625 3.820312 17.332031 C 4.796875 17.207031 5.695312 17.761719 6.0625 18.640625 C 7.210938 18.511719 8.246094 19.3125 8.421875 20.480469 L 8.917969 23.714844 C 9.046875 23.78125 9.175781 23.863281 9.292969 23.957031 L 12.652344 26.652344 C 13.316406 27.183594 13.699219 27.914062 13.761719 28.761719 L 14.007812 32.242188 L 14.25 32.226562 C 14.394531 32.214844 14.539062 32.261719 14.648438 32.355469 C 14.761719 32.449219 14.828125 32.585938 14.839844 32.730469 L 15.074219 35.921875 Z M 6.296875 19.722656 L 6.910156 23.757812 C 7.15625 23.621094 7.429688 23.535156 7.71875 23.5 C 7.738281 23.5 7.757812 23.5 7.773438 23.496094 L 7.339844 20.644531 C 7.257812 20.101562 6.808594 19.71875 6.296875 19.722656 Z M 8.382812 32.660156 L 12.914062 32.324219 L 12.667969 28.835938 C 12.628906 28.296875 12.394531 27.847656 11.96875 27.507812 L 8.605469 24.8125 C 8.5 24.726562 8.378906 24.664062 8.253906 24.625 C 8.25 24.625 8.25 24.625 8.246094 24.625 C 8.117188 24.585938 7.980469 24.574219 7.839844 24.589844 C 7.5625 24.621094 7.3125 24.757812 7.140625 24.972656 C 7.097656 25.027344 7.054688 25.089844 7.023438 25.15625 C 7.019531 25.164062 7.015625 25.171875 7.011719 25.179688 C 7.007812 25.183594 7.007812 25.191406 7.003906 25.195312 C 6.808594 25.628906 6.933594 26.140625 7.300781 26.4375 L 9.78125 28.425781 C 10.019531 28.613281 10.054688 28.960938 9.867188 29.195312 C 9.757812 29.332031 9.597656 29.402344 9.4375 29.402344 C 9.320312 29.402344 9.199219 29.363281 9.097656 29.28125 L 6.617188 27.292969 C 5.882812 26.703125 5.625 25.707031 5.96875 24.835938 L 5.128906 19.335938 C 5.039062 18.75 4.527344 18.347656 3.960938 18.417969 C 3.679688 18.457031 3.429688 18.601562 3.257812 18.828125 C 3.089844 19.046875 3.019531 19.3125 3.054688 19.578125 L 4.226562 27.839844 C 4.300781 28.375 4.535156 28.789062 4.9375 29.101562 L 7.570312 31.152344 C 8.054688 31.527344 8.335938 32.050781 8.382812 32.660156 Z M 13.941406 35.457031 L 13.789062 33.359375 L 7.671875 33.8125 L 7.828125 35.914062 Z M 36.613281 18.160156 C 36.957031 18.617188 37.105469 19.175781 37.027344 19.734375 L 35.859375 27.992188 C 35.742188 28.8125 35.367188 29.476562 34.738281 29.96875 L 32.101562 32.015625 C 31.863281 32.203125 31.734375 32.441406 31.710938 32.742188 L 31.953125 32.761719 C 32.097656 32.773438 32.234375 32.839844 32.328125 32.949219 C 32.421875 33.058594 32.472656 33.203125 32.460938 33.347656 L 32.222656 36.539062 C 32.199219 36.828125 31.957031 37.046875 31.675781 37.046875 C 31.660156 37.046875 31.648438 37.046875 31.632812 37.046875 L 24.429688 36.511719 C 24.125 36.488281 23.902344 36.226562 23.921875 35.921875 L 24.160156 32.730469 C 24.171875 32.585938 24.238281 32.449219 24.347656 32.355469 C 24.457031 32.261719 24.601562 32.214844 24.746094 32.222656 L 24.988281 32.242188 L 25.238281 28.761719 C 25.296875 27.914062 25.679688 27.1875 26.34375 26.652344 L 29.703125 23.957031 C 29.824219 23.863281 29.949219 23.78125 30.082031 23.714844 L 30.574219 20.480469 C 30.753906 19.3125 31.785156 18.507812 32.933594 18.640625 C 33.304688 17.761719 34.199219 17.207031 35.175781 17.332031 C 35.742188 17.40625 36.261719 17.707031 36.609375 18.160156 Z M 31.660156 20.648438 L 31.222656 23.496094 C 31.523438 23.523438 31.820312 23.609375 32.085938 23.757812 L 32.703125 19.722656 C 32.1875 19.71875 31.742188 20.101562 31.660156 20.648438 Z M 31.328125 33.8125 L 25.210938 33.359375 L 25.054688 35.457031 L 31.167969 35.914062 Z M 35.742188 18.828125 C 35.566406 18.601562 35.316406 18.457031 35.039062 18.421875 C 34.472656 18.347656 33.960938 18.75 33.871094 19.335938 L 33.867188 19.347656 C 33.867188 19.375 33.863281 19.398438 33.855469 19.421875 L 33.03125 24.839844 C 33.371094 25.710938 33.113281 26.707031 32.378906 27.292969 L 29.902344 29.28125 C 29.800781 29.363281 29.679688 29.402344 29.558594 29.402344 C 29.398438 29.402344 29.238281 29.332031 29.132812 29.195312 C 28.941406 28.960938 28.980469 28.613281 29.214844 28.425781 L 31.695312 26.4375 C 32.066406 26.140625 32.1875 25.628906 31.996094 25.195312 C 31.992188 25.1875 31.988281 25.179688 31.984375 25.171875 C 31.984375 25.167969 31.980469 25.167969 31.980469 25.164062 C 31.941406 25.085938 31.902344 25.027344 31.863281 24.976562 C 31.589844 24.640625 31.152344 24.511719 30.761719 24.621094 C 30.75 24.625 30.734375 24.628906 30.722656 24.632812 C 30.605469 24.671875 30.492188 24.730469 30.390625 24.8125 L 27.03125 27.507812 C 26.605469 27.847656 26.371094 28.296875 26.332031 28.835938 L 26.082031 32.324219 L 30.617188 32.660156 C 30.664062 32.050781 30.945312 31.527344 31.429688 31.148438 L 34.0625 29.101562 C 34.464844 28.785156 34.699219 28.375 34.773438 27.839844 L 35.941406 19.578125 C 35.980469 19.3125 35.910156 19.046875 35.742188 18.824219 Z M 35.742188 18.828125 " fill-opacity="1" fill-rule="nonzero"/></g></svg>
