<svg xmlns="http://www.w3.org/2000/svg" xmlns:xlink="http://www.w3.org/1999/xlink" width="40" zoomAndPan="magnify" viewBox="0 0 30 30.000001" height="40" preserveAspectRatio="xMidYMid meet" version="1.0"><defs><clipPath id="89ea1d7171"><path d="M 0.484375 0 L 29.515625 0 L 29.515625 29.03125 L 0.484375 29.03125 Z M 0.484375 0 " clip-rule="nonzero"/></clipPath><clipPath id="244fa1b557"><path d="M 14 24 L 17 24 L 17 26.855469 L 14 26.855469 Z M 14 24 " clip-rule="nonzero"/></clipPath><clipPath id="c63dec3f3f"><path d="M 25 13 L 27.339844 13 L 27.339844 16 L 25 16 Z M 25 13 " clip-rule="nonzero"/></clipPath><clipPath id="a880f657fe"><path d="M 3.386719 13 L 6 13 L 6 16 L 3.386719 16 Z M 3.386719 13 " clip-rule="nonzero"/></clipPath><clipPath id="2b2df01964"><path d="M 3.386719 5 L 6 5 L 6 8 L 3.386719 8 Z M 3.386719 5 " clip-rule="nonzero"/></clipPath><clipPath id="18f0316ecc"><path d="M 25 5 L 27.339844 5 L 27.339844 8 L 25 8 Z M 25 5 " clip-rule="nonzero"/></clipPath><clipPath id="ee57e75586"><path d="M 25 22 L 27.339844 22 L 27.339844 25 L 25 25 Z M 25 22 " clip-rule="nonzero"/></clipPath><clipPath id="fd91b5b68b"><path d="M 3.386719 22 L 6 22 L 6 25 L 3.386719 25 Z M 3.386719 22 " clip-rule="nonzero"/></clipPath></defs><g clip-path="url(#89ea1d7171)"><path fill="#ffffff" d="M 0.484375 0 L 29.515625 0 L 29.515625 29.03125 L 0.484375 29.03125 Z M 0.484375 0 " fill-opacity="1" fill-rule="nonzero"/><path fill="#01222c" d="M 0.484375 0 L 29.515625 0 L 29.515625 29.03125 L 0.484375 29.03125 Z M 0.484375 0 " fill-opacity="1" fill-rule="nonzero"/></g><path fill="#ffffff" d="M 15.894531 21.910156 L 14.761719 21.910156 C 14.691406 21.910156 14.609375 21.871094 14.566406 21.828125 L 13.949219 21.210938 C 13.894531 21.15625 13.863281 21.085938 13.863281 21.015625 L 13.863281 20.019531 C 13.457031 19.910156 13.066406 19.742188 12.703125 19.542969 L 12.003906 20.230469 C 11.945312 20.285156 11.875 20.316406 11.804688 20.316406 L 10.9375 20.316406 C 10.851562 20.316406 10.785156 20.285156 10.726562 20.230469 L 9.929688 19.433594 C 9.871094 19.375 9.84375 19.304688 9.84375 19.238281 L 9.84375 18.367188 C 9.84375 18.296875 9.871094 18.214844 9.929688 18.171875 L 10.628906 17.472656 C 10.417969 17.105469 10.265625 16.714844 10.152344 16.308594 L 9.160156 16.308594 C 9.089844 16.308594 9.019531 16.28125 8.960938 16.226562 L 8.347656 15.609375 C 8.289062 15.550781 8.261719 15.480469 8.261719 15.414062 L 8.261719 14.277344 C 8.261719 14.207031 8.289062 14.125 8.347656 14.082031 L 8.960938 13.464844 C 9.019531 13.410156 9.089844 13.382812 9.160156 13.382812 L 10.152344 13.382812 C 10.265625 12.976562 10.417969 12.582031 10.628906 12.21875 L 9.929688 11.519531 C 9.871094 11.460938 9.84375 11.390625 9.84375 11.320312 L 9.84375 10.453125 C 9.84375 10.371094 9.871094 10.300781 9.929688 10.242188 L 10.726562 9.445312 C 10.785156 9.390625 10.851562 9.359375 10.9375 9.359375 L 11.804688 9.359375 C 11.875 9.359375 11.945312 9.390625 12.003906 9.445312 L 12.703125 10.144531 C 13.066406 9.933594 13.457031 9.78125 13.863281 9.667969 L 13.863281 8.675781 C 13.863281 8.605469 13.894531 8.535156 13.949219 8.476562 L 14.566406 7.863281 C 14.609375 7.804688 14.691406 7.777344 14.761719 7.777344 L 15.894531 7.777344 C 15.964844 7.777344 16.035156 7.804688 16.09375 7.863281 L 16.707031 8.476562 C 16.765625 8.535156 16.792969 8.605469 16.792969 8.675781 L 16.792969 9.667969 C 17.199219 9.78125 17.589844 9.933594 17.957031 10.144531 L 18.65625 9.445312 C 18.699219 9.390625 18.78125 9.359375 18.851562 9.359375 L 19.71875 9.359375 C 19.789062 9.359375 19.859375 9.390625 19.917969 9.445312 L 20.730469 10.242188 C 20.769531 10.300781 20.800781 10.371094 20.800781 10.453125 L 20.800781 11.320312 C 20.800781 11.390625 20.769531 11.460938 20.730469 11.519531 L 20.027344 12.21875 C 20.226562 12.582031 20.394531 12.976562 20.503906 13.382812 L 21.5 13.382812 C 21.570312 13.382812 21.640625 13.410156 21.695312 13.464844 L 22.3125 14.082031 C 22.355469 14.125 22.394531 14.207031 22.394531 14.277344 L 22.394531 15.414062 C 22.394531 15.480469 22.355469 15.550781 22.3125 15.609375 L 21.695312 16.226562 C 21.640625 16.28125 21.570312 16.308594 21.5 16.308594 L 20.503906 16.308594 C 20.394531 16.714844 20.226562 17.105469 20.027344 17.472656 L 20.730469 18.171875 C 20.769531 18.214844 20.800781 18.296875 20.800781 18.367188 L 20.800781 19.238281 C 20.800781 19.304688 20.769531 19.375 20.730469 19.433594 L 19.917969 20.246094 C 19.859375 20.285156 19.789062 20.316406 19.71875 20.316406 L 18.851562 20.316406 C 18.78125 20.316406 18.699219 20.285156 18.65625 20.230469 L 17.957031 19.542969 C 17.589844 19.742188 17.199219 19.910156 16.792969 20.019531 L 16.792969 21.015625 C 16.792969 21.085938 16.765625 21.15625 16.707031 21.210938 L 16.09375 21.828125 C 16.035156 21.871094 15.964844 21.910156 15.894531 21.910156 Z M 14.875 21.351562 L 15.785156 21.351562 L 16.230469 20.890625 L 16.230469 19.8125 C 16.230469 19.671875 16.316406 19.558594 16.441406 19.53125 C 16.945312 19.417969 17.421875 19.222656 17.855469 18.957031 C 17.957031 18.886719 18.109375 18.898438 18.195312 19 L 18.964844 19.753906 L 19.609375 19.753906 L 20.238281 19.125 L 20.238281 18.480469 L 19.46875 17.710938 C 19.382812 17.625 19.371094 17.472656 19.441406 17.375 C 19.707031 16.925781 19.902344 16.464844 20.015625 15.957031 C 20.042969 15.832031 20.15625 15.75 20.292969 15.75 L 21.375 15.75 L 21.835938 15.300781 L 21.835938 14.390625 L 21.375 13.941406 L 20.292969 13.941406 C 20.15625 13.941406 20.042969 13.84375 20.015625 13.71875 C 19.902344 13.226562 19.707031 12.75 19.441406 12.316406 C 19.371094 12.203125 19.382812 12.0625 19.480469 11.964844 L 20.238281 11.210938 L 20.238281 10.566406 L 19.609375 9.921875 L 18.964844 9.921875 L 18.195312 10.691406 C 18.109375 10.789062 17.957031 10.804688 17.855469 10.734375 C 17.410156 10.46875 16.945312 10.269531 16.441406 10.144531 C 16.316406 10.117188 16.230469 10.003906 16.230469 9.878906 L 16.230469 8.785156 L 15.785156 8.339844 L 14.875 8.339844 L 14.425781 8.785156 L 14.425781 9.878906 C 14.425781 10.003906 14.328125 10.117188 14.203125 10.144531 C 13.710938 10.269531 13.234375 10.46875 12.800781 10.734375 C 12.6875 10.804688 12.546875 10.789062 12.449219 10.691406 L 11.695312 9.921875 L 11.050781 9.921875 L 10.40625 10.566406 L 10.40625 11.210938 L 11.175781 11.964844 C 11.273438 12.0625 11.289062 12.203125 11.21875 12.316406 C 10.953125 12.75 10.753906 13.226562 10.628906 13.71875 C 10.601562 13.84375 10.488281 13.941406 10.363281 13.941406 L 9.269531 13.941406 L 8.820312 14.390625 L 8.820312 15.300781 L 9.269531 15.75 L 10.363281 15.75 C 10.488281 15.75 10.601562 15.832031 10.628906 15.957031 C 10.753906 16.464844 10.953125 16.925781 11.21875 17.375 C 11.289062 17.472656 11.273438 17.625 11.175781 17.710938 L 10.40625 18.480469 L 10.40625 19.125 L 11.050781 19.753906 L 11.695312 19.753906 L 12.449219 18.984375 C 12.546875 18.898438 12.6875 18.886719 12.800781 18.957031 C 13.234375 19.222656 13.710938 19.417969 14.203125 19.53125 C 14.328125 19.558594 14.425781 19.671875 14.425781 19.8125 L 14.425781 20.890625 Z M 14.875 21.351562 " fill-opacity="1" fill-rule="evenodd"/><path fill="#ffffff" d="M 15.320312 18.761719 C 13.164062 18.761719 11.398438 17.007812 11.398438 14.839844 C 11.398438 12.679688 13.164062 10.914062 15.320312 10.914062 C 17.492188 10.914062 19.242188 12.679688 19.242188 14.839844 C 19.242188 17.007812 17.492188 18.761719 15.320312 18.761719 Z M 15.320312 11.476562 C 13.472656 11.476562 11.960938 12.988281 11.960938 14.839844 C 11.960938 16.699219 13.472656 18.199219 15.320312 18.199219 C 17.183594 18.199219 18.683594 16.699219 18.683594 14.839844 C 18.683594 12.988281 17.183594 11.476562 15.320312 11.476562 Z M 15.320312 11.476562 " fill-opacity="1" fill-rule="evenodd"/><path fill="#ffffff" d="M 15.433594 9.332031 L 15.222656 9.332031 C 15.070312 9.332031 14.945312 9.207031 14.945312 9.050781 C 14.945312 8.898438 15.070312 8.773438 15.222656 8.773438 L 15.433594 8.773438 C 15.589844 8.773438 15.714844 8.898438 15.714844 9.050781 C 15.714844 9.207031 15.589844 9.332031 15.433594 9.332031 Z M 15.433594 9.332031 " fill-opacity="1" fill-rule="evenodd"/><path fill="#ffffff" d="M 19.496094 11.097656 C 19.425781 11.097656 19.355469 11.070312 19.300781 11.015625 L 19.144531 10.875 C 19.046875 10.761719 19.046875 10.578125 19.144531 10.480469 C 19.257812 10.371094 19.441406 10.371094 19.550781 10.480469 L 19.691406 10.621094 C 19.804688 10.734375 19.804688 10.902344 19.691406 11.015625 C 19.636719 11.070312 19.566406 11.097656 19.496094 11.097656 Z M 19.496094 11.097656 " fill-opacity="1" fill-rule="evenodd"/><path fill="#ffffff" d="M 21.121094 15.230469 C 20.96875 15.230469 20.839844 15.105469 20.839844 14.949219 L 20.839844 14.738281 C 20.839844 14.585938 20.96875 14.460938 21.121094 14.460938 C 21.273438 14.460938 21.402344 14.585938 21.402344 14.738281 L 21.402344 14.949219 C 21.402344 15.105469 21.273438 15.230469 21.121094 15.230469 Z M 21.121094 15.230469 " fill-opacity="1" fill-rule="evenodd"/><path fill="#ffffff" d="M 19.355469 19.292969 C 19.273438 19.292969 19.203125 19.265625 19.144531 19.207031 C 19.046875 19.097656 19.046875 18.929688 19.144531 18.816406 L 19.300781 18.664062 C 19.414062 18.5625 19.582031 18.5625 19.691406 18.664062 C 19.804688 18.773438 19.804688 18.957031 19.691406 19.070312 L 19.550781 19.207031 C 19.496094 19.265625 19.425781 19.292969 19.355469 19.292969 Z M 19.355469 19.292969 " fill-opacity="1" fill-rule="evenodd"/><path fill="#ffffff" d="M 15.433594 20.917969 L 15.222656 20.917969 C 15.070312 20.917969 14.945312 20.792969 14.945312 20.636719 C 14.945312 20.484375 15.070312 20.355469 15.222656 20.355469 L 15.433594 20.355469 C 15.589844 20.355469 15.714844 20.484375 15.714844 20.636719 C 15.714844 20.792969 15.589844 20.917969 15.433594 20.917969 Z M 15.433594 20.917969 " fill-opacity="1" fill-rule="evenodd"/><path fill="#ffffff" d="M 11.300781 19.292969 C 11.230469 19.292969 11.160156 19.265625 11.105469 19.207031 L 10.964844 19.070312 C 10.851562 18.957031 10.851562 18.773438 10.964844 18.664062 C 11.0625 18.5625 11.246094 18.5625 11.359375 18.664062 L 11.496094 18.816406 C 11.609375 18.929688 11.609375 19.097656 11.496094 19.207031 C 11.441406 19.265625 11.371094 19.292969 11.300781 19.292969 Z M 11.300781 19.292969 " fill-opacity="1" fill-rule="evenodd"/><path fill="#ffffff" d="M 9.535156 15.230469 C 9.382812 15.230469 9.257812 15.105469 9.257812 14.949219 L 9.257812 14.738281 C 9.257812 14.585938 9.382812 14.460938 9.535156 14.460938 C 9.691406 14.460938 9.816406 14.585938 9.816406 14.738281 L 9.816406 14.949219 C 9.816406 15.105469 9.691406 15.230469 9.535156 15.230469 Z M 9.535156 15.230469 " fill-opacity="1" fill-rule="evenodd"/><path fill="#ffffff" d="M 11.160156 11.097656 C 11.089844 11.097656 11.007812 11.070312 10.964844 11.015625 C 10.851562 10.902344 10.851562 10.734375 10.964844 10.621094 L 11.105469 10.480469 C 11.21875 10.371094 11.386719 10.371094 11.496094 10.480469 C 11.609375 10.578125 11.609375 10.761719 11.496094 10.875 L 11.359375 11.015625 C 11.300781 11.070312 11.230469 11.097656 11.160156 11.097656 Z M 11.160156 11.097656 " fill-opacity="1" fill-rule="evenodd"/><path fill="#ffffff" d="M 15.320312 23.675781 C 10.460938 23.675781 6.496094 19.710938 6.496094 14.839844 C 6.496094 9.976562 10.460938 6.011719 15.320312 6.011719 C 20.195312 6.011719 24.160156 9.976562 24.160156 14.839844 C 24.160156 19.710938 20.195312 23.675781 15.320312 23.675781 Z M 15.320312 6.574219 C 10.769531 6.574219 7.058594 10.285156 7.058594 14.839844 C 7.058594 19.40625 10.769531 23.117188 15.320312 23.117188 C 19.886719 23.117188 23.601562 19.40625 23.601562 14.839844 C 23.601562 10.285156 19.886719 6.574219 15.320312 6.574219 Z M 15.320312 6.574219 " fill-opacity="1" fill-rule="evenodd"/><path fill="#ffffff" d="M 15.320312 6.574219 C 15.167969 6.574219 15.042969 6.445312 15.042969 6.292969 L 15.042969 4.78125 C 15.042969 4.625 15.167969 4.5 15.320312 4.5 C 15.476562 4.5 15.601562 4.625 15.601562 4.78125 L 15.601562 6.292969 C 15.601562 6.445312 15.476562 6.574219 15.320312 6.574219 Z M 15.320312 6.574219 " fill-opacity="1" fill-rule="evenodd"/><path fill="#ffffff" d="M 15.320312 5.058594 C 14.777344 5.058594 14.328125 4.613281 14.328125 4.066406 C 14.328125 3.519531 14.777344 3.070312 15.320312 3.070312 C 15.882812 3.070312 16.316406 3.519531 16.316406 4.066406 C 16.316406 4.613281 15.882812 5.058594 15.320312 5.058594 Z M 15.320312 3.632812 C 15.082031 3.632812 14.886719 3.828125 14.886719 4.066406 C 14.886719 4.304688 15.082031 4.5 15.320312 4.5 C 15.574219 4.5 15.769531 4.304688 15.769531 4.066406 C 15.769531 3.828125 15.574219 3.632812 15.320312 3.632812 Z M 15.320312 3.632812 " fill-opacity="1" fill-rule="evenodd"/><path fill="#ffffff" d="M 15.320312 25.175781 C 15.167969 25.175781 15.042969 25.0625 15.042969 24.894531 L 15.042969 23.398438 C 15.042969 23.242188 15.167969 23.117188 15.320312 23.117188 C 15.476562 23.117188 15.601562 23.242188 15.601562 23.398438 L 15.601562 24.894531 C 15.601562 25.0625 15.476562 25.175781 15.320312 25.175781 Z M 15.320312 25.175781 " fill-opacity="1" fill-rule="evenodd"/><g clip-path="url(#244fa1b557)"><path fill="#ffffff" d="M 15.320312 26.617188 C 14.777344 26.617188 14.328125 26.171875 14.328125 25.625 C 14.328125 25.0625 14.777344 24.617188 15.320312 24.617188 C 15.882812 24.617188 16.316406 25.0625 16.316406 25.625 C 16.316406 26.171875 15.882812 26.617188 15.320312 26.617188 Z M 15.320312 25.175781 C 15.082031 25.175781 14.886719 25.371094 14.886719 25.625 C 14.886719 25.863281 15.082031 26.058594 15.320312 26.058594 C 15.574219 26.058594 15.769531 25.863281 15.769531 25.625 C 15.769531 25.371094 15.574219 25.175781 15.320312 25.175781 Z M 15.320312 25.175781 " fill-opacity="1" fill-rule="evenodd"/></g><path fill="#ffffff" d="M 25.378906 15.117188 L 23.878906 15.117188 C 23.726562 15.117188 23.601562 14.992188 23.601562 14.839844 C 23.601562 14.683594 23.726562 14.558594 23.878906 14.558594 L 25.378906 14.558594 C 25.546875 14.558594 25.660156 14.683594 25.660156 14.839844 C 25.660156 14.992188 25.546875 15.117188 25.378906 15.117188 Z M 25.378906 15.117188 " fill-opacity="1" fill-rule="evenodd"/><g clip-path="url(#c63dec3f3f)"><path fill="#ffffff" d="M 26.109375 15.832031 C 25.546875 15.832031 25.097656 15.398438 25.097656 14.839844 C 25.097656 14.292969 25.546875 13.84375 26.109375 13.84375 C 26.65625 13.84375 27.101562 14.292969 27.101562 14.839844 C 27.101562 15.398438 26.65625 15.832031 26.109375 15.832031 Z M 26.109375 14.402344 C 25.855469 14.402344 25.660156 14.601562 25.660156 14.839844 C 25.660156 15.089844 25.855469 15.273438 26.109375 15.273438 C 26.347656 15.273438 26.542969 15.089844 26.542969 14.839844 C 26.542969 14.601562 26.347656 14.402344 26.109375 14.402344 Z M 26.109375 14.402344 " fill-opacity="1" fill-rule="evenodd"/></g><path fill="#ffffff" d="M 6.777344 15.117188 L 5.265625 15.117188 C 5.109375 15.117188 4.984375 14.992188 4.984375 14.839844 C 4.984375 14.683594 5.109375 14.558594 5.265625 14.558594 L 6.777344 14.558594 C 6.929688 14.558594 7.058594 14.683594 7.058594 14.839844 C 7.058594 14.992188 6.929688 15.117188 6.777344 15.117188 Z M 6.777344 15.117188 " fill-opacity="1" fill-rule="evenodd"/><g clip-path="url(#a880f657fe)"><path fill="#ffffff" d="M 4.550781 15.832031 C 4.003906 15.832031 3.554688 15.398438 3.554688 14.839844 C 3.554688 14.292969 4.003906 13.84375 4.550781 13.84375 C 5.097656 13.84375 5.542969 14.292969 5.542969 14.839844 C 5.542969 15.398438 5.097656 15.832031 4.550781 15.832031 Z M 4.550781 14.402344 C 4.3125 14.402344 4.117188 14.601562 4.117188 14.839844 C 4.117188 15.089844 4.3125 15.273438 4.550781 15.273438 C 4.789062 15.273438 4.984375 15.089844 4.984375 14.839844 C 4.984375 14.601562 4.789062 14.402344 4.550781 14.402344 Z M 4.550781 14.402344 " fill-opacity="1" fill-rule="evenodd"/></g><path fill="#ffffff" d="M 9.285156 9.066406 C 9.199219 9.066406 9.128906 9.050781 9.074219 8.996094 L 6.75 6.65625 L 5.097656 6.65625 C 4.941406 6.65625 4.816406 6.53125 4.816406 6.378906 C 4.816406 6.222656 4.941406 6.097656 5.097656 6.097656 L 6.859375 6.097656 C 6.945312 6.097656 7.015625 6.140625 7.070312 6.179688 L 9.480469 8.589844 C 9.578125 8.703125 9.578125 8.882812 9.480469 8.996094 C 9.425781 9.050781 9.355469 9.066406 9.285156 9.066406 Z M 9.285156 9.066406 " fill-opacity="1" fill-rule="evenodd"/><path fill="#ffffff" d="M 11.554688 7.441406 C 11.457031 7.441406 11.359375 7.398438 11.300781 7.300781 L 10.460938 5.859375 C 10.390625 5.71875 10.433594 5.550781 10.574219 5.464844 C 10.699219 5.398438 10.882812 5.4375 10.953125 5.578125 L 11.792969 7.023438 C 11.863281 7.160156 11.820312 7.328125 11.695312 7.414062 C 11.652344 7.429688 11.597656 7.441406 11.554688 7.441406 Z M 11.554688 7.441406 " fill-opacity="1" fill-rule="evenodd"/><path fill="#ffffff" d="M 10.433594 6.070312 C 10.140625 6.070312 9.859375 5.902344 9.703125 5.648438 C 9.59375 5.453125 9.566406 5.230469 9.621094 5.019531 C 9.675781 4.792969 9.816406 4.613281 10.011719 4.5 C 10.140625 4.429688 10.277344 4.386719 10.433594 4.386719 C 10.726562 4.386719 11.007812 4.554688 11.160156 4.808594 C 11.386719 5.214844 11.246094 5.71875 10.851562 5.957031 C 10.726562 6.027344 10.574219 6.070312 10.433594 6.070312 Z M 10.433594 4.949219 C 10.378906 4.949219 10.335938 4.960938 10.292969 4.992188 C 10.222656 5.03125 10.179688 5.089844 10.167969 5.160156 C 10.140625 5.230469 10.152344 5.296875 10.195312 5.367188 C 10.265625 5.496094 10.445312 5.550781 10.574219 5.464844 C 10.699219 5.398438 10.742188 5.230469 10.671875 5.089844 C 10.613281 5.003906 10.53125 4.949219 10.433594 4.949219 Z M 10.433594 4.949219 " fill-opacity="1" fill-rule="evenodd"/><path fill="#ffffff" d="M 19.105469 7.441406 C 19.0625 7.441406 19.007812 7.429688 18.964844 7.414062 C 18.824219 7.328125 18.78125 7.160156 18.867188 7.023438 L 19.707031 5.578125 C 19.777344 5.4375 19.945312 5.398438 20.085938 5.464844 C 20.210938 5.550781 20.265625 5.71875 20.183594 5.859375 L 19.34375 7.300781 C 19.300781 7.398438 19.203125 7.441406 19.105469 7.441406 Z M 19.105469 7.441406 " fill-opacity="1" fill-rule="evenodd"/><path fill="#ffffff" d="M 20.226562 6.070312 C 20.070312 6.070312 19.929688 6.027344 19.804688 5.957031 C 19.398438 5.71875 19.273438 5.214844 19.496094 4.808594 C 19.648438 4.554688 19.929688 4.386719 20.226562 4.386719 C 20.363281 4.386719 20.519531 4.429688 20.644531 4.5 C 20.828125 4.613281 20.96875 4.792969 21.023438 5.019531 C 21.09375 5.230469 21.050781 5.453125 20.953125 5.648438 C 20.800781 5.902344 20.519531 6.070312 20.226562 6.070312 Z M 20.226562 4.949219 C 20.125 4.949219 20.027344 5.003906 19.988281 5.089844 C 19.902344 5.230469 19.945312 5.398438 20.085938 5.464844 C 20.210938 5.550781 20.394531 5.496094 20.460938 5.367188 C 20.503906 5.296875 20.503906 5.230469 20.492188 5.160156 C 20.476562 5.089844 20.421875 5.03125 20.363281 4.992188 C 20.324219 4.960938 20.265625 4.949219 20.226562 4.949219 Z M 20.226562 4.949219 " fill-opacity="1" fill-rule="evenodd"/><path fill="#ffffff" d="M 10.714844 24.25 C 10.65625 24.25 10.613281 24.238281 10.574219 24.210938 C 10.433594 24.140625 10.390625 23.972656 10.460938 23.832031 L 11.300781 22.375 C 11.386719 22.25 11.554688 22.207031 11.695312 22.277344 C 11.820312 22.359375 11.863281 22.527344 11.792969 22.65625 L 10.953125 24.109375 C 10.894531 24.210938 10.8125 24.25 10.714844 24.25 Z M 10.714844 24.25 " fill-opacity="1" fill-rule="evenodd"/><path fill="#ffffff" d="M 10.433594 25.289062 C 10.277344 25.289062 10.140625 25.246094 10.011719 25.175781 C 9.605469 24.953125 9.480469 24.433594 9.703125 24.042969 C 9.859375 23.773438 10.140625 23.621094 10.433594 23.621094 C 10.574219 23.621094 10.726562 23.664062 10.851562 23.734375 C 11.050781 23.84375 11.175781 24.027344 11.246094 24.238281 C 11.300781 24.449219 11.273438 24.6875 11.160156 24.867188 C 11.007812 25.132812 10.726562 25.289062 10.433594 25.289062 Z M 10.433594 24.179688 C 10.335938 24.179688 10.238281 24.238281 10.195312 24.320312 C 10.109375 24.449219 10.167969 24.617188 10.292969 24.699219 C 10.417969 24.769531 10.601562 24.714844 10.671875 24.585938 C 10.714844 24.53125 10.714844 24.460938 10.699219 24.378906 C 10.683594 24.308594 10.628906 24.25 10.574219 24.210938 C 10.53125 24.195312 10.476562 24.179688 10.433594 24.179688 Z M 10.433594 24.179688 " fill-opacity="1" fill-rule="evenodd"/><path fill="#ffffff" d="M 19.945312 24.25 C 19.847656 24.25 19.75 24.210938 19.707031 24.109375 L 18.867188 22.65625 C 18.78125 22.527344 18.824219 22.359375 18.964844 22.277344 C 19.105469 22.207031 19.273438 22.25 19.34375 22.375 L 20.183594 23.832031 C 20.265625 23.972656 20.210938 24.140625 20.085938 24.210938 C 20.042969 24.238281 19.988281 24.25 19.945312 24.25 Z M 19.945312 24.25 " fill-opacity="1" fill-rule="evenodd"/><path fill="#ffffff" d="M 20.226562 25.289062 C 19.929688 25.289062 19.648438 25.132812 19.496094 24.867188 C 19.273438 24.476562 19.398438 23.957031 19.804688 23.734375 C 19.929688 23.664062 20.070312 23.621094 20.226562 23.621094 C 20.519531 23.621094 20.800781 23.773438 20.953125 24.042969 C 21.050781 24.222656 21.09375 24.460938 21.023438 24.671875 C 20.96875 24.882812 20.828125 25.0625 20.644531 25.175781 C 20.519531 25.246094 20.363281 25.289062 20.226562 25.289062 Z M 20.226562 24.179688 C 20.167969 24.179688 20.125 24.195312 20.085938 24.210938 C 20.015625 24.25 19.972656 24.308594 19.957031 24.378906 C 19.929688 24.460938 19.945312 24.53125 19.988281 24.585938 C 20.054688 24.714844 20.226562 24.769531 20.363281 24.699219 C 20.421875 24.65625 20.460938 24.601562 20.492188 24.53125 C 20.503906 24.460938 20.503906 24.378906 20.460938 24.320312 C 20.40625 24.238281 20.324219 24.179688 20.226562 24.179688 Z M 20.226562 24.179688 " fill-opacity="1" fill-rule="evenodd"/><g clip-path="url(#2b2df01964)"><path fill="#ffffff" d="M 4.382812 7.386719 C 3.835938 7.386719 3.386719 6.9375 3.386719 6.378906 C 3.386719 5.832031 3.835938 5.382812 4.382812 5.382812 C 4.929688 5.382812 5.375 5.832031 5.375 6.378906 C 5.375 6.9375 4.929688 7.386719 4.382812 7.386719 Z M 4.382812 5.941406 C 4.144531 5.941406 3.949219 6.140625 3.949219 6.378906 C 3.949219 6.628906 4.144531 6.824219 4.382812 6.824219 C 4.621094 6.824219 4.816406 6.628906 4.816406 6.378906 C 4.816406 6.140625 4.621094 5.941406 4.382812 5.941406 Z M 4.382812 5.941406 " fill-opacity="1" fill-rule="evenodd"/></g><path fill="#ffffff" d="M 21.375 9.066406 C 21.304688 9.066406 21.234375 9.050781 21.175781 8.996094 C 21.066406 8.882812 21.066406 8.703125 21.175781 8.589844 L 23.585938 6.179688 C 23.644531 6.140625 23.710938 6.097656 23.78125 6.097656 L 25.5625 6.097656 C 25.714844 6.097656 25.84375 6.222656 25.84375 6.378906 C 25.84375 6.53125 25.714844 6.65625 25.5625 6.65625 L 23.910156 6.65625 L 21.570312 8.996094 C 21.511719 9.050781 21.441406 9.066406 21.375 9.066406 Z M 21.375 9.066406 " fill-opacity="1" fill-rule="evenodd"/><g clip-path="url(#18f0316ecc)"><path fill="#ffffff" d="M 26.277344 7.386719 C 25.730469 7.386719 25.28125 6.9375 25.28125 6.378906 C 25.28125 5.832031 25.730469 5.382812 26.277344 5.382812 C 26.824219 5.382812 27.269531 5.832031 27.269531 6.378906 C 27.269531 6.9375 26.824219 7.386719 26.277344 7.386719 Z M 26.277344 5.941406 C 26.039062 5.941406 25.84375 6.140625 25.84375 6.378906 C 25.84375 6.628906 26.039062 6.824219 26.277344 6.824219 C 26.515625 6.824219 26.710938 6.628906 26.710938 6.378906 C 26.710938 6.140625 26.515625 5.941406 26.277344 5.941406 Z M 26.277344 5.941406 " fill-opacity="1" fill-rule="evenodd"/></g><path fill="#ffffff" d="M 25.5625 23.578125 L 23.78125 23.578125 C 23.710938 23.578125 23.644531 23.550781 23.585938 23.496094 L 21.175781 21.085938 C 21.066406 20.972656 21.066406 20.804688 21.175781 20.691406 C 21.289062 20.582031 21.457031 20.582031 21.570312 20.691406 L 23.910156 23.019531 L 25.5625 23.019531 C 25.714844 23.019531 25.84375 23.144531 25.84375 23.296875 C 25.84375 23.453125 25.714844 23.578125 25.5625 23.578125 Z M 25.5625 23.578125 " fill-opacity="1" fill-rule="evenodd"/><g clip-path="url(#ee57e75586)"><path fill="#ffffff" d="M 26.277344 24.292969 C 25.730469 24.292969 25.28125 23.84375 25.28125 23.296875 C 25.28125 22.753906 25.730469 22.304688 26.277344 22.304688 C 26.824219 22.304688 27.269531 22.753906 27.269531 23.296875 C 27.269531 23.84375 26.824219 24.292969 26.277344 24.292969 Z M 26.277344 22.863281 C 26.039062 22.863281 25.84375 23.0625 25.84375 23.296875 C 25.84375 23.535156 26.039062 23.734375 26.277344 23.734375 C 26.515625 23.734375 26.710938 23.535156 26.710938 23.296875 C 26.710938 23.0625 26.515625 22.863281 26.277344 22.863281 Z M 26.277344 22.863281 " fill-opacity="1" fill-rule="evenodd"/></g><path fill="#ffffff" d="M 6.859375 23.578125 L 5.097656 23.578125 C 4.941406 23.578125 4.816406 23.453125 4.816406 23.296875 C 4.816406 23.144531 4.941406 23.019531 5.097656 23.019531 L 6.75 23.019531 L 9.074219 20.691406 C 9.1875 20.582031 9.367188 20.582031 9.480469 20.691406 C 9.578125 20.804688 9.578125 20.972656 9.480469 21.085938 L 7.070312 23.496094 C 7.015625 23.550781 6.945312 23.578125 6.859375 23.578125 Z M 6.859375 23.578125 " fill-opacity="1" fill-rule="evenodd"/><g clip-path="url(#fd91b5b68b)"><path fill="#ffffff" d="M 4.382812 24.292969 C 3.835938 24.292969 3.386719 23.84375 3.386719 23.296875 C 3.386719 22.753906 3.835938 22.304688 4.382812 22.304688 C 4.929688 22.304688 5.375 22.753906 5.375 23.296875 C 5.375 23.84375 4.929688 24.292969 4.382812 24.292969 Z M 4.382812 22.863281 C 4.144531 22.863281 3.949219 23.0625 3.949219 23.296875 C 3.949219 23.535156 4.144531 23.734375 4.382812 23.734375 C 4.621094 23.734375 4.816406 23.535156 4.816406 23.296875 C 4.816406 23.0625 4.621094 22.863281 4.382812 22.863281 Z M 4.382812 22.863281 " fill-opacity="1" fill-rule="evenodd"/></g><path fill="#ffffff" d="M 23.125 11.601562 C 23.011719 11.601562 22.898438 11.53125 22.859375 11.40625 C 22.816406 11.265625 22.886719 11.113281 23.039062 11.054688 L 24.707031 10.507812 C 24.847656 10.453125 25 10.539062 25.058594 10.675781 C 25.097656 10.832031 25.03125 10.984375 24.875 11.027344 L 23.207031 11.589844 C 23.179688 11.601562 23.152344 11.601562 23.125 11.601562 Z M 23.125 11.601562 " fill-opacity="1" fill-rule="evenodd"/><path fill="#ffffff" d="M 25.324219 11.421875 C 24.960938 11.421875 24.652344 11.195312 24.523438 10.859375 C 24.371094 10.425781 24.609375 9.949219 25.042969 9.796875 C 25.128906 9.765625 25.226562 9.753906 25.308594 9.753906 C 25.671875 9.753906 25.980469 9.976562 26.109375 10.300781 C 26.261719 10.734375 26.023438 11.222656 25.589844 11.378906 C 25.503906 11.40625 25.40625 11.421875 25.324219 11.421875 Z M 25.308594 10.300781 C 25.28125 10.300781 25.253906 10.3125 25.226562 10.328125 C 25.085938 10.371094 25 10.539062 25.058594 10.675781 C 25.097656 10.816406 25.265625 10.886719 25.40625 10.847656 C 25.546875 10.789062 25.632812 10.636719 25.574219 10.496094 C 25.535156 10.382812 25.4375 10.300781 25.308594 10.300781 Z M 25.308594 10.300781 " fill-opacity="1" fill-rule="evenodd"/><path fill="#ffffff" d="M 7.535156 11.601562 C 7.492188 11.601562 7.464844 11.601562 7.433594 11.589844 L 5.769531 11.027344 C 5.628906 10.984375 5.542969 10.832031 5.601562 10.675781 C 5.640625 10.539062 5.808594 10.453125 5.949219 10.507812 L 7.617188 11.054688 C 7.757812 11.113281 7.839844 11.265625 7.785156 11.40625 C 7.757812 11.53125 7.644531 11.601562 7.535156 11.601562 Z M 7.535156 11.601562 " fill-opacity="1" fill-rule="evenodd"/><path fill="#ffffff" d="M 5.335938 11.421875 C 5.234375 11.421875 5.152344 11.40625 5.054688 11.378906 C 4.621094 11.222656 4.394531 10.734375 4.550781 10.300781 C 4.660156 9.976562 4.984375 9.753906 5.335938 9.753906 C 5.433594 9.753906 5.53125 9.765625 5.613281 9.796875 C 6.046875 9.949219 6.273438 10.425781 6.117188 10.859375 C 6.007812 11.195312 5.683594 11.421875 5.335938 11.421875 Z M 5.335938 10.300781 C 5.222656 10.300781 5.109375 10.382812 5.082031 10.496094 C 5.027344 10.636719 5.097656 10.789062 5.25 10.847656 C 5.390625 10.886719 5.542969 10.816406 5.601562 10.675781 C 5.640625 10.539062 5.574219 10.371094 5.433594 10.328125 C 5.402344 10.3125 5.363281 10.300781 5.335938 10.300781 Z M 5.335938 10.300781 " fill-opacity="1" fill-rule="evenodd"/><path fill="#ffffff" d="M 24.792969 19.195312 C 24.761719 19.195312 24.734375 19.195312 24.707031 19.179688 L 23.039062 18.632812 C 22.886719 18.578125 22.816406 18.425781 22.859375 18.269531 C 22.914062 18.128906 23.066406 18.046875 23.207031 18.101562 L 24.875 18.648438 C 25.03125 18.703125 25.097656 18.859375 25.058594 19 C 25.015625 19.125 24.902344 19.195312 24.792969 19.195312 Z M 24.792969 19.195312 " fill-opacity="1" fill-rule="evenodd"/><path fill="#ffffff" d="M 25.308594 19.9375 C 25.226562 19.9375 25.128906 19.921875 25.042969 19.894531 C 24.609375 19.742188 24.371094 19.265625 24.523438 18.832031 C 24.652344 18.492188 24.960938 18.269531 25.324219 18.269531 C 25.40625 18.269531 25.503906 18.285156 25.589844 18.3125 C 26.023438 18.464844 26.261719 18.941406 26.109375 19.375 C 25.980469 19.710938 25.671875 19.9375 25.308594 19.9375 Z M 25.324219 18.832031 C 25.199219 18.832031 25.097656 18.898438 25.058594 19.011719 C 25 19.152344 25.085938 19.304688 25.226562 19.363281 C 25.367188 19.417969 25.535156 19.335938 25.574219 19.195312 C 25.632812 19.054688 25.546875 18.886719 25.40625 18.84375 C 25.378906 18.832031 25.351562 18.832031 25.324219 18.832031 Z M 25.324219 18.832031 " fill-opacity="1" fill-rule="evenodd"/><path fill="#ffffff" d="M 5.867188 19.195312 C 5.742188 19.195312 5.628906 19.125 5.601562 19 C 5.542969 18.859375 5.628906 18.703125 5.769531 18.648438 L 7.433594 18.101562 C 7.589844 18.046875 7.742188 18.128906 7.800781 18.269531 C 7.839844 18.425781 7.757812 18.578125 7.617188 18.632812 L 5.949219 19.179688 C 5.921875 19.195312 5.894531 19.195312 5.867188 19.195312 Z M 5.867188 19.195312 " fill-opacity="1" fill-rule="evenodd"/><path fill="#ffffff" d="M 5.335938 19.9375 C 4.984375 19.9375 4.660156 19.710938 4.550781 19.375 C 4.394531 18.941406 4.621094 18.464844 5.054688 18.3125 C 5.152344 18.285156 5.234375 18.269531 5.335938 18.269531 C 5.683594 18.269531 6.007812 18.492188 6.117188 18.832031 C 6.273438 19.265625 6.046875 19.742188 5.613281 19.894531 C 5.53125 19.921875 5.433594 19.9375 5.335938 19.9375 Z M 5.335938 18.832031 C 5.304688 18.832031 5.277344 18.832031 5.25 18.84375 C 5.097656 18.886719 5.027344 19.054688 5.082031 19.195312 C 5.125 19.335938 5.292969 19.417969 5.433594 19.363281 C 5.574219 19.304688 5.640625 19.152344 5.601562 19.011719 C 5.558594 18.898438 5.460938 18.832031 5.335938 18.832031 Z M 5.335938 18.832031 " fill-opacity="1" fill-rule="evenodd"/><path fill="#ffffff" d="M 13.347656 15.636719 C 13.207031 15.636719 13.050781 15.59375 12.925781 15.523438 C 12.660156 15.371094 12.492188 15.0625 12.519531 14.738281 C 12.519531 14.738281 12.519531 14.726562 12.519531 14.710938 C 12.535156 14.601562 12.5625 14.488281 12.617188 14.375 C 12.773438 14.125 13.050781 13.96875 13.347656 13.96875 C 13.5 13.96875 13.640625 13.996094 13.765625 14.082031 C 14.160156 14.304688 14.300781 14.824219 14.074219 15.214844 C 13.921875 15.480469 13.640625 15.636719 13.347656 15.636719 Z M 13.347656 14.53125 C 13.25 14.53125 13.164062 14.570312 13.109375 14.65625 C 13.09375 14.699219 13.082031 14.738281 13.066406 14.769531 C 13.066406 14.878906 13.121094 14.992188 13.207031 15.035156 C 13.332031 15.117188 13.515625 15.0625 13.585938 14.9375 C 13.667969 14.808594 13.613281 14.640625 13.488281 14.558594 C 13.445312 14.53125 13.402344 14.53125 13.347656 14.53125 Z M 13.347656 14.53125 " fill-opacity="1" fill-rule="evenodd"/><path fill="#ffffff" d="M 12.785156 15.035156 L 11.679688 15.035156 C 11.527344 15.035156 11.398438 14.90625 11.398438 14.753906 C 11.398438 14.601562 11.527344 14.472656 11.679688 14.472656 L 12.785156 14.472656 C 12.953125 14.472656 13.066406 14.601562 13.066406 14.753906 C 13.066406 14.90625 12.953125 15.035156 12.785156 15.035156 Z M 12.785156 15.035156 " fill-opacity="1" fill-rule="evenodd"/><path fill="#ffffff" d="M 15.28125 13.703125 C 15.140625 13.703125 15 13.660156 14.875 13.589844 C 14.46875 13.351562 14.328125 12.847656 14.566406 12.441406 C 14.71875 12.175781 15.027344 12.007812 15.351562 12.023438 C 15.351562 12.023438 15.363281 12.035156 15.363281 12.035156 C 15.488281 12.035156 15.601562 12.078125 15.699219 12.132812 C 15.894531 12.246094 16.035156 12.429688 16.09375 12.652344 C 16.148438 12.863281 16.121094 13.085938 16.007812 13.28125 C 15.855469 13.535156 15.589844 13.703125 15.28125 13.703125 Z M 15.28125 12.582031 C 15.183594 12.582031 15.097656 12.640625 15.042969 12.722656 C 14.972656 12.863281 15.015625 13.03125 15.152344 13.101562 C 15.28125 13.171875 15.449219 13.128906 15.519531 13.003906 C 15.558594 12.933594 15.574219 12.863281 15.546875 12.792969 C 15.53125 12.722656 15.488281 12.667969 15.421875 12.625 C 15.390625 12.597656 15.351562 12.597656 15.308594 12.582031 Z M 15.28125 12.582031 " fill-opacity="1" fill-rule="evenodd"/><path fill="#ffffff" d="M 15.320312 12.582031 C 15.167969 12.582031 15.042969 12.457031 15.042969 12.300781 L 15.042969 11.195312 C 15.042969 11.042969 15.167969 10.914062 15.320312 10.914062 C 15.476562 10.914062 15.601562 11.042969 15.601562 11.195312 L 15.601562 12.300781 C 15.601562 12.457031 15.476562 12.582031 15.320312 12.582031 Z M 15.320312 12.582031 " fill-opacity="1" fill-rule="evenodd"/><path fill="#ffffff" d="M 15.28125 17.652344 C 14.984375 17.652344 14.707031 17.5 14.566406 17.234375 C 14.453125 17.050781 14.425781 16.828125 14.480469 16.601562 C 14.539062 16.394531 14.675781 16.210938 14.875 16.097656 C 15 16.027344 15.140625 15.988281 15.28125 15.988281 C 15.589844 15.988281 15.855469 16.140625 16.007812 16.40625 C 16.121094 16.601562 16.148438 16.828125 16.09375 17.039062 C 16.035156 17.246094 15.894531 17.429688 15.699219 17.542969 C 15.601562 17.613281 15.488281 17.640625 15.378906 17.652344 C 15.363281 17.652344 15.351562 17.652344 15.351562 17.652344 C 15.320312 17.652344 15.308594 17.652344 15.28125 17.652344 Z M 15.28125 16.546875 C 15.238281 16.546875 15.195312 16.5625 15.152344 16.589844 C 15.082031 16.617188 15.042969 16.671875 15.015625 16.742188 C 15 16.828125 15.015625 16.898438 15.042969 16.953125 C 15.097656 17.050781 15.183594 17.09375 15.28125 17.09375 L 15.308594 17.09375 C 15.351562 17.09375 15.390625 17.078125 15.421875 17.066406 C 15.488281 17.023438 15.53125 16.96875 15.546875 16.898438 C 15.574219 16.828125 15.558594 16.742188 15.519531 16.6875 C 15.476562 16.601562 15.378906 16.546875 15.28125 16.546875 Z M 15.28125 16.546875 " fill-opacity="1" fill-rule="evenodd"/><path fill="#ffffff" d="M 15.320312 18.761719 C 15.167969 18.761719 15.042969 18.632812 15.042969 18.480469 L 15.042969 17.375 C 15.042969 17.21875 15.167969 17.09375 15.320312 17.09375 C 15.476562 17.09375 15.601562 17.21875 15.601562 17.375 L 15.601562 18.480469 C 15.601562 18.632812 15.476562 18.761719 15.320312 18.761719 Z M 15.320312 18.761719 " fill-opacity="1" fill-rule="evenodd"/><path fill="#ffffff" d="M 17.3125 15.71875 C 17.003906 15.71875 16.738281 15.566406 16.582031 15.300781 C 16.34375 14.90625 16.484375 14.390625 16.890625 14.164062 C 17.015625 14.082031 17.15625 14.054688 17.3125 14.054688 C 17.605469 14.054688 17.886719 14.207031 18.027344 14.460938 C 18.09375 14.570312 18.125 14.683594 18.136719 14.796875 C 18.136719 14.796875 18.136719 14.824219 18.136719 14.824219 C 18.164062 15.144531 17.996094 15.453125 17.71875 15.609375 C 17.589844 15.679688 17.449219 15.71875 17.3125 15.71875 Z M 17.3125 14.613281 C 17.253906 14.613281 17.214844 14.613281 17.171875 14.640625 C 17.03125 14.726562 16.988281 14.894531 17.074219 15.019531 C 17.144531 15.144531 17.3125 15.203125 17.4375 15.117188 C 17.535156 15.074219 17.589844 14.964844 17.578125 14.867188 C 17.578125 14.808594 17.5625 14.78125 17.550781 14.738281 C 17.492188 14.65625 17.410156 14.613281 17.3125 14.613281 Z M 17.3125 14.613281 " fill-opacity="1" fill-rule="evenodd"/><path fill="#ffffff" d="M 18.964844 15.117188 L 17.855469 15.117188 C 17.703125 15.117188 17.578125 14.992188 17.578125 14.839844 C 17.578125 14.683594 17.703125 14.558594 17.855469 14.558594 L 18.964844 14.558594 C 19.117188 14.558594 19.242188 14.683594 19.242188 14.839844 C 19.242188 14.992188 19.117188 15.117188 18.964844 15.117188 Z M 18.964844 15.117188 " fill-opacity="1" fill-rule="evenodd"/></svg>