<svg xmlns="http://www.w3.org/2000/svg" xmlns:xlink="http://www.w3.org/1999/xlink" width="52" zoomAndPan="magnify" viewBox="0 0 39 38.999999" height="52" preserveAspectRatio="xMidYMid meet" version="1.0"><defs><clipPath id="8fdf3ebeaa"><path d="M 2.59375 2.59375 L 36.34375 2.59375 L 36.34375 36.34375 L 2.59375 36.34375 Z M 2.59375 2.59375 " clip-rule="nonzero"/></clipPath></defs><g clip-path="url(#8fdf3ebeaa)"><path fill="#ffffff" d="M 15.390625 13.695312 L 16.203125 14.507812 C 16.316406 14.621094 16.492188 14.648438 16.632812 14.570312 L 17.582031 14.046875 C 17.804688 14.164062 18.039062 14.261719 18.277344 14.335938 L 18.578125 15.375 C 18.621094 15.527344 18.765625 15.636719 18.925781 15.636719 L 20.074219 15.636719 C 20.234375 15.636719 20.378906 15.527344 20.421875 15.375 L 20.597656 14.757812 L 20.722656 14.335938 C 20.960938 14.261719 21.195312 14.164062 21.417969 14.046875 L 22.363281 14.570312 C 22.503906 14.648438 22.679688 14.621094 22.792969 14.507812 L 23.605469 13.695312 C 23.71875 13.582031 23.746094 13.40625 23.667969 13.265625 L 23.144531 12.316406 C 23.261719 12.09375 23.359375 11.863281 23.433594 11.621094 L 24.472656 11.320312 C 24.625 11.277344 24.730469 11.136719 24.730469 10.976562 L 24.730469 9.824219 C 24.730469 9.664062 24.625 9.523438 24.472656 9.476562 L 23.433594 9.179688 C 23.359375 8.9375 23.261719 8.707031 23.144531 8.484375 L 23.667969 7.53125 C 23.746094 7.394531 23.71875 7.21875 23.605469 7.105469 L 22.792969 6.292969 C 22.679688 6.179688 22.503906 6.152344 22.363281 6.230469 L 21.417969 6.753906 C 21.195312 6.636719 20.960938 6.539062 20.722656 6.464844 L 20.421875 5.425781 C 20.378906 5.269531 20.234375 5.164062 20.074219 5.164062 L 18.925781 5.164062 C 18.765625 5.164062 18.621094 5.269531 18.578125 5.425781 L 18.277344 6.464844 C 18.039062 6.539062 17.804688 6.636719 17.582031 6.753906 L 16.632812 6.230469 C 16.492188 6.152344 16.316406 6.175781 16.203125 6.292969 L 15.800781 6.699219 L 15.390625 7.105469 C 15.277344 7.21875 15.253906 7.390625 15.328125 7.53125 L 15.851562 8.480469 C 15.734375 8.707031 15.640625 8.9375 15.566406 9.179688 L 14.523438 9.476562 C 14.371094 9.523438 14.265625 9.664062 14.265625 9.824219 L 14.265625 10.976562 C 14.265625 11.136719 14.371094 11.277344 14.523438 11.320312 L 15.566406 11.621094 C 15.640625 11.863281 15.734375 12.097656 15.851562 12.320312 L 15.332031 13.265625 C 15.253906 13.40625 15.277344 13.582031 15.390625 13.695312 Z M 14.984375 10.703125 L 14.984375 10.09375 L 15.957031 9.8125 C 16.078125 9.777344 16.175781 9.679688 16.207031 9.558594 C 16.285156 9.246094 16.410156 8.945312 16.574219 8.664062 C 16.640625 8.554688 16.640625 8.417969 16.582031 8.308594 L 16.089844 7.421875 L 16.523438 6.992188 L 17.375 7.460938 C 17.382812 7.46875 17.390625 7.472656 17.402344 7.480469 C 17.515625 7.542969 17.652344 7.542969 17.765625 7.476562 C 18.046875 7.308594 18.347656 7.183594 18.65625 7.105469 C 18.78125 7.074219 18.878906 6.980469 18.914062 6.855469 L 19.195312 5.882812 L 19.804688 5.882812 L 20.074219 6.820312 C 20.097656 6.957031 20.199219 7.070312 20.339844 7.105469 C 20.652344 7.183594 20.953125 7.308594 21.234375 7.476562 C 21.34375 7.542969 21.480469 7.542969 21.59375 7.480469 C 21.601562 7.476562 21.609375 7.472656 21.613281 7.46875 L 22.476562 6.992188 L 22.90625 7.421875 L 22.4375 8.277344 C 22.429688 8.285156 22.425781 8.292969 22.417969 8.304688 C 22.355469 8.417969 22.355469 8.554688 22.421875 8.667969 C 22.589844 8.945312 22.714844 9.242188 22.792969 9.558594 C 22.824219 9.679688 22.917969 9.777344 23.042969 9.8125 L 24.011719 10.09375 L 24.011719 10.703125 L 23.042969 10.984375 C 22.917969 11.019531 22.824219 11.117188 22.792969 11.242188 C 22.714844 11.554688 22.589844 11.855469 22.421875 12.132812 C 22.355469 12.242188 22.355469 12.382812 22.417969 12.496094 C 22.421875 12.5 22.425781 12.507812 22.429688 12.511719 L 22.90625 13.375 L 22.476562 13.808594 L 21.621094 13.335938 C 21.613281 13.328125 21.605469 13.324219 21.59375 13.320312 C 21.480469 13.253906 21.34375 13.257812 21.230469 13.320312 C 20.953125 13.488281 20.652344 13.613281 20.339844 13.691406 C 20.203125 13.726562 20.101562 13.835938 20.078125 13.96875 L 19.804688 14.914062 L 19.195312 14.914062 L 18.914062 13.941406 C 18.878906 13.820312 18.78125 13.722656 18.65625 13.691406 C 18.34375 13.613281 18.042969 13.488281 17.761719 13.320312 C 17.652344 13.253906 17.511719 13.253906 17.402344 13.320312 C 17.394531 13.324219 17.390625 13.328125 17.382812 13.332031 L 16.523438 13.804688 L 16.089844 13.375 L 16.578125 12.488281 C 16.640625 12.378906 16.640625 12.242188 16.574219 12.132812 C 16.410156 11.859375 16.285156 11.558594 16.207031 11.242188 C 16.175781 11.117188 16.078125 11.019531 15.957031 10.984375 Z M 18.910156 12.597656 C 19.105469 12.648438 19.304688 12.675781 19.503906 12.675781 C 19.898438 12.675781 20.289062 12.574219 20.640625 12.371094 C 21.164062 12.066406 21.542969 11.574219 21.699219 10.988281 C 21.855469 10.402344 21.773438 9.789062 21.472656 9.261719 C 21.167969 8.734375 20.675781 8.359375 20.089844 8.203125 C 19.5 8.042969 18.886719 8.125 18.363281 8.429688 C 17.835938 8.734375 17.457031 9.222656 17.300781 9.8125 C 16.976562 11.023438 17.699219 12.273438 18.910156 12.597656 Z M 17.996094 9.996094 C 18.105469 9.597656 18.363281 9.261719 18.722656 9.050781 C 18.960938 8.914062 19.226562 8.84375 19.496094 8.84375 C 19.632812 8.84375 19.769531 8.863281 19.902344 8.898438 C 20.304688 9.003906 20.640625 9.261719 20.847656 9.621094 C 21.054688 9.980469 21.109375 10.398438 21.003906 10.800781 C 20.894531 11.203125 20.636719 11.539062 20.277344 11.746094 C 19.917969 11.953125 19.5 12.011719 19.097656 11.902344 C 18.269531 11.679688 17.773438 10.828125 17.996094 10 Z M 27.304688 10.398438 C 27.304688 14.691406 23.820312 18.1875 19.53125 18.203125 C 19.53125 18.203125 19.527344 18.203125 19.523438 18.203125 L 10.34375 18.203125 C 10.144531 18.203125 9.984375 18.042969 9.984375 17.84375 C 9.984375 17.644531 10.144531 17.484375 10.34375 17.484375 L 19.5 17.484375 C 23.40625 17.484375 26.585938 14.304688 26.585938 10.398438 C 26.585938 6.492188 23.40625 3.316406 19.5 3.316406 C 15.59375 3.316406 12.414062 6.492188 12.414062 10.398438 C 12.414062 12.503906 13.339844 14.484375 14.957031 15.839844 C 15.109375 15.964844 15.128906 16.191406 15 16.34375 C 14.875 16.496094 14.648438 16.519531 14.492188 16.390625 C 12.714844 14.902344 11.691406 12.71875 11.691406 10.398438 C 11.691406 6.09375 15.195312 2.59375 19.5 2.59375 C 23.804688 2.59375 27.304688 6.09375 27.304688 10.398438 Z M 29.015625 17.808594 C 29.015625 17.820312 29.015625 17.832031 29.015625 17.84375 C 29.015625 17.84375 29.015625 17.84375 29.015625 17.847656 C 29.015625 17.859375 29.015625 17.867188 29.015625 17.878906 C 29.015625 17.886719 29.015625 17.890625 29.011719 17.894531 C 29.011719 17.902344 29.011719 17.910156 29.011719 17.914062 C 29.007812 17.921875 29.007812 17.925781 29.007812 17.933594 C 29.003906 17.9375 29.003906 17.945312 29.003906 17.949219 C 29 17.953125 29 17.960938 28.996094 17.964844 C 28.996094 17.972656 28.992188 17.976562 28.988281 17.980469 C 28.988281 17.988281 28.984375 17.992188 28.984375 17.996094 C 28.980469 18.003906 28.976562 18.007812 28.976562 18.015625 C 28.972656 18.019531 28.96875 18.023438 28.96875 18.027344 C 28.964844 18.035156 28.960938 18.039062 28.957031 18.042969 C 28.953125 18.050781 28.949219 18.054688 28.945312 18.058594 C 28.941406 18.0625 28.941406 18.066406 28.9375 18.074219 C 28.929688 18.078125 28.925781 18.085938 28.917969 18.09375 C 28.917969 18.09375 28.914062 18.097656 28.914062 18.097656 L 27.789062 19.226562 C 27.71875 19.296875 27.625 19.332031 27.53125 19.332031 C 27.441406 19.332031 27.347656 19.296875 27.277344 19.226562 C 27.136719 19.085938 27.136719 18.859375 27.277344 18.71875 L 27.789062 18.203125 L 24.863281 18.203125 C 24.664062 18.203125 24.503906 18.042969 24.503906 17.84375 C 24.503906 17.644531 24.664062 17.484375 24.863281 17.484375 L 27.789062 17.484375 L 27.277344 16.972656 C 27.136719 16.832031 27.136719 16.605469 27.277344 16.464844 C 27.417969 16.324219 27.644531 16.324219 27.785156 16.464844 L 28.914062 17.589844 C 28.921875 17.597656 28.929688 17.605469 28.9375 17.617188 C 28.941406 17.621094 28.941406 17.625 28.945312 17.628906 C 28.949219 17.632812 28.953125 17.640625 28.957031 17.644531 C 28.960938 17.648438 28.964844 17.65625 28.964844 17.660156 C 28.96875 17.664062 28.972656 17.667969 28.976562 17.675781 C 28.980469 17.679688 28.980469 17.683594 28.984375 17.691406 C 28.984375 17.695312 28.988281 17.699219 28.992188 17.707031 C 28.992188 17.710938 28.996094 17.714844 28.996094 17.722656 C 29 17.726562 29 17.734375 29.003906 17.738281 C 29.003906 17.746094 29.003906 17.75 29.007812 17.753906 C 29.007812 17.761719 29.007812 17.769531 29.011719 17.773438 C 29.011719 17.78125 29.011719 17.785156 29.011719 17.792969 C 29.015625 17.796875 29.015625 17.800781 29.015625 17.808594 Z M 10.855469 35.570312 L 10.855469 27.589844 C 10.855469 27.132812 10.480469 26.757812 10.023438 26.757812 L 3.429688 26.757812 C 2.96875 26.757812 2.59375 27.132812 2.59375 27.589844 L 2.59375 35.570312 C 2.59375 36.03125 2.96875 36.402344 3.429688 36.402344 L 10.023438 36.402344 C 10.480469 36.402344 10.855469 36.03125 10.855469 35.570312 Z M 3.316406 35.570312 L 3.316406 27.589844 C 3.316406 27.53125 3.367188 27.476562 3.429688 27.476562 L 10.023438 27.476562 C 10.082031 27.476562 10.136719 27.53125 10.136719 27.589844 L 10.136719 35.570312 C 10.136719 35.628906 10.082031 35.683594 10.023438 35.683594 L 3.429688 35.683594 C 3.367188 35.683594 3.316406 35.628906 3.316406 35.570312 Z M 9.09375 31.582031 C 9.09375 31.777344 8.933594 31.941406 8.734375 31.941406 L 4.714844 31.941406 C 4.515625 31.941406 4.355469 31.777344 4.355469 31.582031 C 4.355469 31.382812 4.515625 31.21875 4.714844 31.21875 L 8.734375 31.21875 C 8.933594 31.21875 9.09375 31.382812 9.09375 31.582031 Z M 9.09375 29.371094 C 9.09375 29.570312 8.933594 29.730469 8.734375 29.730469 L 4.714844 29.730469 C 4.515625 29.730469 4.355469 29.570312 4.355469 29.371094 C 4.355469 29.171875 4.515625 29.011719 4.714844 29.011719 L 8.734375 29.011719 C 8.933594 29.011719 9.09375 29.171875 9.09375 29.371094 Z M 9.09375 33.789062 C 9.09375 33.988281 8.933594 34.148438 8.734375 34.148438 L 4.714844 34.148438 C 4.515625 34.148438 4.355469 33.988281 4.355469 33.789062 C 4.355469 33.589844 4.515625 33.429688 4.714844 33.429688 L 8.734375 33.429688 C 8.933594 33.429688 9.09375 33.589844 9.09375 33.789062 Z M 35.570312 26.757812 L 28.976562 26.757812 C 28.515625 26.757812 28.144531 27.132812 28.144531 27.589844 L 28.144531 35.570312 C 28.144531 36.03125 28.515625 36.402344 28.976562 36.402344 L 35.570312 36.402344 C 36.03125 36.402344 36.402344 36.03125 36.402344 35.570312 L 36.402344 27.589844 C 36.402344 27.132812 36.03125 26.757812 35.570312 26.757812 Z M 35.683594 35.570312 C 35.683594 35.632812 35.632812 35.683594 35.570312 35.683594 L 28.976562 35.683594 C 28.914062 35.683594 28.863281 35.628906 28.863281 35.570312 L 28.863281 27.589844 C 28.863281 27.53125 28.914062 27.476562 28.976562 27.476562 L 35.570312 27.476562 C 35.632812 27.476562 35.683594 27.53125 35.683594 27.589844 Z M 34.644531 31.582031 C 34.644531 31.777344 34.480469 31.941406 34.28125 31.941406 L 30.261719 31.941406 C 30.0625 31.941406 29.902344 31.777344 29.902344 31.582031 C 29.902344 31.382812 30.0625 31.21875 30.261719 31.21875 L 34.28125 31.21875 C 34.480469 31.21875 34.644531 31.382812 34.644531 31.582031 Z M 34.644531 29.371094 C 34.644531 29.570312 34.480469 29.730469 34.28125 29.730469 L 30.261719 29.730469 C 30.0625 29.730469 29.902344 29.570312 29.902344 29.371094 C 29.902344 29.171875 30.0625 29.011719 30.261719 29.011719 L 34.28125 29.011719 C 34.480469 29.011719 34.644531 29.171875 34.644531 29.371094 Z M 34.644531 33.789062 C 34.644531 33.988281 34.480469 34.148438 34.28125 34.148438 L 30.261719 34.148438 C 30.0625 34.148438 29.902344 33.988281 29.902344 33.789062 C 29.902344 33.589844 30.0625 33.429688 30.261719 33.429688 L 34.28125 33.429688 C 34.480469 33.429688 34.644531 33.589844 34.644531 33.789062 Z M 23.628906 35.570312 L 23.628906 27.589844 C 23.628906 27.132812 23.253906 26.757812 22.796875 26.757812 L 16.203125 26.757812 C 15.742188 26.757812 15.367188 27.132812 15.367188 27.589844 L 15.367188 35.570312 C 15.367188 36.03125 15.742188 36.402344 16.203125 36.402344 L 22.796875 36.402344 C 23.253906 36.402344 23.628906 36.03125 23.628906 35.570312 Z M 16.089844 35.570312 L 16.089844 27.589844 C 16.089844 27.53125 16.140625 27.476562 16.203125 27.476562 L 22.796875 27.476562 C 22.855469 27.476562 22.910156 27.53125 22.910156 27.589844 L 22.910156 35.570312 C 22.910156 35.632812 22.855469 35.683594 22.796875 35.683594 L 16.203125 35.683594 C 16.140625 35.683594 16.089844 35.628906 16.089844 35.570312 Z M 21.867188 31.582031 C 21.867188 31.777344 21.707031 31.941406 21.507812 31.941406 L 17.488281 31.941406 C 17.289062 31.941406 17.128906 31.777344 17.128906 31.582031 C 17.128906 31.382812 17.289062 31.21875 17.488281 31.21875 L 21.507812 31.21875 C 21.707031 31.21875 21.867188 31.382812 21.867188 31.582031 Z M 21.867188 29.371094 C 21.867188 29.570312 21.707031 29.730469 21.507812 29.730469 L 17.488281 29.730469 C 17.289062 29.730469 17.128906 29.570312 17.128906 29.371094 C 17.128906 29.171875 17.289062 29.011719 17.488281 29.011719 L 21.507812 29.011719 C 21.707031 29.011719 21.867188 29.171875 21.867188 29.371094 Z M 21.867188 33.789062 C 21.867188 33.988281 21.707031 34.148438 21.507812 34.148438 L 17.488281 34.148438 C 17.289062 34.148438 17.128906 33.988281 17.128906 33.789062 C 17.128906 33.589844 17.289062 33.429688 17.488281 33.429688 L 21.507812 33.429688 C 21.707031 33.429688 21.867188 33.589844 21.867188 33.789062 Z M 31.914062 25.203125 L 31.914062 22.84375 L 19.882812 22.84375 L 19.882812 25.203125 C 19.882812 25.402344 19.722656 25.5625 19.523438 25.5625 C 19.324219 25.5625 19.164062 25.402344 19.164062 25.203125 L 19.164062 22.84375 L 7.085938 22.84375 L 7.085938 25.203125 C 7.085938 25.402344 6.925781 25.5625 6.726562 25.5625 C 6.527344 25.5625 6.367188 25.402344 6.367188 25.203125 L 6.367188 22.480469 C 6.367188 22.28125 6.527344 22.121094 6.726562 22.121094 L 19.164062 22.121094 L 19.164062 19.757812 C 19.164062 19.558594 19.324219 19.398438 19.523438 19.398438 C 19.722656 19.398438 19.882812 19.558594 19.882812 19.757812 L 19.882812 22.121094 L 32.273438 22.121094 C 32.472656 22.121094 32.632812 22.28125 32.632812 22.480469 L 32.632812 25.203125 C 32.632812 25.402344 32.472656 25.5625 32.273438 25.5625 C 32.074219 25.5625 31.914062 25.402344 31.914062 25.203125 Z M 31.914062 25.203125 " fill-opacity="1" fill-rule="nonzero"/></g></svg>
