<svg xmlns="http://www.w3.org/2000/svg" xmlns:xlink="http://www.w3.org/1999/xlink" width="52" zoomAndPan="magnify" viewBox="0 0 39 38.999999" height="52" preserveAspectRatio="xMidYMid meet" version="1.0"><defs><clipPath id="b6863c5bbd"><path d="M 30 2 L 37.199219 2 L 37.199219 26 L 30 26 Z M 30 2 " clip-rule="nonzero"/></clipPath><clipPath id="f6e09a6aa1"><path d="M 11 28 L 35 28 L 35 35.25 L 11 35.25 Z M 11 28 " clip-rule="nonzero"/></clipPath></defs><path fill="#ffffff" d="M 23.027344 12.882812 C 23.027344 12.421875 22.9375 11.972656 22.761719 11.546875 C 22.582031 11.117188 22.328125 10.738281 22 10.410156 C 21.671875 10.082031 21.296875 9.832031 20.867188 9.652344 C 20.4375 9.476562 19.992188 9.386719 19.527344 9.386719 C 19.0625 9.386719 18.617188 9.476562 18.1875 9.652344 C 17.761719 9.832031 17.382812 10.082031 17.054688 10.410156 C 16.726562 10.738281 16.472656 11.117188 16.296875 11.546875 C 16.117188 11.972656 16.03125 12.421875 16.03125 12.882812 C 16.03125 13.347656 16.117188 13.792969 16.296875 14.222656 C 16.472656 14.652344 16.726562 15.03125 17.054688 15.359375 C 17.382812 15.6875 17.761719 15.9375 18.1875 16.117188 C 18.617188 16.292969 19.0625 16.382812 19.527344 16.382812 C 19.992188 16.382812 20.4375 16.292969 20.867188 16.117188 C 21.292969 15.9375 21.671875 15.683594 22 15.355469 C 22.328125 15.027344 22.582031 14.652344 22.757812 14.222656 C 22.9375 13.792969 23.027344 13.347656 23.027344 12.882812 Z M 17.195312 12.882812 C 17.195312 12.574219 17.253906 12.277344 17.375 11.992188 C 17.492188 11.707031 17.660156 11.453125 17.878906 11.234375 C 18.097656 11.015625 18.351562 10.847656 18.636719 10.730469 C 18.921875 10.613281 19.21875 10.550781 19.527344 10.550781 C 19.835938 10.550781 20.132812 10.613281 20.421875 10.730469 C 20.707031 10.847656 20.957031 11.015625 21.175781 11.234375 C 21.394531 11.453125 21.5625 11.707031 21.683594 11.992188 C 21.800781 12.277344 21.859375 12.574219 21.859375 12.882812 C 21.859375 13.195312 21.800781 13.492188 21.683594 13.777344 C 21.5625 14.0625 21.394531 14.316406 21.175781 14.535156 C 20.957031 14.753906 20.707031 14.921875 20.421875 15.039062 C 20.132812 15.15625 19.835938 15.214844 19.527344 15.214844 C 19.21875 15.214844 18.921875 15.15625 18.636719 15.039062 C 18.351562 14.921875 18.097656 14.753906 17.878906 14.535156 C 17.660156 14.316406 17.492188 14.0625 17.375 13.777344 C 17.253906 13.492188 17.195312 13.195312 17.195312 12.882812 Z M 17.195312 12.882812 " fill-opacity="1" fill-rule="nonzero"/><path fill="#ffffff" d="M 10.78125 28.042969 L 14.28125 28.042969 C 14.433594 28.042969 14.585938 28.011719 14.726562 27.953125 C 14.871094 27.894531 14.996094 27.8125 15.105469 27.703125 C 15.214844 27.59375 15.300781 27.464844 15.359375 27.324219 C 15.417969 27.179688 15.445312 27.03125 15.445312 26.878906 L 15.445312 24.546875 C 15.445312 24.390625 15.417969 24.242188 15.359375 24.097656 C 15.300781 23.957031 15.214844 23.828125 15.105469 23.71875 C 14.996094 23.609375 14.871094 23.527344 14.726562 23.46875 C 14.585938 23.410156 14.433594 23.378906 14.28125 23.378906 L 13.113281 23.378906 L 13.113281 22.796875 C 13.113281 22.636719 13.171875 22.496094 13.285156 22.382812 C 13.398438 22.269531 13.535156 22.214844 13.699219 22.214844 L 18.945312 22.214844 L 18.945312 23.378906 L 17.777344 23.378906 C 17.625 23.378906 17.476562 23.410156 17.332031 23.46875 C 17.191406 23.527344 17.0625 23.609375 16.953125 23.71875 C 16.84375 23.828125 16.761719 23.957031 16.703125 24.097656 C 16.640625 24.242188 16.613281 24.390625 16.613281 24.546875 L 16.613281 26.878906 C 16.613281 27.03125 16.640625 27.179688 16.703125 27.324219 C 16.761719 27.464844 16.84375 27.59375 16.953125 27.703125 C 17.0625 27.8125 17.191406 27.894531 17.332031 27.953125 C 17.476562 28.011719 17.625 28.042969 17.777344 28.042969 L 21.277344 28.042969 C 21.433594 28.042969 21.582031 28.011719 21.722656 27.953125 C 21.867188 27.894531 21.992188 27.8125 22.101562 27.703125 C 22.210938 27.59375 22.296875 27.464844 22.355469 27.324219 C 22.414062 27.179688 22.441406 27.03125 22.441406 26.878906 L 22.441406 24.546875 C 22.441406 24.390625 22.414062 24.242188 22.355469 24.097656 C 22.296875 23.957031 22.210938 23.828125 22.101562 23.71875 C 21.992188 23.609375 21.867188 23.527344 21.722656 23.46875 C 21.582031 23.410156 21.433594 23.378906 21.277344 23.378906 L 20.109375 23.378906 L 20.109375 22.214844 L 25.359375 22.214844 C 25.519531 22.214844 25.65625 22.269531 25.769531 22.382812 C 25.882812 22.496094 25.941406 22.636719 25.941406 22.796875 L 25.941406 23.378906 L 24.773438 23.378906 C 24.621094 23.378906 24.472656 23.410156 24.328125 23.46875 C 24.1875 23.527344 24.058594 23.609375 23.949219 23.71875 C 23.839844 23.828125 23.757812 23.957031 23.699219 24.097656 C 23.640625 24.242188 23.609375 24.390625 23.609375 24.546875 L 23.609375 26.878906 C 23.609375 27.03125 23.640625 27.179688 23.699219 27.324219 C 23.757812 27.464844 23.839844 27.59375 23.949219 27.703125 C 24.058594 27.8125 24.1875 27.894531 24.328125 27.953125 C 24.472656 28.011719 24.621094 28.042969 24.773438 28.042969 L 28.273438 28.042969 C 28.429688 28.042969 28.578125 28.011719 28.71875 27.953125 C 28.863281 27.894531 28.988281 27.8125 29.097656 27.703125 C 29.207031 27.59375 29.292969 27.464844 29.351562 27.324219 C 29.410156 27.179688 29.4375 27.03125 29.4375 26.878906 L 29.4375 24.546875 C 29.4375 24.390625 29.410156 24.242188 29.351562 24.097656 C 29.292969 23.957031 29.207031 23.828125 29.097656 23.71875 C 28.988281 23.609375 28.863281 23.527344 28.71875 23.46875 C 28.578125 23.410156 28.429688 23.378906 28.273438 23.378906 L 27.105469 23.378906 L 27.105469 22.796875 C 27.105469 22.5625 27.0625 22.339844 26.972656 22.125 C 26.886719 21.914062 26.757812 21.722656 26.59375 21.558594 C 26.429688 21.394531 26.242188 21.269531 26.027344 21.179688 C 25.8125 21.089844 25.589844 21.046875 25.359375 21.046875 L 20.109375 21.046875 L 20.109375 19.855469 L 20.128906 19.855469 C 20.519531 19.820312 20.785156 19.621094 20.925781 19.253906 L 21.234375 18.488281 C 21.597656 18.378906 21.945312 18.234375 22.28125 18.054688 L 23.039062 18.378906 C 23.398438 18.535156 23.726562 18.488281 24.027344 18.238281 C 24.179688 18.109375 24.328125 17.972656 24.472656 17.832031 C 24.613281 17.6875 24.75 17.539062 24.878906 17.386719 C 25.128906 17.085938 25.175781 16.753906 25.019531 16.394531 L 24.695312 15.636719 C 24.875 15.304688 25.019531 14.953125 25.132812 14.589844 L 25.894531 14.28125 C 26.261719 14.140625 26.460938 13.875 26.496094 13.484375 C 26.515625 13.285156 26.523438 13.085938 26.523438 12.882812 C 26.523438 12.683594 26.515625 12.480469 26.496094 12.285156 C 26.460938 11.894531 26.261719 11.628906 25.898438 11.484375 L 25.132812 11.179688 C 25.023438 10.816406 24.875 10.464844 24.695312 10.128906 L 25.023438 9.371094 C 25.175781 9.015625 25.128906 8.683594 24.882812 8.386719 C 24.753906 8.230469 24.617188 8.082031 24.472656 7.941406 C 24.332031 7.800781 24.183594 7.660156 24.03125 7.53125 C 23.730469 7.28125 23.398438 7.234375 23.039062 7.394531 L 22.28125 7.71875 C 21.945312 7.539062 21.597656 7.390625 21.230469 7.28125 L 20.925781 6.515625 C 20.785156 6.152344 20.519531 5.949219 20.128906 5.914062 C 19.730469 5.878906 19.328125 5.878906 18.929688 5.914062 C 18.539062 5.949219 18.273438 6.148438 18.128906 6.515625 L 17.824219 7.28125 C 17.457031 7.390625 17.109375 7.535156 16.773438 7.714844 L 16.015625 7.390625 C 15.65625 7.234375 15.328125 7.28125 15.027344 7.53125 C 14.875 7.660156 14.726562 7.796875 14.585938 7.9375 C 14.441406 8.082031 14.304688 8.230469 14.175781 8.382812 C 13.925781 8.683594 13.878906 9.015625 14.035156 9.375 L 14.359375 10.132812 C 14.179688 10.464844 14.035156 10.816406 13.925781 11.179688 L 13.160156 11.488281 C 12.796875 11.628906 12.59375 11.894531 12.558594 12.285156 C 12.539062 12.480469 12.53125 12.683594 12.53125 12.882812 C 12.53125 13.085938 12.539062 13.285156 12.558594 13.484375 C 12.59375 13.875 12.792969 14.140625 13.15625 14.285156 L 13.921875 14.589844 C 14.035156 14.953125 14.179688 15.304688 14.359375 15.640625 L 14.035156 16.398438 C 13.878906 16.753906 13.925781 17.085938 14.175781 17.382812 C 14.300781 17.539062 14.4375 17.6875 14.582031 17.828125 C 14.726562 17.96875 14.875 18.105469 15.023438 18.234375 C 15.328125 18.488281 15.65625 18.535156 16.015625 18.375 L 16.773438 18.050781 C 17.109375 18.230469 17.460938 18.378906 17.824219 18.488281 L 18.128906 19.253906 C 18.273438 19.617188 18.539062 19.816406 18.925781 19.851562 L 18.945312 19.851562 L 18.945312 21.046875 L 13.699219 21.046875 C 13.464844 21.046875 13.242188 21.089844 13.027344 21.179688 C 12.8125 21.269531 12.625 21.394531 12.460938 21.558594 C 12.296875 21.722656 12.171875 21.914062 12.082031 22.125 C 11.992188 22.339844 11.949219 22.5625 11.949219 22.796875 L 11.949219 23.378906 L 10.78125 23.378906 C 10.628906 23.378906 10.480469 23.410156 10.335938 23.46875 C 10.195312 23.527344 10.066406 23.609375 9.957031 23.71875 C 9.847656 23.828125 9.765625 23.957031 9.707031 24.097656 C 9.644531 24.242188 9.617188 24.390625 9.617188 24.546875 L 9.617188 26.878906 C 9.617188 27.03125 9.644531 27.179688 9.707031 27.324219 C 9.765625 27.464844 9.847656 27.59375 9.957031 27.703125 C 10.066406 27.8125 10.195312 27.894531 10.335938 27.953125 C 10.480469 28.011719 10.628906 28.042969 10.78125 28.042969 Z M 21.277344 26.878906 L 17.777344 26.878906 L 17.777344 24.546875 L 21.277344 24.546875 Z M 28.273438 26.878906 L 24.773438 26.878906 L 24.773438 24.546875 L 28.273438 24.546875 Z M 18.796875 17.789062 C 18.726562 17.601562 18.589844 17.488281 18.398438 17.4375 C 17.941406 17.324219 17.511719 17.148438 17.109375 16.902344 C 16.9375 16.800781 16.761719 16.789062 16.578125 16.867188 L 15.671875 17.253906 C 15.582031 17.175781 15.492188 17.09375 15.40625 17.007812 C 15.320312 16.921875 15.238281 16.832031 15.15625 16.742188 L 15.546875 15.835938 C 15.625 15.652344 15.613281 15.472656 15.507812 15.300781 C 15.265625 14.898438 15.085938 14.472656 14.972656 14.015625 C 14.925781 13.820312 14.808594 13.6875 14.625 13.613281 L 13.707031 13.246094 C 13.699219 13.128906 13.695312 13.007812 13.695312 12.882812 C 13.695312 12.761719 13.699219 12.640625 13.707031 12.519531 L 14.625 12.15625 C 14.808594 12.082031 14.925781 11.945312 14.972656 11.753906 C 15.085938 11.296875 15.265625 10.867188 15.507812 10.464844 C 15.613281 10.292969 15.625 10.117188 15.546875 9.933594 L 15.15625 9.027344 C 15.234375 8.9375 15.316406 8.847656 15.402344 8.761719 C 15.492188 8.675781 15.578125 8.59375 15.667969 8.511719 L 16.574219 8.902344 C 16.761719 8.980469 16.9375 8.96875 17.109375 8.863281 C 17.511719 8.621094 17.941406 8.441406 18.394531 8.332031 C 18.589844 8.28125 18.722656 8.164062 18.796875 7.980469 L 19.164062 7.066406 C 19.40625 7.050781 19.648438 7.050781 19.890625 7.066406 L 20.257812 7.980469 C 20.328125 8.164062 20.464844 8.28125 20.65625 8.332031 C 21.113281 8.441406 21.542969 8.621094 21.945312 8.863281 C 22.117188 8.96875 22.292969 8.980469 22.476562 8.902344 L 23.382812 8.511719 C 23.472656 8.59375 23.5625 8.675781 23.648438 8.761719 C 23.734375 8.847656 23.820312 8.9375 23.898438 9.027344 L 23.507812 9.933594 C 23.429688 10.117188 23.441406 10.296875 23.546875 10.464844 C 23.789062 10.867188 23.96875 11.296875 24.082031 11.753906 C 24.128906 11.949219 24.246094 12.082031 24.429688 12.15625 L 25.347656 12.519531 C 25.355469 12.640625 25.359375 12.761719 25.359375 12.882812 C 25.359375 13.007812 25.355469 13.128906 25.347656 13.246094 L 24.429688 13.613281 C 24.246094 13.6875 24.128906 13.820312 24.082031 14.015625 C 23.96875 14.472656 23.789062 14.902344 23.546875 15.304688 C 23.441406 15.472656 23.429688 15.652344 23.507812 15.835938 L 23.898438 16.742188 C 23.820312 16.832031 23.734375 16.921875 23.648438 17.007812 C 23.5625 17.09375 23.472656 17.175781 23.382812 17.257812 L 22.476562 16.867188 C 22.292969 16.789062 22.117188 16.800781 21.945312 16.90625 C 21.542969 17.148438 21.113281 17.328125 20.65625 17.4375 C 20.464844 17.488281 20.328125 17.605469 20.257812 17.789062 L 19.890625 18.703125 C 19.648438 18.71875 19.40625 18.71875 19.164062 18.703125 Z M 10.78125 24.546875 L 14.28125 24.546875 L 14.28125 26.878906 L 10.78125 26.878906 Z M 10.78125 24.546875 " fill-opacity="1" fill-rule="nonzero"/><path fill="#ffffff" d="M 23.828125 4.851562 C 23.703125 4.949219 23.628906 5.082031 23.613281 5.242188 C 23.59375 5.402344 23.636719 5.542969 23.738281 5.667969 C 23.835938 5.796875 23.96875 5.867188 24.128906 5.886719 C 24.289062 5.902344 24.429688 5.863281 24.554688 5.761719 L 27.472656 3.429688 C 27.539062 3.375 27.59375 3.304688 27.632812 3.226562 C 27.671875 3.144531 27.691406 3.0625 27.691406 2.972656 C 27.691406 2.886719 27.671875 2.800781 27.632812 2.722656 C 27.59375 2.640625 27.539062 2.574219 27.472656 2.519531 L 24.554688 0.1875 C 24.429688 0.0859375 24.289062 0.0429688 24.128906 0.0625 C 23.96875 0.078125 23.835938 0.152344 23.738281 0.277344 C 23.636719 0.402344 23.59375 0.546875 23.613281 0.707031 C 23.628906 0.867188 23.703125 0.996094 23.828125 1.097656 L 25.445312 2.390625 L 6.703125 2.390625 C 6.390625 2.390625 6.09375 2.449219 5.808594 2.566406 C 5.523438 2.6875 5.269531 2.855469 5.050781 3.074219 C 4.832031 3.292969 4.664062 3.542969 4.546875 3.828125 C 4.429688 4.117188 4.371094 4.414062 4.371094 4.722656 L 4.371094 6.472656 C 4.371094 6.632812 4.425781 6.769531 4.539062 6.882812 C 4.652344 6.996094 4.792969 7.054688 4.953125 7.054688 C 5.113281 7.054688 5.25 6.996094 5.363281 6.882812 C 5.480469 6.769531 5.535156 6.632812 5.535156 6.472656 L 5.535156 4.722656 C 5.535156 4.566406 5.566406 4.417969 5.625 4.277344 C 5.683594 4.132812 5.769531 4.007812 5.878906 3.898438 C 5.988281 3.789062 6.113281 3.703125 6.253906 3.644531 C 6.398438 3.585938 6.546875 3.554688 6.703125 3.554688 L 25.445312 3.554688 Z M 23.828125 4.851562 " fill-opacity="1" fill-rule="nonzero"/><g clip-path="url(#b6863c5bbd)"><path fill="#ffffff" d="M 36.800781 21.757812 C 36.675781 21.65625 36.53125 21.617188 36.371094 21.632812 C 36.210938 21.652344 36.082031 21.722656 35.980469 21.847656 L 34.6875 23.464844 L 34.6875 4.722656 C 34.6875 4.414062 34.628906 4.117188 34.507812 3.828125 C 34.390625 3.542969 34.222656 3.292969 34.003906 3.074219 C 33.785156 2.855469 33.53125 2.6875 33.246094 2.566406 C 32.960938 2.449219 32.664062 2.390625 32.355469 2.390625 L 30.605469 2.390625 C 30.445312 2.390625 30.308594 2.449219 30.191406 2.5625 C 30.078125 2.675781 30.023438 2.8125 30.023438 2.972656 C 30.023438 3.132812 30.078125 3.273438 30.191406 3.386719 C 30.308594 3.5 30.445312 3.554688 30.605469 3.554688 L 32.355469 3.554688 C 32.507812 3.554688 32.65625 3.585938 32.800781 3.644531 C 32.945312 3.703125 33.070312 3.789062 33.179688 3.898438 C 33.289062 4.007812 33.371094 4.132812 33.429688 4.277344 C 33.492188 4.417969 33.519531 4.566406 33.519531 4.722656 L 33.519531 23.464844 L 32.226562 21.847656 C 32.125 21.722656 31.996094 21.652344 31.835938 21.632812 C 31.675781 21.617188 31.53125 21.65625 31.40625 21.757812 C 31.28125 21.859375 31.210938 21.988281 31.191406 22.148438 C 31.175781 22.308594 31.214844 22.453125 31.316406 22.578125 L 33.648438 25.492188 C 33.703125 25.5625 33.769531 25.617188 33.851562 25.652344 C 33.929688 25.691406 34.015625 25.710938 34.101562 25.710938 C 34.191406 25.710938 34.277344 25.691406 34.355469 25.652344 C 34.4375 25.617188 34.503906 25.5625 34.558594 25.492188 L 36.890625 22.578125 C 36.992188 22.453125 37.03125 22.308594 37.015625 22.148438 C 36.996094 21.988281 36.925781 21.859375 36.800781 21.757812 Z M 36.800781 21.757812 " fill-opacity="1" fill-rule="nonzero"/></g><g clip-path="url(#f6e09a6aa1)"><path fill="#ffffff" d="M 34.6875 30.375 L 34.6875 28.625 C 34.6875 28.464844 34.628906 28.328125 34.515625 28.214844 C 34.402344 28.101562 34.265625 28.042969 34.101562 28.042969 C 33.941406 28.042969 33.804688 28.101562 33.691406 28.214844 C 33.578125 28.328125 33.519531 28.464844 33.519531 28.625 L 33.519531 30.375 C 33.519531 30.53125 33.492188 30.679688 33.429688 30.820312 C 33.371094 30.964844 33.289062 31.089844 33.179688 31.199219 C 33.070312 31.308594 32.945312 31.394531 32.800781 31.453125 C 32.65625 31.511719 32.507812 31.542969 32.355469 31.542969 L 13.609375 31.542969 L 15.226562 30.246094 C 15.355469 30.148438 15.425781 30.015625 15.441406 29.855469 C 15.460938 29.695312 15.417969 29.554688 15.320312 29.429688 C 15.21875 29.300781 15.089844 29.230469 14.929688 29.210938 C 14.769531 29.195312 14.625 29.234375 14.5 29.335938 L 11.585938 31.667969 C 11.515625 31.722656 11.460938 31.792969 11.421875 31.871094 C 11.382812 31.953125 11.367188 32.035156 11.367188 32.125 C 11.367188 32.210938 11.382812 32.296875 11.421875 32.375 C 11.460938 32.457031 11.515625 32.523438 11.585938 32.578125 L 14.5 34.910156 C 14.625 35.011719 14.769531 35.054688 14.929688 35.035156 C 15.089844 35.019531 15.21875 34.945312 15.320312 34.820312 C 15.417969 34.695312 15.460938 34.550781 15.441406 34.390625 C 15.425781 34.230469 15.355469 34.101562 15.226562 34 L 13.609375 32.707031 L 32.355469 32.707031 C 32.664062 32.707031 32.960938 32.648438 33.246094 32.53125 C 33.53125 32.410156 33.785156 32.242188 34.003906 32.023438 C 34.222656 31.804688 34.390625 31.554688 34.507812 31.269531 C 34.628906 30.980469 34.6875 30.683594 34.6875 30.375 Z M 34.6875 30.375 " fill-opacity="1" fill-rule="nonzero"/></g><path fill="#ffffff" d="M 6.703125 32.707031 L 8.449219 32.707031 C 8.613281 32.707031 8.75 32.648438 8.863281 32.535156 C 8.976562 32.421875 9.035156 32.285156 9.035156 32.125 C 9.035156 31.964844 8.976562 31.824219 8.863281 31.710938 C 8.75 31.597656 8.613281 31.542969 8.449219 31.542969 L 6.703125 31.542969 C 6.546875 31.542969 6.398438 31.511719 6.253906 31.453125 C 6.113281 31.394531 5.988281 31.308594 5.878906 31.199219 C 5.769531 31.089844 5.683594 30.964844 5.625 30.820312 C 5.566406 30.679688 5.535156 30.53125 5.535156 30.375 L 5.535156 11.632812 L 6.828125 13.25 C 6.929688 13.375 7.058594 13.445312 7.21875 13.464844 C 7.378906 13.480469 7.523438 13.441406 7.648438 13.339844 C 7.773438 13.238281 7.847656 13.109375 7.863281 12.949219 C 7.882812 12.789062 7.839844 12.644531 7.738281 12.519531 L 5.40625 9.605469 C 5.289062 9.464844 5.136719 9.398438 4.953125 9.398438 C 4.769531 9.398438 4.617188 9.464844 4.496094 9.605469 L 2.164062 12.519531 C 2.066406 12.644531 2.023438 12.789062 2.042969 12.949219 C 2.058594 13.109375 2.128906 13.238281 2.257812 13.339844 C 2.382812 13.441406 2.523438 13.480469 2.683594 13.464844 C 2.84375 13.445312 2.976562 13.375 3.074219 13.25 L 4.371094 11.632812 L 4.371094 30.375 C 4.371094 30.683594 4.429688 30.980469 4.546875 31.269531 C 4.664062 31.554688 4.832031 31.804688 5.050781 32.023438 C 5.269531 32.242188 5.523438 32.410156 5.808594 32.53125 C 6.09375 32.648438 6.390625 32.707031 6.703125 32.707031 Z M 6.703125 32.707031 " fill-opacity="1" fill-rule="nonzero"/></svg>
