<svg xmlns="http://www.w3.org/2000/svg" xmlns:xlink="http://www.w3.org/1999/xlink" width="52" zoomAndPan="magnify" viewBox="0 0 39 38.999999" height="52" preserveAspectRatio="xMidYMid meet" version="1.0"><defs><clipPath id="35402f3b61"><path d="M 3.320312 4 L 34.820312 4 L 34.820312 35.398438 L 3.320312 35.398438 Z M 3.320312 4 " clip-rule="nonzero"/></clipPath></defs><g clip-path="url(#35402f3b61)"><path fill="#ffffff" d="M 16.945312 18.238281 C 17.445312 18.738281 18.140625 18.980469 18.84375 18.898438 C 19.984375 18.769531 20.167969 17.3125 20.242188 16.765625 C 20.285156 16.421875 20.441406 16.101562 20.6875 15.859375 C 21.296875 15.246094 22.296875 15.246094 22.90625 15.859375 C 23.203125 16.15625 23.367188 16.546875 23.367188 16.96875 C 23.367188 17.386719 23.207031 17.785156 22.910156 18.078125 C 22.664062 18.324219 22.339844 18.480469 22 18.523438 C 21.449219 18.59375 19.996094 18.78125 19.867188 19.921875 C 19.785156 20.628906 20.027344 21.316406 20.527344 21.820312 L 22.636719 23.929688 C 23.003906 24.296875 23.003906 24.902344 22.636719 25.269531 L 20.527344 27.378906 C 20.292969 27.609375 19.972656 27.722656 19.652344 27.6875 C 19.628906 27.679688 19.449219 27.546875 19.332031 26.625 C 19.253906 26.011719 18.96875 25.4375 18.53125 24.996094 C 17.441406 23.90625 15.660156 23.90625 14.566406 24.996094 C 14.035156 25.527344 13.742188 26.234375 13.742188 26.984375 C 13.742188 27.730469 14.035156 28.4375 14.566406 28.96875 C 15.003906 29.402344 15.578125 29.6875 16.191406 29.765625 C 17.113281 29.882812 17.246094 30.0625 17.253906 30.078125 C 17.289062 30.40625 17.175781 30.726562 16.945312 30.960938 L 14.835938 33.070312 C 14.46875 33.4375 13.863281 33.4375 13.496094 33.070312 L 11.386719 30.960938 C 10.886719 30.457031 10.191406 30.21875 9.492188 30.300781 C 8.347656 30.429688 8.160156 31.886719 8.089844 32.433594 C 8.046875 32.777344 7.886719 33.097656 7.648438 33.339844 C 7.351562 33.636719 6.953125 33.800781 6.535156 33.800781 C 6.113281 33.800781 5.722656 33.636719 5.425781 33.339844 C 4.8125 32.726562 4.8125 31.730469 5.425781 31.121094 C 5.667969 30.875 5.992188 30.71875 6.335938 30.671875 C 6.878906 30.605469 8.335938 30.417969 8.464844 29.277344 C 8.546875 28.570312 8.304688 27.882812 7.804688 27.378906 L 5.695312 25.269531 C 5.671875 25.246094 5.644531 25.222656 5.621094 25.207031 C 5.3125 24.835938 5.335938 24.277344 5.695312 23.929688 L 7.804688 21.820312 C 8.304688 21.316406 8.542969 20.628906 8.464844 19.921875 C 8.335938 18.78125 6.878906 18.59375 6.332031 18.523438 C 5.988281 18.480469 5.667969 18.324219 5.421875 18.078125 C 5.125 17.785156 4.964844 17.386719 4.964844 16.96875 C 4.964844 16.546875 5.128906 16.15625 5.425781 15.859375 C 6.039062 15.246094 7.035156 15.25 7.644531 15.855469 C 7.886719 16.101562 8.046875 16.421875 8.089844 16.765625 C 8.160156 17.3125 8.347656 18.769531 9.488281 18.898438 C 10.195312 18.980469 10.882812 18.738281 11.386719 18.238281 L 13.496094 16.128906 C 13.863281 15.757812 14.46875 15.757812 14.835938 16.128906 Z M 15.710938 13.914062 L 23.507812 6.113281 C 23.867188 5.757812 24.492188 5.757812 24.851562 6.113281 L 26.960938 8.222656 C 27.460938 8.726562 28.152344 8.960938 28.855469 8.882812 C 30 8.753906 30.183594 7.296875 30.257812 6.75 C 30.300781 6.410156 30.457031 6.085938 30.699219 5.84375 C 31.3125 5.230469 32.308594 5.230469 32.921875 5.84375 C 33.535156 6.453125 33.535156 7.453125 32.921875 8.0625 C 32.675781 8.308594 32.355469 8.46875 32.011719 8.511719 C 31.464844 8.582031 30.011719 8.765625 29.878906 9.910156 C 29.800781 10.613281 30.042969 11.304688 30.542969 11.804688 L 32.652344 13.914062 C 33.019531 14.28125 33.019531 14.886719 32.652344 15.253906 L 30.542969 17.363281 C 30.039062 17.867188 29.796875 18.554688 29.878906 19.261719 C 30.007812 20.402344 31.464844 20.589844 32.011719 20.660156 C 32.355469 20.703125 32.675781 20.859375 32.921875 21.105469 C 33.53125 21.714844 33.53125 22.710938 32.921875 23.324219 C 32.625 23.621094 32.230469 23.785156 31.8125 23.785156 C 31.8125 23.785156 31.8125 23.785156 31.808594 23.785156 C 31.390625 23.785156 30.996094 23.621094 30.699219 23.328125 C 30.457031 23.082031 30.296875 22.761719 30.253906 22.417969 C 30.183594 21.871094 30 20.414062 28.855469 20.285156 C 28.148438 20.203125 27.460938 20.445312 26.960938 20.945312 L 24.851562 23.054688 C 24.480469 23.425781 23.878906 23.425781 23.507812 23.054688 L 21.398438 20.945312 C 21.167969 20.714844 21.054688 20.390625 21.089844 20.070312 C 21.101562 20.046875 21.230469 19.871094 22.15625 19.75 C 22.765625 19.671875 23.34375 19.390625 23.78125 18.953125 C 24.308594 18.425781 24.601562 17.71875 24.601562 16.96875 C 24.601562 16.21875 24.308594 15.511719 23.78125 14.984375 C 22.6875 13.890625 20.90625 13.890625 19.808594 14.984375 C 19.375 15.421875 19.09375 16 19.015625 16.609375 C 18.898438 17.535156 18.714844 17.664062 18.703125 17.671875 C 18.375 17.710938 18.054688 17.597656 17.820312 17.363281 L 15.710938 15.253906 C 15.339844 14.886719 15.339844 14.28125 15.710938 13.914062 Z M 12.621094 15.253906 L 10.511719 17.363281 C 10.277344 17.597656 9.957031 17.710938 9.636719 17.675781 C 9.613281 17.664062 9.433594 17.535156 9.316406 16.609375 C 9.238281 16 8.953125 15.421875 8.519531 14.984375 C 7.425781 13.890625 5.644531 13.890625 4.550781 14.984375 C 4.019531 15.511719 3.726562 16.21875 3.726562 16.96875 C 3.726562 17.71875 4.019531 18.425781 4.550781 18.953125 C 4.988281 19.390625 5.5625 19.671875 6.175781 19.75 C 7.097656 19.871094 7.230469 20.046875 7.238281 20.0625 C 7.273438 20.390625 7.160156 20.710938 6.929688 20.945312 L 4.824219 23.050781 C 3.964844 23.898438 3.953125 25.277344 4.796875 26.132812 C 4.824219 26.164062 4.855469 26.1875 4.886719 26.210938 L 6.929688 28.253906 C 7.164062 28.488281 7.273438 28.808594 7.242188 29.128906 C 7.230469 29.148438 7.097656 29.328125 6.175781 29.449219 C 5.5625 29.527344 4.988281 29.808594 4.550781 30.242188 C 3.457031 31.339844 3.457031 33.121094 4.550781 34.214844 C 5.078125 34.746094 5.785156 35.035156 6.535156 35.035156 C 7.285156 35.035156 7.988281 34.746094 8.519531 34.214844 C 8.953125 33.777344 9.238281 33.199219 9.316406 32.589844 C 9.433594 31.664062 9.617188 31.535156 9.628906 31.527344 C 9.953125 31.488281 10.277344 31.601562 10.511719 31.835938 L 12.621094 33.945312 C 13.472656 34.796875 14.859375 34.796875 15.710938 33.945312 L 17.820312 31.835938 C 18.316406 31.335938 18.558594 30.640625 18.480469 29.9375 C 18.351562 28.796875 16.894531 28.609375 16.347656 28.539062 C 16.003906 28.496094 15.679688 28.335938 15.4375 28.09375 C 15.140625 27.796875 14.976562 27.402344 14.976562 26.984375 C 14.976562 26.5625 15.140625 26.171875 15.4375 25.875 C 16.050781 25.261719 17.046875 25.261719 17.660156 25.871094 C 17.90625 26.121094 18.058594 26.433594 18.105469 26.78125 C 18.175781 27.328125 18.359375 28.785156 19.503906 28.914062 C 20.210938 28.992188 20.898438 28.753906 21.398438 28.253906 L 23.507812 26.144531 C 23.90625 25.746094 24.152344 25.210938 24.140625 24.558594 C 24.714844 24.570312 25.289062 24.363281 25.726562 23.929688 L 27.832031 21.820312 C 28.066406 21.585938 28.390625 21.472656 28.710938 21.507812 C 28.730469 21.519531 28.910156 21.652344 29.027344 22.574219 C 29.109375 23.183594 29.386719 23.761719 29.824219 24.203125 C 30.355469 24.730469 31.058594 25.023438 31.808594 25.023438 C 31.8125 25.023438 31.8125 25.023438 31.8125 25.023438 C 32.558594 25.023438 33.261719 24.730469 33.792969 24.199219 C 34.886719 23.105469 34.886719 21.324219 33.792969 20.230469 C 33.359375 19.792969 32.78125 19.511719 32.167969 19.433594 C 31.246094 19.3125 31.117188 19.136719 31.105469 19.121094 C 31.070312 18.792969 31.179688 18.472656 31.414062 18.238281 L 33.523438 16.128906 C 33.9375 15.714844 34.164062 15.167969 34.164062 14.585938 C 34.164062 14 33.9375 13.453125 33.523438 13.039062 L 31.414062 10.929688 C 31.183594 10.695312 31.070312 10.375 31.105469 10.054688 C 31.117188 10.035156 31.246094 9.855469 32.171875 9.734375 C 32.78125 9.65625 33.359375 9.375 33.792969 8.941406 C 34.890625 7.84375 34.890625 6.0625 33.792969 4.96875 C 32.703125 3.875 30.921875 3.875 29.824219 4.96875 C 29.390625 5.40625 29.109375 5.984375 29.03125 6.59375 C 28.914062 7.519531 28.730469 7.648438 28.71875 7.660156 C 28.386719 7.695312 28.066406 7.582031 27.832031 7.347656 L 25.726562 5.242188 C 24.898438 4.414062 23.460938 4.414062 22.636719 5.242188 L 14.835938 13.039062 C 14.433594 13.441406 14.1875 13.96875 14.207031 14.644531 C 13.628906 14.632812 13.046875 14.832031 12.621094 15.253906 " fill-opacity="1" fill-rule="nonzero"/></g></svg>
