<svg xmlns="http://www.w3.org/2000/svg" xmlns:xlink="http://www.w3.org/1999/xlink" width="52" zoomAndPan="magnify" viewBox="0 0 39 38.999999" height="52" preserveAspectRatio="xMidYMid meet" version="1.0"><defs><clipPath id="b38641e555"><path d="M 6.5625 2.28125 L 33.5625 2.28125 L 33.5625 35.28125 L 6.5625 35.28125 Z M 6.5625 2.28125 " clip-rule="nonzero"/></clipPath></defs><g clip-path="url(#b38641e555)"><path fill="#ffffff" d="M 7.328125 22.023438 L 7.332031 23.285156 C 7.671875 23.402344 8.265625 23.550781 8.808594 23.683594 C 9.265625 23.796875 9.683594 23.898438 9.917969 23.980469 L 9.9375 23.988281 C 10.335938 24.136719 10.421875 24.40625 10.566406 24.871094 C 10.628906 25.070312 10.707031 25.316406 10.835938 25.613281 C 10.941406 25.84375 11.027344 26.019531 11.097656 26.152344 L 11.109375 26.179688 C 11.234375 26.425781 11.296875 26.558594 11.292969 26.757812 C 11.285156 26.976562 11.195312 27.128906 11.007812 27.441406 C 10.949219 27.542969 10.875 27.664062 10.765625 27.859375 C 10.71875 27.945312 10.625 28.101562 10.515625 28.28125 C 10.292969 28.652344 10.007812 29.128906 9.867188 29.433594 L 12.171875 31.742188 C 12.425781 31.617188 12.800781 31.394531 13.066406 31.238281 L 13.289062 31.105469 C 13.585938 30.929688 13.796875 30.800781 13.964844 30.699219 C 14.359375 30.453125 14.546875 30.335938 14.785156 30.3125 C 15.03125 30.289062 15.1875 30.371094 15.484375 30.523438 C 15.644531 30.605469 15.855469 30.714844 16.164062 30.847656 L 16.179688 30.851562 C 16.261719 30.886719 16.378906 30.921875 16.507812 30.960938 C 16.851562 31.066406 17.242188 31.1875 17.445312 31.390625 L 17.472656 31.414062 C 17.65625 31.632812 17.820312 32.328125 17.992188 33.039062 C 18.105469 33.511719 18.222656 33.992188 18.320312 34.285156 L 21.613281 34.277344 C 21.714844 33.984375 21.832031 33.5 21.945312 33.023438 L 21.953125 32.992188 C 22.117188 32.304688 22.277344 31.640625 22.460938 31.421875 L 22.488281 31.390625 C 22.695312 31.183594 23.082031 31.066406 23.429688 30.957031 C 23.582031 30.910156 23.722656 30.867188 23.8125 30.828125 C 24.074219 30.714844 24.261719 30.617188 24.40625 30.542969 C 24.734375 30.378906 24.902344 30.289062 25.167969 30.320312 C 25.421875 30.34375 25.636719 30.476562 26.082031 30.753906 C 26.226562 30.84375 26.402344 30.953125 26.675781 31.113281 L 26.859375 31.222656 C 27.128906 31.386719 27.503906 31.613281 27.761719 31.738281 L 30.070312 29.433594 C 29.9375 29.15625 29.683594 28.738281 29.46875 28.378906 C 29.34375 28.175781 29.230469 27.988281 29.140625 27.820312 C 29.054688 27.664062 28.96875 27.519531 28.898438 27.398438 C 28.722656 27.09375 28.640625 26.953125 28.636719 26.738281 C 28.632812 26.539062 28.699219 26.414062 28.824219 26.175781 L 28.835938 26.15625 C 28.902344 26.03125 28.988281 25.867188 29.097656 25.613281 C 29.273438 25.214844 29.355469 24.945312 29.410156 24.75 C 29.558594 24.246094 29.605469 24.089844 30.144531 23.945312 C 30.296875 23.902344 30.535156 23.839844 30.8125 23.769531 C 31.421875 23.613281 32.214844 23.410156 32.609375 23.277344 L 32.609375 22.023438 L 26.574219 22.023438 C 26.480469 23.699219 25.761719 25.210938 24.648438 26.324219 C 23.449219 27.519531 21.792969 28.261719 19.96875 28.261719 C 18.140625 28.261719 16.484375 27.519531 15.289062 26.324219 C 14.175781 25.210938 13.457031 23.699219 13.359375 22.023438 Z M 27.078125 5.476562 C 27.078125 5.261719 27.25 5.089844 27.460938 5.089844 C 27.671875 5.089844 27.84375 5.261719 27.84375 5.476562 L 27.84375 18.863281 C 27.84375 19.074219 27.671875 19.246094 27.460938 19.246094 C 27.25 19.246094 27.078125 19.074219 27.078125 18.863281 Z M 24.914062 5.476562 C 24.914062 5.261719 25.085938 5.089844 25.296875 5.089844 C 25.507812 5.089844 25.679688 5.261719 25.679688 5.476562 L 25.679688 18.863281 C 25.679688 19.074219 25.507812 19.246094 25.296875 19.246094 C 25.085938 19.246094 24.914062 19.074219 24.914062 18.863281 Z M 24.035156 21.257812 L 30.59375 21.257812 L 30.59375 3.082031 L 22.164062 3.082031 L 22.164062 6.910156 L 23.46875 6.339844 C 23.523438 6.3125 23.585938 6.296875 23.648438 6.296875 C 23.863281 6.296875 24.035156 6.46875 24.035156 6.679688 Z M 22.070312 7.785156 L 23.265625 7.265625 L 23.265625 21.257812 L 20.546875 21.257812 L 20.546875 18.988281 C 20.546875 18.773438 20.375 18.601562 20.164062 18.601562 L 17.863281 18.601562 C 17.648438 18.601562 17.476562 18.773438 17.476562 18.988281 L 17.476562 21.257812 L 14.761719 21.257812 L 14.761719 10.984375 L 18.363281 9.410156 C 18.382812 9.402344 18.398438 9.394531 18.417969 9.382812 L 21.765625 7.921875 L 21.78125 7.921875 C 21.898438 7.921875 22 7.867188 22.070312 7.785156 Z M 21.398438 7.246094 L 21.398438 2.699219 C 21.398438 2.488281 21.570312 2.316406 21.78125 2.316406 L 30.976562 2.316406 C 31.1875 2.316406 31.359375 2.488281 31.359375 2.699219 L 31.359375 21.257812 L 32.988281 21.257812 C 33.199219 21.257812 33.371094 21.429688 33.371094 21.640625 L 33.375 23.507812 C 33.386719 23.65625 33.3125 23.804688 33.171875 23.878906 C 32.886719 24.027344 31.796875 24.304688 31 24.511719 C 30.734375 24.578125 30.503906 24.636719 30.34375 24.679688 C 30.21875 24.714844 30.203125 24.773438 30.144531 24.96875 C 30.082031 25.183594 29.992188 25.488281 29.800781 25.921875 C 29.6875 26.175781 29.589844 26.367188 29.511719 26.511719 L 29.402344 26.726562 C 29.402344 26.738281 29.453125 26.828125 29.5625 27.015625 C 29.625 27.121094 29.699219 27.253906 29.8125 27.457031 C 29.871094 27.570312 29.992188 27.765625 30.125 27.984375 C 30.425781 28.484375 30.789062 29.082031 30.886719 29.425781 C 30.921875 29.554688 30.886719 29.699219 30.785156 29.800781 L 28.136719 32.445312 C 28.042969 32.550781 27.894531 32.597656 27.75 32.554688 C 27.429688 32.464844 26.847656 32.113281 26.464844 31.878906 L 26.285156 31.773438 C 26.074219 31.648438 25.855469 31.511719 25.679688 31.402344 C 25.335938 31.191406 25.167969 31.089844 25.089844 31.078125 C 25.046875 31.074219 24.945312 31.125 24.753906 31.222656 C 24.597656 31.304688 24.390625 31.410156 24.117188 31.53125 C 23.988281 31.585938 23.824219 31.636719 23.652344 31.6875 C 23.40625 31.765625 23.136719 31.847656 23.042969 31.917969 C 22.964844 32.046875 22.832031 32.597656 22.699219 33.171875 L 22.691406 33.203125 C 22.535156 33.859375 22.371094 34.535156 22.203125 34.84375 C 22.136719 34.960938 22.011719 35.039062 21.867188 35.039062 L 18.078125 35.046875 C 17.941406 35.050781 17.804688 34.980469 17.734375 34.847656 C 17.570312 34.550781 17.40625 33.875 17.25 33.21875 C 17.105469 32.621094 16.964844 32.039062 16.890625 31.917969 C 16.800781 31.851562 16.527344 31.765625 16.285156 31.691406 C 16.136719 31.648438 16 31.605469 15.886719 31.558594 L 15.863281 31.550781 C 15.53125 31.410156 15.304688 31.289062 15.132812 31.203125 C 14.96875 31.117188 14.882812 31.070312 14.855469 31.074219 C 14.800781 31.082031 14.65625 31.167969 14.363281 31.347656 C 14.183594 31.460938 13.949219 31.605469 13.671875 31.765625 L 13.460938 31.894531 C 13.074219 32.125 12.488281 32.472656 12.183594 32.558594 C 12.054688 32.59375 11.910156 32.5625 11.808594 32.460938 L 9.152344 29.796875 C 9.054688 29.703125 9.011719 29.5625 9.050781 29.425781 C 9.144531 29.082031 9.558594 28.394531 9.859375 27.890625 C 9.949219 27.738281 10.027344 27.609375 10.097656 27.484375 C 10.183594 27.332031 10.277344 27.175781 10.351562 27.050781 C 10.472656 26.851562 10.527344 26.753906 10.527344 26.734375 C 10.527344 26.726562 10.496094 26.65625 10.429688 26.527344 L 10.414062 26.5 C 10.34375 26.363281 10.25 26.183594 10.136719 25.921875 C 9.988281 25.589844 9.902344 25.316406 9.835938 25.097656 C 9.761719 24.867188 9.71875 24.730469 9.671875 24.703125 L 9.664062 24.703125 C 9.472656 24.636719 9.066406 24.535156 8.625 24.425781 C 7.914062 24.25 7.109375 24.054688 6.78125 23.882812 C 6.65625 23.820312 6.570312 23.6875 6.570312 23.539062 L 6.5625 21.675781 L 6.5625 21.640625 C 6.5625 21.429688 6.734375 21.257812 6.945312 21.257812 L 8.582031 21.257812 L 8.582031 3.523438 C 8.582031 3.308594 8.753906 3.136719 8.964844 3.136719 C 9.03125 3.136719 9.09375 3.15625 9.144531 3.183594 L 18.390625 7.226562 C 18.535156 7.289062 18.621094 7.429688 18.621094 7.574219 L 18.621094 8.460938 Z M 25.804688 22.023438 C 25.710938 23.488281 25.078125 24.804688 24.105469 25.78125 C 23.046875 26.839844 21.582031 27.496094 19.96875 27.496094 C 18.351562 27.496094 16.890625 26.839844 15.832031 25.78125 C 14.855469 24.808594 14.222656 23.488281 14.128906 22.023438 Z M 9.347656 18.769531 L 12.226562 18.769531 C 12.4375 18.769531 12.609375 18.941406 12.609375 19.152344 C 12.609375 19.363281 12.4375 19.535156 12.226562 19.535156 L 9.347656 19.535156 L 9.347656 21.257812 L 13.992188 21.257812 L 13.992188 10.734375 C 13.996094 10.585938 14.082031 10.445312 14.222656 10.382812 L 17.855469 8.796875 L 17.855469 7.824219 L 9.347656 4.105469 L 9.347656 7.214844 L 12.226562 7.214844 C 12.4375 7.214844 12.609375 7.386719 12.609375 7.597656 C 12.609375 7.8125 12.4375 7.984375 12.226562 7.984375 L 9.347656 7.984375 L 9.347656 9.527344 L 12.226562 9.527344 C 12.4375 9.527344 12.609375 9.699219 12.609375 9.910156 C 12.609375 10.121094 12.4375 10.292969 12.226562 10.292969 L 9.347656 10.292969 L 9.347656 11.835938 L 12.226562 11.835938 C 12.4375 11.835938 12.609375 12.007812 12.609375 12.21875 C 12.609375 12.433594 12.4375 12.605469 12.226562 12.605469 L 9.347656 12.605469 L 9.347656 14.148438 L 12.226562 14.148438 C 12.4375 14.148438 12.609375 14.320312 12.609375 14.53125 C 12.609375 14.742188 12.4375 14.914062 12.226562 14.914062 L 9.347656 14.914062 L 9.347656 16.457031 L 12.226562 16.457031 C 12.4375 16.457031 12.609375 16.628906 12.609375 16.839844 C 12.609375 17.050781 12.4375 17.222656 12.226562 17.222656 L 9.347656 17.222656 Z M 19.78125 21.257812 L 19.78125 19.371094 L 18.246094 19.371094 L 18.246094 21.257812 Z M 20.234375 17.054688 L 21.429688 17.054688 L 21.429688 15.855469 L 20.234375 15.855469 Z M 21.816406 17.820312 L 19.851562 17.820312 C 19.640625 17.820312 19.46875 17.648438 19.46875 17.4375 L 19.46875 15.472656 C 19.46875 15.261719 19.640625 15.089844 19.851562 15.089844 L 21.816406 15.089844 C 22.027344 15.089844 22.199219 15.261719 22.199219 15.472656 L 22.199219 17.4375 C 22.199219 17.648438 22.027344 17.820312 21.816406 17.820312 Z M 16.59375 17.054688 L 17.792969 17.054688 L 17.792969 15.855469 L 16.59375 15.855469 Z M 18.175781 17.820312 C 18.386719 17.820312 18.558594 17.648438 18.558594 17.4375 L 18.558594 15.472656 C 18.558594 15.261719 18.386719 15.089844 18.175781 15.089844 L 16.210938 15.089844 C 16 15.089844 15.828125 15.261719 15.828125 15.472656 L 15.828125 17.4375 C 15.828125 17.648438 16 17.820312 16.210938 17.820312 Z M 20.234375 13.589844 L 21.429688 13.589844 L 21.429688 12.394531 L 20.234375 12.394531 Z M 21.816406 14.355469 L 19.851562 14.355469 C 19.640625 14.355469 19.46875 14.183594 19.46875 13.972656 L 19.46875 12.007812 C 19.46875 11.796875 19.640625 11.625 19.851562 11.625 L 21.816406 11.625 C 22.027344 11.625 22.199219 11.796875 22.199219 12.007812 L 22.199219 13.972656 C 22.199219 14.183594 22.027344 14.355469 21.816406 14.355469 Z M 16.59375 13.589844 L 17.792969 13.589844 L 17.792969 12.394531 L 16.59375 12.394531 Z M 18.175781 14.355469 C 18.386719 14.355469 18.558594 14.183594 18.558594 13.972656 L 18.558594 12.007812 C 18.558594 11.796875 18.386719 11.625 18.175781 11.625 L 16.210938 11.625 C 16 11.625 15.828125 11.796875 15.828125 12.007812 L 15.828125 13.972656 C 15.828125 14.183594 16 14.355469 16.210938 14.355469 Z M 18.175781 14.355469 " fill-opacity="1" fill-rule="evenodd"/></g></svg>
