<svg xmlns="http://www.w3.org/2000/svg" xmlns:xlink="http://www.w3.org/1999/xlink" width="40" zoomAndPan="magnify" viewBox="0 0 30 30.000001" height="40" preserveAspectRatio="xMidYMid meet" version="1.0"><defs><clipPath id="80ab4388fb"><path d="M 0.484375 0 L 29.515625 0 L 29.515625 29.03125 L 0.484375 29.03125 Z M 0.484375 0 " clip-rule="nonzero"/></clipPath><clipPath id="79534801fd"><path d="M 4.214844 2.902344 L 26.714844 2.902344 L 26.714844 25.402344 L 4.214844 25.402344 Z M 4.214844 2.902344 " clip-rule="nonzero"/></clipPath></defs><g clip-path="url(#80ab4388fb)"><path fill="#ffffff" d="M 0.484375 0 L 29.515625 0 L 29.515625 29.03125 L 0.484375 29.03125 Z M 0.484375 0 " fill-opacity="1" fill-rule="nonzero"/><path fill="#01222c" d="M 0.484375 0 L 29.515625 0 L 29.515625 29.03125 L 0.484375 29.03125 Z M 0.484375 0 " fill-opacity="1" fill-rule="nonzero"/></g><g clip-path="url(#79534801fd)"><path fill="#ffffff" d="M 21.453125 9.445312 L 21.453125 7.460938 C 21.453125 7.308594 21.578125 7.183594 21.734375 7.183594 L 23.714844 7.183594 C 23.871094 7.183594 23.996094 7.308594 23.996094 7.460938 C 23.996094 7.617188 23.871094 7.742188 23.714844 7.742188 L 22.421875 7.742188 C 23.195312 8.546875 23.820312 9.46875 24.28125 10.492188 C 24.84375 11.75 25.128906 13.085938 25.128906 14.472656 C 25.128906 14.628906 25.003906 14.753906 24.851562 14.753906 C 24.699219 14.753906 24.574219 14.628906 24.574219 14.472656 C 24.574219 12.105469 23.644531 9.820312 22.011719 8.121094 L 22.011719 9.445312 C 22.011719 9.597656 21.886719 9.722656 21.734375 9.722656 C 21.578125 9.722656 21.453125 9.597656 21.453125 9.445312 Z M 19.023438 22.996094 L 17.246094 22.117188 C 17.109375 22.046875 16.941406 22.105469 16.871094 22.242188 C 16.804688 22.382812 16.859375 22.546875 17 22.617188 L 18.191406 23.207031 C 17.296875 23.488281 16.363281 23.632812 15.414062 23.632812 C 14.242188 23.632812 13.101562 23.417969 12.023438 22.988281 C 11.882812 22.929688 11.71875 23 11.664062 23.144531 C 11.605469 23.285156 11.675781 23.449219 11.816406 23.503906 C 12.960938 23.960938 14.171875 24.191406 15.414062 24.191406 C 16.417969 24.191406 17.398438 24.039062 18.34375 23.742188 L 17.773438 24.898438 C 17.703125 25.039062 17.761719 25.203125 17.898438 25.273438 C 17.9375 25.292969 17.980469 25.300781 18.019531 25.300781 C 18.125 25.300781 18.222656 25.246094 18.269531 25.144531 L 19.148438 23.367188 C 19.21875 23.230469 19.160156 23.0625 19.023438 22.996094 Z M 5.765625 14.429688 C 5.820312 14.496094 5.898438 14.527344 5.976562 14.527344 C 6.039062 14.527344 6.105469 14.503906 6.160156 14.460938 L 7.660156 13.167969 C 7.777344 13.066406 7.792969 12.890625 7.691406 12.773438 C 7.589844 12.660156 7.414062 12.644531 7.296875 12.746094 L 6.292969 13.609375 C 6.503906 11.320312 7.554688 9.226562 9.277344 7.671875 C 9.394531 7.566406 9.402344 7.390625 9.300781 7.277344 C 9.195312 7.160156 9.019531 7.152344 8.90625 7.257812 C 7.949219 8.117188 7.1875 9.140625 6.632812 10.300781 C 6.144531 11.324219 5.847656 12.414062 5.738281 13.542969 L 4.894531 12.5625 C 4.796875 12.445312 4.621094 12.433594 4.503906 12.535156 C 4.386719 12.632812 4.371094 12.808594 4.472656 12.925781 Z M 10.441406 16.886719 C 11.132812 17.574219 11.511719 18.492188 11.511719 19.464844 C 11.511719 20.441406 11.132812 21.355469 10.441406 22.046875 C 9.730469 22.757812 8.796875 23.113281 7.863281 23.113281 C 6.929688 23.113281 5.992188 22.757812 5.28125 22.046875 C 4.59375 21.355469 4.214844 20.441406 4.214844 19.464844 C 4.214844 18.492188 4.59375 17.574219 5.28125 16.886719 C 6.707031 15.464844 9.019531 15.464844 10.441406 16.886719 Z M 9.71875 21.9375 C 9.554688 21.214844 8.902344 20.6875 8.148438 20.6875 L 7.574219 20.6875 C 6.820312 20.6875 6.171875 21.214844 6.003906 21.9375 C 7.101562 22.761719 8.625 22.761719 9.71875 21.9375 Z M 8.796875 19.078125 C 8.796875 18.5625 8.378906 18.144531 7.863281 18.144531 C 7.347656 18.144531 6.929688 18.5625 6.929688 19.078125 C 6.929688 19.59375 7.347656 20.011719 7.863281 20.011719 C 8.378906 20.011719 8.796875 19.59375 8.796875 19.078125 Z M 10.953125 19.464844 C 10.953125 18.640625 10.632812 17.863281 10.046875 17.28125 C 8.84375 16.078125 6.882812 16.078125 5.675781 17.28125 C 5.09375 17.863281 4.773438 18.640625 4.773438 19.464844 C 4.773438 20.230469 5.046875 20.953125 5.550781 21.519531 C 5.789062 20.90625 6.296875 20.429688 6.917969 20.230469 C 6.585938 19.957031 6.371094 19.542969 6.371094 19.078125 C 6.371094 18.253906 7.039062 17.585938 7.863281 17.585938 C 8.683594 17.585938 9.355469 18.253906 9.355469 19.078125 C 9.355469 19.542969 9.140625 19.957031 8.804688 20.230469 C 9.429688 20.429688 9.933594 20.90625 10.171875 21.519531 C 10.675781 20.953125 10.953125 20.230469 10.953125 19.464844 Z M 26.613281 17.167969 L 26.613281 22.835938 C 26.613281 22.988281 26.488281 23.113281 26.332031 23.113281 L 20.445312 23.113281 C 20.292969 23.113281 20.167969 22.988281 20.167969 22.835938 L 20.167969 17.167969 C 20.167969 17.015625 20.292969 16.890625 20.445312 16.890625 L 26.332031 16.890625 C 26.488281 16.890625 26.613281 17.015625 26.613281 17.167969 Z M 22.707031 18.578125 L 23.230469 18.214844 C 23.324219 18.148438 23.453125 18.148438 23.546875 18.214844 L 24.070312 18.578125 L 24.070312 17.449219 L 22.707031 17.449219 Z M 20.726562 17.449219 L 20.726562 21.269531 L 26.054688 21.269531 L 26.054688 17.449219 L 24.628906 17.449219 L 24.628906 19.109375 C 24.628906 19.214844 24.570312 19.308594 24.480469 19.359375 C 24.4375 19.378906 24.394531 19.390625 24.351562 19.390625 C 24.292969 19.390625 24.238281 19.375 24.191406 19.339844 L 23.386719 18.78125 L 22.589844 19.339844 C 22.503906 19.398438 22.390625 19.40625 22.300781 19.359375 C 22.207031 19.308594 22.152344 19.214844 22.152344 19.109375 L 22.152344 17.449219 Z M 26.054688 22.558594 L 26.054688 21.828125 L 20.726562 21.828125 L 20.726562 22.558594 Z M 12.375 7.75 C 11.835938 7.210938 11.542969 6.5 11.542969 5.742188 C 11.542969 4.984375 11.835938 4.269531 12.375 3.734375 C 12.910156 3.199219 13.621094 2.902344 14.382812 2.902344 C 15.140625 2.902344 15.851562 3.199219 16.386719 3.734375 C 17.269531 4.617188 17.449219 5.9375 16.925781 7 L 19.019531 9.089844 C 19.191406 9.261719 19.285156 9.492188 19.285156 9.734375 C 19.285156 9.980469 19.191406 10.207031 19.019531 10.378906 C 18.839844 10.554688 18.605469 10.644531 18.375 10.644531 C 18.140625 10.644531 17.90625 10.554688 17.730469 10.378906 L 15.636719 8.289062 C 15.25 8.480469 14.824219 8.582031 14.382812 8.582031 C 13.621094 8.582031 12.910156 8.285156 12.375 7.75 Z M 18.625 9.484375 L 17.421875 8.28125 L 16.921875 8.78125 L 18.125 9.984375 C 18.261719 10.121094 18.484375 10.121094 18.625 9.984375 C 18.691406 9.917969 18.726562 9.828125 18.726562 9.734375 C 18.726562 9.640625 18.691406 9.550781 18.625 9.484375 Z M 16.621094 7.484375 C 16.550781 7.574219 16.472656 7.664062 16.386719 7.75 C 16.304688 7.832031 16.214844 7.910156 16.121094 7.984375 L 16.527344 8.386719 L 17.027344 7.886719 Z M 12.101562 5.742188 C 12.101562 6.351562 12.335938 6.925781 12.769531 7.355469 C 13.199219 7.785156 13.773438 8.023438 14.382812 8.023438 C 14.988281 8.023438 15.5625 7.785156 15.992188 7.355469 C 16.425781 6.925781 16.664062 6.351562 16.664062 5.742188 C 16.664062 5.132812 16.425781 4.558594 15.992188 4.128906 C 15.5625 3.699219 14.988281 3.460938 14.382812 3.460938 C 13.773438 3.460938 13.199219 3.699219 12.769531 4.128906 C 12.335938 4.558594 12.101562 5.132812 12.101562 5.742188 Z M 17.320312 14.867188 C 17.320312 15.921875 16.464844 16.777344 15.414062 16.777344 C 14.359375 16.777344 13.503906 15.921875 13.503906 14.867188 C 13.503906 13.816406 14.359375 12.960938 15.414062 12.960938 C 16.464844 12.960938 17.320312 13.816406 17.320312 14.867188 Z M 16.765625 14.867188 C 16.765625 14.125 16.15625 13.515625 15.414062 13.515625 C 14.667969 13.515625 14.0625 14.125 14.0625 14.867188 C 14.0625 15.613281 14.667969 16.21875 15.414062 16.21875 C 16.15625 16.21875 16.765625 15.613281 16.765625 14.867188 Z M 19.03125 14.203125 L 18.652344 14.421875 C 18.671875 14.570312 18.683594 14.71875 18.683594 14.867188 C 18.683594 15.015625 18.671875 15.167969 18.652344 15.3125 L 19.03125 15.53125 C 19.175781 15.617188 19.277344 15.75 19.320312 15.910156 C 19.363281 16.070312 19.34375 16.238281 19.257812 16.382812 L 18.648438 17.441406 C 18.566406 17.585938 18.429688 17.6875 18.269531 17.730469 C 18.109375 17.773438 17.941406 17.753906 17.796875 17.667969 L 17.417969 17.449219 C 17.183594 17.632812 16.921875 17.785156 16.648438 17.894531 L 16.648438 18.332031 C 16.648438 18.675781 16.367188 18.957031 16.023438 18.957031 L 14.804688 18.957031 C 14.460938 18.957031 14.179688 18.675781 14.179688 18.332031 L 14.179688 17.894531 C 13.902344 17.785156 13.644531 17.632812 13.410156 17.449219 L 13.03125 17.667969 C 12.886719 17.753906 12.71875 17.773438 12.558594 17.730469 C 12.394531 17.6875 12.261719 17.585938 12.179688 17.441406 L 11.566406 16.382812 C 11.394531 16.085938 11.5 15.703125 11.796875 15.53125 L 12.175781 15.3125 C 12.15625 15.167969 12.144531 15.019531 12.144531 14.867188 C 12.144531 14.71875 12.15625 14.570312 12.175781 14.421875 L 11.796875 14.203125 C 11.5 14.03125 11.398438 13.652344 11.566406 13.355469 L 12.179688 12.296875 C 12.261719 12.152344 12.394531 12.050781 12.558594 12.007812 C 12.71875 11.960938 12.886719 11.984375 13.03125 12.066406 L 13.410156 12.285156 C 13.644531 12.101562 13.902344 11.953125 14.179688 11.839844 L 14.179688 11.402344 C 14.179688 11.058594 14.460938 10.78125 14.804688 10.78125 L 16.023438 10.78125 C 16.367188 10.78125 16.648438 11.058594 16.648438 11.402344 L 16.648438 11.839844 C 16.925781 11.953125 17.183594 12.101562 17.417969 12.285156 L 17.796875 12.066406 C 17.941406 11.984375 18.109375 11.960938 18.269531 12.007812 C 18.429688 12.050781 18.566406 12.152344 18.648438 12.296875 L 19.257812 13.355469 C 19.34375 13.496094 19.363281 13.664062 19.320312 13.824219 C 19.277344 13.988281 19.175781 14.121094 19.03125 14.203125 Z M 18.777344 13.632812 L 18.164062 12.574219 C 18.152344 12.554688 18.136719 12.546875 18.125 12.542969 C 18.113281 12.542969 18.09375 12.539062 18.074219 12.550781 L 17.527344 12.867188 C 17.425781 12.925781 17.292969 12.914062 17.203125 12.832031 C 16.933594 12.59375 16.621094 12.414062 16.277344 12.296875 C 16.164062 12.257812 16.089844 12.152344 16.089844 12.03125 L 16.089844 11.402344 C 16.089844 11.367188 16.058594 11.335938 16.023438 11.335938 L 14.800781 11.335938 C 14.765625 11.335938 14.738281 11.367188 14.738281 11.402344 L 14.738281 12.03125 C 14.738281 12.152344 14.660156 12.257812 14.546875 12.296875 C 14.203125 12.414062 13.894531 12.59375 13.621094 12.832031 C 13.53125 12.914062 13.398438 12.925781 13.296875 12.867188 L 12.75 12.550781 C 12.730469 12.539062 12.710938 12.542969 12.699219 12.542969 C 12.691406 12.546875 12.671875 12.554688 12.660156 12.574219 L 12.050781 13.632812 C 12.03125 13.664062 12.042969 13.703125 12.074219 13.722656 L 12.621094 14.035156 C 12.722656 14.097656 12.777344 14.214844 12.753906 14.332031 C 12.71875 14.507812 12.699219 14.6875 12.699219 14.867188 C 12.699219 15.046875 12.71875 15.230469 12.753906 15.402344 C 12.777344 15.519531 12.722656 15.640625 12.621094 15.699219 L 12.074219 16.015625 C 12.042969 16.035156 12.03125 16.074219 12.050781 16.105469 L 12.660156 17.164062 C 12.671875 17.183594 12.691406 17.191406 12.699219 17.191406 C 12.710938 17.195312 12.730469 17.199219 12.75 17.1875 L 13.296875 16.871094 C 13.339844 16.847656 13.386719 16.835938 13.4375 16.835938 C 13.503906 16.835938 13.570312 16.859375 13.621094 16.902344 C 13.894531 17.144531 14.203125 17.324219 14.546875 17.441406 C 14.660156 17.476562 14.738281 17.585938 14.738281 17.703125 L 14.738281 18.335938 C 14.738281 18.371094 14.765625 18.402344 14.800781 18.402344 L 16.023438 18.402344 C 16.058594 18.402344 16.089844 18.371094 16.089844 18.335938 L 16.089844 17.703125 C 16.089844 17.585938 16.164062 17.480469 16.277344 17.441406 C 16.621094 17.324219 16.933594 17.144531 17.207031 16.902344 C 17.296875 16.824219 17.425781 16.8125 17.527344 16.871094 L 18.078125 17.1875 C 18.097656 17.199219 18.117188 17.195312 18.125 17.191406 C 18.136719 17.191406 18.152344 17.183594 18.164062 17.164062 L 18.777344 16.105469 C 18.789062 16.085938 18.785156 16.066406 18.78125 16.054688 C 18.777344 16.046875 18.773438 16.027344 18.75 16.015625 L 18.207031 15.699219 C 18.101562 15.640625 18.046875 15.519531 18.070312 15.402344 C 18.105469 15.230469 18.125 15.046875 18.125 14.867188 C 18.125 14.6875 18.105469 14.507812 18.070312 14.332031 C 18.046875 14.214844 18.101562 14.097656 18.207031 14.035156 L 18.75 13.722656 C 18.78125 13.703125 18.792969 13.664062 18.777344 13.632812 Z M 18.777344 13.632812 " fill-opacity="1" fill-rule="nonzero"/></g></svg>