<svg xmlns="http://www.w3.org/2000/svg" xmlns:xlink="http://www.w3.org/1999/xlink" width="52" zoomAndPan="magnify" viewBox="0 0 39 38.999999" height="52" preserveAspectRatio="xMidYMid meet" version="1.0"><defs><clipPath id="3bb716e7c0"><path d="M 13 34 L 26 34 L 26 37.472656 L 13 37.472656 Z M 13 34 " clip-rule="nonzero"/></clipPath><clipPath id="153e2be76a"><path d="M 8 1.472656 L 31 1.472656 L 31 12 L 8 12 Z M 8 1.472656 " clip-rule="nonzero"/></clipPath></defs><path fill="#ffffff" d="M 30.855469 28.011719 L 8.140625 28.011719 C 7.167969 28.011719 6.386719 27.230469 6.386719 26.257812 L 6.386719 10.242188 C 6.386719 9.269531 7.167969 8.488281 8.140625 8.488281 L 9.386719 8.488281 C 9.617188 8.488281 9.789062 8.679688 9.789062 8.910156 C 9.789062 9.144531 9.617188 9.332031 9.386719 9.332031 L 8.140625 9.332031 C 7.632812 9.332031 7.210938 9.734375 7.210938 10.242188 L 7.210938 26.257812 C 7.210938 26.765625 7.632812 27.167969 8.140625 27.167969 L 30.855469 27.167969 C 31.359375 27.167969 31.761719 26.765625 31.761719 26.257812 L 31.761719 10.242188 C 31.761719 9.734375 31.359375 9.332031 30.855469 9.332031 L 29.480469 9.332031 C 29.246094 9.332031 29.058594 9.144531 29.058594 8.910156 C 29.058594 8.679688 29.246094 8.488281 29.480469 8.488281 L 30.855469 8.488281 C 31.824219 8.488281 32.609375 9.269531 32.609375 10.242188 L 32.609375 26.257812 C 32.609375 27.230469 31.824219 28.011719 30.855469 28.011719 Z M 30.855469 28.011719 " fill-opacity="1" fill-rule="evenodd"/><path fill="#ffffff" d="M 32.183594 25.667969 L 6.808594 25.667969 C 6.574219 25.667969 6.386719 25.476562 6.386719 25.242188 C 6.386719 25.011719 6.574219 24.820312 6.808594 24.820312 L 32.183594 24.820312 C 32.417969 24.820312 32.609375 25.011719 32.609375 25.242188 C 32.609375 25.476562 32.417969 25.667969 32.183594 25.667969 Z M 32.183594 25.667969 " fill-opacity="1" fill-rule="evenodd"/><path fill="#ffffff" d="M 16.824219 35.175781 C 16.78125 35.175781 16.761719 35.175781 16.71875 35.175781 C 16.484375 35.113281 16.359375 34.878906 16.421875 34.648438 L 17.667969 30.082031 L 17.667969 27.589844 C 17.667969 27.355469 17.859375 27.167969 18.089844 27.167969 C 18.324219 27.167969 18.492188 27.355469 18.492188 27.589844 L 18.492188 30.144531 C 18.492188 30.167969 18.492188 30.210938 18.492188 30.25 L 17.226562 34.859375 C 17.183594 35.046875 17.015625 35.175781 16.824219 35.175781 Z M 16.824219 35.175781 " fill-opacity="1" fill-rule="evenodd"/><path fill="#ffffff" d="M 22.167969 35.175781 C 21.980469 35.175781 21.808594 35.046875 21.746094 34.878906 L 20.5 30.25 C 20.480469 30.210938 20.480469 30.167969 20.480469 30.144531 L 20.480469 27.589844 C 20.480469 27.355469 20.667969 27.167969 20.902344 27.167969 C 21.132812 27.167969 21.324219 27.355469 21.324219 27.589844 L 21.324219 30.082031 L 22.570312 34.648438 C 22.632812 34.878906 22.488281 35.113281 22.273438 35.175781 C 22.234375 35.175781 22.191406 35.175781 22.167969 35.175781 Z M 22.167969 35.175781 " fill-opacity="1" fill-rule="evenodd"/><g clip-path="url(#3bb716e7c0)"><path fill="#ffffff" d="M 24.789062 37.519531 L 14.203125 37.519531 C 13.972656 37.519531 13.78125 37.328125 13.78125 37.097656 L 13.78125 35.933594 C 13.78125 35.046875 14.5 34.328125 15.367188 34.328125 L 23.605469 34.328125 C 24.492188 34.328125 25.210938 35.046875 25.210938 35.933594 L 25.210938 37.097656 C 25.210938 37.328125 25.023438 37.519531 24.789062 37.519531 Z M 14.625 36.675781 L 24.367188 36.675781 L 24.367188 35.933594 C 24.367188 35.511719 24.027344 35.175781 23.605469 35.175781 L 15.367188 35.175781 C 14.964844 35.175781 14.625 35.511719 14.625 35.933594 Z M 14.625 36.675781 " fill-opacity="1" fill-rule="evenodd"/></g><g clip-path="url(#153e2be76a)"><path fill="#ffffff" d="M 11.773438 11.425781 C 11.710938 11.425781 11.667969 11.425781 11.605469 11.425781 C 11.4375 11.425781 11.246094 11.402344 11.078125 11.339844 C 9.828125 11.046875 8.941406 9.902344 8.941406 8.59375 C 8.941406 7.050781 10.210938 5.785156 11.773438 5.785156 C 11.878906 5.785156 12.007812 5.785156 12.113281 5.804688 C 12.492188 5.296875 13.148438 5.003906 13.78125 5.066406 C 13.992188 3.839844 15.050781 2.890625 16.339844 2.890625 C 16.613281 2.890625 16.867188 2.929688 17.121094 3.015625 C 17.921875 2.042969 19.105469 1.472656 20.351562 1.472656 C 22.65625 1.472656 24.535156 3.355469 24.535156 5.65625 C 24.535156 5.742188 24.535156 5.824219 24.535156 5.890625 C 24.789062 5.996094 25 6.121094 25.191406 6.3125 C 25.550781 6.101562 25.953125 5.972656 26.394531 5.972656 C 27.15625 5.972656 27.832031 6.355469 28.234375 6.988281 C 29.058594 7.113281 29.691406 7.769531 29.820312 8.613281 C 29.964844 8.890625 30.050781 9.207031 30.050781 9.523438 C 30.050781 10.582031 29.207031 11.425781 28.148438 11.425781 L 20.921875 11.425781 C 17.902344 11.425781 14.710938 11.425781 11.773438 11.425781 Z M 11.773438 6.609375 C 10.675781 6.609375 9.789062 7.515625 9.789062 8.59375 C 9.789062 9.523438 10.402344 10.328125 11.289062 10.539062 C 11.414062 10.558594 11.519531 10.582031 11.625 10.582031 C 11.691406 10.582031 11.730469 10.582031 11.773438 10.582031 C 14.710938 10.582031 17.902344 10.582031 20.921875 10.582031 L 28.148438 10.582031 C 28.742188 10.582031 29.207031 10.117188 29.207031 9.523438 C 29.207031 9.332031 29.140625 9.144531 29.035156 8.972656 C 29.015625 8.910156 28.996094 8.847656 28.972656 8.785156 C 28.929688 8.234375 28.507812 7.832031 27.960938 7.8125 C 27.8125 7.792969 27.664062 7.707031 27.601562 7.578125 C 27.367188 7.09375 26.902344 6.820312 26.394531 6.820312 C 26.015625 6.820312 25.675781 6.945312 25.421875 7.199219 C 25.339844 7.304688 25.210938 7.347656 25.085938 7.328125 C 24.957031 7.304688 24.832031 7.242188 24.769531 7.136719 C 24.597656 6.863281 24.324219 6.671875 24.027344 6.628906 C 23.902344 6.609375 23.816406 6.542969 23.753906 6.460938 C 23.667969 6.375 23.648438 6.269531 23.667969 6.144531 C 23.691406 5.996094 23.691406 5.824219 23.691406 5.65625 C 23.691406 3.820312 22.191406 2.320312 20.351562 2.320312 C 19.273438 2.320312 18.238281 2.867188 17.605469 3.753906 C 17.5 3.925781 17.269531 3.988281 17.078125 3.902344 C 16.84375 3.796875 16.589844 3.734375 16.339844 3.734375 C 15.367188 3.734375 14.585938 4.515625 14.585938 5.46875 C 14.585938 5.507812 14.585938 5.53125 14.585938 5.574219 C 14.605469 5.699219 14.542969 5.847656 14.414062 5.933594 C 14.308594 6.015625 14.140625 6.039062 14.015625 5.972656 C 13.886719 5.933594 13.761719 5.890625 13.613281 5.890625 C 13.230469 5.890625 12.871094 6.101562 12.683594 6.460938 C 12.597656 6.628906 12.40625 6.714844 12.21875 6.671875 C 12.070312 6.628906 11.921875 6.609375 11.773438 6.609375 Z M 11.773438 6.609375 " fill-opacity="1" fill-rule="evenodd"/></g><path fill="#ffffff" d="M 19.484375 13.726562 C 19.253906 13.726562 19.0625 13.539062 19.0625 13.304688 L 19.0625 11.003906 C 19.0625 10.769531 19.253906 10.582031 19.484375 10.582031 C 19.71875 10.582031 19.910156 10.769531 19.910156 11.003906 L 19.910156 13.304688 C 19.910156 13.539062 19.71875 13.726562 19.484375 13.726562 Z M 19.484375 13.726562 " fill-opacity="1" fill-rule="evenodd"/><path fill="#ffffff" d="M 15.070312 16.222656 C 14.835938 16.222656 14.648438 16.03125 14.648438 15.800781 L 14.648438 12.839844 C 14.648438 12.734375 14.691406 12.628906 14.753906 12.546875 L 16.445312 10.726562 C 16.589844 10.558594 16.867188 10.539062 17.035156 10.707031 C 17.203125 10.855469 17.203125 11.128906 17.054688 11.296875 L 15.492188 13.011719 L 15.492188 15.800781 C 15.492188 16.03125 15.300781 16.222656 15.070312 16.222656 Z M 15.070312 16.222656 " fill-opacity="1" fill-rule="evenodd"/><path fill="#ffffff" d="M 11.984375 17.722656 C 11.753906 17.722656 11.5625 17.53125 11.5625 17.300781 L 11.5625 13.410156 C 11.5625 13.328125 11.582031 13.242188 11.648438 13.15625 L 13.316406 10.769531 C 13.464844 10.582031 13.71875 10.539062 13.90625 10.664062 C 14.097656 10.792969 14.140625 11.066406 14.015625 11.257812 L 12.40625 13.539062 L 12.40625 17.300781 C 12.40625 17.53125 12.21875 17.722656 11.984375 17.722656 Z M 11.984375 17.722656 " fill-opacity="1" fill-rule="evenodd"/><path fill="#ffffff" d="M 23.921875 16.222656 C 23.691406 16.222656 23.5 16.03125 23.5 15.800781 L 23.5 13.011719 L 21.9375 11.296875 C 21.769531 11.128906 21.789062 10.855469 21.957031 10.707031 C 22.128906 10.539062 22.402344 10.558594 22.550781 10.726562 L 24.242188 12.546875 C 24.304688 12.628906 24.347656 12.734375 24.347656 12.839844 L 24.347656 15.800781 C 24.347656 16.03125 24.15625 16.222656 23.921875 16.222656 Z M 23.921875 16.222656 " fill-opacity="1" fill-rule="evenodd"/><path fill="#ffffff" d="M 27.007812 17.722656 C 26.777344 17.722656 26.585938 17.53125 26.585938 17.300781 L 26.585938 13.539062 L 24.980469 11.257812 C 24.851562 11.066406 24.894531 10.792969 25.085938 10.664062 C 25.277344 10.539062 25.527344 10.582031 25.65625 10.769531 L 27.347656 13.15625 C 27.386719 13.242188 27.429688 13.328125 27.429688 13.410156 L 27.429688 17.300781 C 27.429688 17.53125 27.242188 17.722656 27.007812 17.722656 Z M 27.007812 17.722656 " fill-opacity="1" fill-rule="evenodd"/><path fill="#ffffff" d="M 19.484375 15.417969 C 18.789062 15.417969 18.238281 14.847656 18.238281 14.152344 C 18.238281 13.453125 18.789062 12.882812 19.484375 12.882812 C 20.183594 12.882812 20.753906 13.453125 20.753906 14.152344 C 20.753906 14.847656 20.183594 15.417969 19.484375 15.417969 Z M 19.484375 13.726562 C 19.253906 13.726562 19.0625 13.917969 19.0625 14.152344 C 19.0625 14.382812 19.253906 14.574219 19.484375 14.574219 C 19.71875 14.574219 19.910156 14.382812 19.910156 14.152344 C 19.910156 13.917969 19.71875 13.726562 19.484375 13.726562 Z M 19.484375 13.726562 " fill-opacity="1" fill-rule="evenodd"/><path fill="#ffffff" d="M 15.070312 17.910156 C 14.371094 17.910156 13.800781 17.339844 13.800781 16.644531 C 13.800781 15.945312 14.371094 15.375 15.070312 15.375 C 15.765625 15.375 16.316406 15.945312 16.316406 16.644531 C 16.316406 17.339844 15.765625 17.910156 15.070312 17.910156 Z M 15.070312 16.222656 C 14.835938 16.222656 14.648438 16.410156 14.648438 16.644531 C 14.648438 16.875 14.835938 17.066406 15.070312 17.066406 C 15.300781 17.066406 15.492188 16.875 15.492188 16.644531 C 15.492188 16.410156 15.300781 16.222656 15.070312 16.222656 Z M 15.070312 16.222656 " fill-opacity="1" fill-rule="evenodd"/><path fill="#ffffff" d="M 11.984375 19.390625 C 11.289062 19.390625 10.71875 18.820312 10.71875 18.125 C 10.71875 17.445312 11.289062 16.875 11.984375 16.875 C 12.683594 16.875 13.253906 17.445312 13.253906 18.125 C 13.253906 18.820312 12.683594 19.390625 11.984375 19.390625 Z M 11.984375 17.722656 C 11.753906 17.722656 11.5625 17.890625 11.5625 18.125 C 11.5625 18.355469 11.753906 18.546875 11.984375 18.546875 C 12.21875 18.546875 12.40625 18.355469 12.40625 18.125 C 12.40625 17.890625 12.21875 17.722656 11.984375 17.722656 Z M 11.984375 17.722656 " fill-opacity="1" fill-rule="evenodd"/><path fill="#ffffff" d="M 23.921875 17.910156 C 23.226562 17.910156 22.65625 17.339844 22.65625 16.644531 C 22.65625 15.945312 23.226562 15.375 23.921875 15.375 C 24.621094 15.375 25.191406 15.945312 25.191406 16.644531 C 25.191406 17.339844 24.621094 17.910156 23.921875 17.910156 Z M 23.921875 16.222656 C 23.691406 16.222656 23.5 16.410156 23.5 16.644531 C 23.5 16.875 23.691406 17.066406 23.921875 17.066406 C 24.15625 17.066406 24.347656 16.875 24.347656 16.644531 C 24.347656 16.410156 24.15625 16.222656 23.921875 16.222656 Z M 23.921875 16.222656 " fill-opacity="1" fill-rule="evenodd"/><path fill="#ffffff" d="M 27.007812 19.390625 C 26.3125 19.390625 25.742188 18.820312 25.742188 18.125 C 25.742188 17.445312 26.3125 16.875 27.007812 16.875 C 27.707031 16.875 28.253906 17.445312 28.253906 18.125 C 28.253906 18.820312 27.707031 19.390625 27.007812 19.390625 Z M 27.007812 17.722656 C 26.777344 17.722656 26.585938 17.890625 26.585938 18.125 C 26.585938 18.355469 26.777344 18.546875 27.007812 18.546875 C 27.242188 18.546875 27.429688 18.355469 27.429688 18.125 C 27.429688 17.890625 27.242188 17.722656 27.007812 17.722656 Z M 27.007812 17.722656 " fill-opacity="1" fill-rule="evenodd"/><path fill="#ffffff" d="M 20.457031 18.695312 C 20.332031 18.695312 20.203125 18.628906 20.121094 18.523438 L 19.484375 17.722656 L 18.875 18.523438 C 18.726562 18.714844 18.472656 18.734375 18.28125 18.609375 C 18.089844 18.460938 18.070312 18.1875 18.199219 18.019531 L 19.167969 16.792969 C 19.316406 16.582031 19.65625 16.582031 19.824219 16.792969 L 20.773438 18.019531 C 20.921875 18.1875 20.878906 18.460938 20.710938 18.609375 C 20.628906 18.652344 20.542969 18.695312 20.457031 18.695312 Z M 20.457031 18.695312 " fill-opacity="1" fill-rule="evenodd"/><path fill="#ffffff" d="M 19.484375 23.742188 C 19.253906 23.742188 19.0625 23.554688 19.0625 23.320312 L 19.0625 17.046875 C 19.0625 16.8125 19.253906 16.625 19.484375 16.625 C 19.71875 16.625 19.910156 16.8125 19.910156 17.046875 L 19.910156 23.320312 C 19.910156 23.554688 19.71875 23.742188 19.484375 23.742188 Z M 19.484375 23.742188 " fill-opacity="1" fill-rule="evenodd"/></svg>
